{
.appVersion = "1004";
copyright = "Copyright 2017, TBC Bank. All right reserved.";
customParameters = (
{
name = description;
value = "Given font represents one of the georgian font made at 1910 year in Paris. Development of the font was done by GeoLab’s Font-Engineering team. GeoLab is a company working on Innovative Technology projects in Georgia who joined the overall campaign actively and fulfilled several projects. Font-Engineer of this font is David Samsonidze.";
},
{
name = note;
value = "Font Engineer DAVID SAMSONIDZE";
}
);
date = "2016-03-30 16:36:33 +0000";
familyName = "GA Parizuli";
fontMaster = (
{
alignmentZones = (
"{710, 12}",
"{690, 12}",
"{420, 12}",
"{0, -12}",
"{-300, -12}"
);
ascender = 710;
capHeight = 690;
descender = -300;
id = "9ECE4C5B-AE6E-45F8-855F-54F501A6946D";
userData = {
GSOffsetHorizontal = -20;
GSOffsetVertical = 1;
};
visible = 1;
weightValue = 75;
xHeight = 420;
},
{
alignmentZones = (
"{710, 15}",
"{690, 15}",
"{420, 15}",
"{0, -15}",
"{-300, -15}"
);
ascender = 710;
capHeight = 690;
descender = -300;
id = "6701A4D5-8A3D-41DD-8AA0-CFF5D98C5FFE";
weight = Bold;
weightValue = 135;
xHeight = 420;
}
);
glyphs = (
{
glyphname = A;
lastChange = "2017-04-01 19:43:56 +0000";
layers = (
{
layerId = "9ECE4C5B-AE6E-45F8-855F-54F501A6946D";
paths = (
{
closed = 1;
nodes = (
"676 15 LINE SMOOTH",
"625 15 OFFCURVE",
"608 39 OFFCURVE",
"591 87 CURVE SMOOTH",
"383 690 LINE",
"372 690 LINE",
"156 123 OFFCURVE",
"138 15 OFFCURVE",
"31 15 CURVE",
"31 0 LINE",
"273 0 LINE",
"273 15 LINE",
"256 15 LINE SMOOTH",
"214 15 OFFCURVE",
"175 47 OFFCURVE",
"175 96 CURVE SMOOTH",
"175 130 OFFCURVE",
"188 152 OFFCURVE",
"220 237 CURVE",
"460 237 LINE",
"515 77 OFFCURVE",
"521 70 OFFCURVE",
"521 52 CURVE SMOOTH",
"521 29 OFFCURVE",
"499 15 OFFCURVE",
"463 15 CURVE SMOOTH",
"406 15 LINE",
"406 0 LINE",
"706 0 LINE",
"706 15 LINE"
);
},
{
closed = 1;
nodes = (
"348 582 LINE",
"456 253 LINE",
"225 253 LINE"
);
}
);
width = 736;
},
{
layerId = "6701A4D5-8A3D-41DD-8AA0-CFF5D98C5FFE";
paths = (
{
closed = 1;
nodes = (
"705 17 LINE SMOOTH",
"654 17 OFFCURVE",
"637 39 OFFCURVE",
"620 87 CURVE SMOOTH",
"412 690 LINE",
"371 690 LINE",
"155 123 OFFCURVE",
"137 17 OFFCURVE",
"30 17 CURVE",
"30 0 LINE",
"273 0 LINE",
"273 17 LINE",
"256 17 LINE SMOOTH",
"214 17 OFFCURVE",
"175 47 OFFCURVE",
"175 96 CURVE SMOOTH",
"175 130 OFFCURVE",
"188 152 OFFCURVE",
"220 237 CURVE",
"441 237 LINE",
"496 77 OFFCURVE",
"502 70 OFFCURVE",
"502 52 CURVE SMOOTH",
"502 29 OFFCURVE",
"483 17 OFFCURVE",
"447 17 CURVE SMOOTH",
"390 17 LINE",
"390 0 LINE",
"735 0 LINE",
"735 17 LINE"
);
},
{
closed = 1;
nodes = (
"335 546 LINE",
"435 256 LINE",
"227 256 LINE"
);
}
);
width = 765;
}
);
note = A;
unicode = 0041;
},
{
glyphname = B;
lastChange = "2017-04-01 19:47:40 +0000";
layers = (
{
layerId = "9ECE4C5B-AE6E-45F8-855F-54F501A6946D";
paths = (
{
closed = 1;
nodes = (
"611 293 OFFCURVE",
"546 343 OFFCURVE",
"410 356 CURVE",
"507 366 OFFCURVE",
"590 412 OFFCURVE",
"590 515 CURVE SMOOTH",
"590 652 OFFCURVE",
"454 690 OFFCURVE",
"384 690 CURVE SMOOTH",
"30 690 LINE",
"30 675 LINE",
"51 675 LINE SMOOTH",
"125 675 OFFCURVE",
"159 644 OFFCURVE",
"159 576 CURVE SMOOTH",
"159 114 LINE SMOOTH",
"159 47 OFFCURVE",
"125 14 OFFCURVE",
"51 14 CURVE SMOOTH",
"30 14 LINE",
"30 0 LINE",
"420 0 LINE SMOOTH",
"507 0 OFFCURVE",
"611 55 OFFCURVE",
"611 169 CURVE SMOOTH"
);
},
{
closed = 1;
nodes = (
"510 426 OFFCURVE",
"442 363 OFFCURVE",
"346 363 CURVE SMOOTH",
"234 363 LINE",
"234 638 LINE SMOOTH",
"234 663 OFFCURVE",
"238 675 OFFCURVE",
"264 675 CURVE SMOOTH",
"364 675 LINE SMOOTH",
"451 675 OFFCURVE",
"510 620 OFFCURVE",
"510 515 CURVE SMOOTH"
);
},
{
closed = 1;
nodes = (
"531 68 OFFCURVE",
"471 15 OFFCURVE",
"371 15 CURVE SMOOTH",
"307 15 LINE SMOOTH",
"253 15 OFFCURVE",
"234 38 OFFCURVE",
"234 92 CURVE SMOOTH",
"234 348 LINE",
"332 348 LINE SMOOTH",
"457 348 OFFCURVE",
"531 287 OFFCURVE",
"531 168 CURVE SMOOTH"
);
}
);
width = 641;
},
{
layerId = "6701A4D5-8A3D-41DD-8AA0-CFF5D98C5FFE";
paths = (
{
closed = 1;
nodes = (
"691 293 OFFCURVE",
"605 343 OFFCURVE",
"456 356 CURVE",
"566 366 OFFCURVE",
"674 412 OFFCURVE",
"674 515 CURVE SMOOTH",
"674 634 OFFCURVE",
"570 690 OFFCURVE",
"430 690 CURVE SMOOTH",
"30 690 LINE",
"30 673 LINE",
"51 673 LINE SMOOTH",
"125 673 OFFCURVE",
"159 644 OFFCURVE",
"159 576 CURVE SMOOTH",
"159 114 LINE SMOOTH",
"159 47 OFFCURVE",
"125 17 OFFCURVE",
"51 17 CURVE SMOOTH",
"30 17 LINE",
"30 0 LINE",
"466 0 LINE SMOOTH",
"623 0 OFFCURVE",
"691 73 OFFCURVE",
"691 169 CURVE SMOOTH"
);
},
{
closed = 1;
nodes = (
"546 426 OFFCURVE",
"488 363 OFFCURVE",
"392 363 CURVE SMOOTH",
"280 363 LINE",
"280 638 LINE SMOOTH",
"280 663 OFFCURVE",
"284 673 OFFCURVE",
"310 673 CURVE SMOOTH",
"410 673 LINE SMOOTH",
"497 673 OFFCURVE",
"546 620 OFFCURVE",
"546 515 CURVE SMOOTH"
);
},
{
closed = 1;
nodes = (
"567 68 OFFCURVE",
"517 18 OFFCURVE",
"417 18 CURVE SMOOTH",
"353 18 LINE SMOOTH",
"299 18 OFFCURVE",
"280 38 OFFCURVE",
"280 92 CURVE SMOOTH",
"280 347 LINE",
"378 347 LINE SMOOTH",
"503 347 OFFCURVE",
"567 287 OFFCURVE",
"567 168 CURVE SMOOTH"
);
}
);
width = 721;
}
);
note = B;
unicode = 0042;
},
{
glyphname = C;
lastChange = "2017-04-01 19:49:59 +0000";
layers = (
{
layerId = "9ECE4C5B-AE6E-45F8-855F-54F501A6946D";
paths = (
{
closed = 1;
nodes = (
"505 95 OFFCURVE",
"413 3 OFFCURVE",
"327 3 CURVE SMOOTH",
"179 3 OFFCURVE",
"110 166 OFFCURVE",
"110 339 CURVE SMOOTH",
"110 527 OFFCURVE",
"152 687 OFFCURVE",
"285 687 CURVE SMOOTH",
"389 687 OFFCURVE",
"464 585 OFFCURVE",
"501 456 CURVE",
"516 456 LINE",
"507 700 LINE",
"492 700 LINE",
"484 665 OFFCURVE",
"467 638 OFFCURVE",
"452 619 CURVE",
"385 682 OFFCURVE",
"340 702 OFFCURVE",
"275 702 CURVE SMOOTH",
"112 702 OFFCURVE",
"30 523 OFFCURVE",
"30 339 CURVE SMOOTH",
"30 106 OFFCURVE",
"142 -12 OFFCURVE",
"319 -12 CURVE SMOOTH",
"435 -12 OFFCURVE",
"515 83 OFFCURVE",
"532 173 CURVE",
"517 173 LINE"
);
}
);
width = 562;
},
{
layerId = "6701A4D5-8A3D-41DD-8AA0-CFF5D98C5FFE";
paths = (
{
closed = 1;
nodes = (
"542 95 OFFCURVE",
"451 11 OFFCURVE",
"365 11 CURVE SMOOTH",
"217 11 OFFCURVE",
"158 166 OFFCURVE",
"158 352 CURVE SMOOTH",
"158 527 OFFCURVE",
"190 686 OFFCURVE",
"323 686 CURVE SMOOTH",
"427 686 OFFCURVE",
"493 575 OFFCURVE",
"540 456 CURVE",
"554 456 LINE",
"545 700 LINE",
"526 700 LINE",
"518 665 OFFCURVE",
"505 638 OFFCURVE",
"490 619 CURVE",
"423 682 OFFCURVE",
"378 702 OFFCURVE",
"313 702 CURVE SMOOTH",
"150 702 OFFCURVE",
"30 523 OFFCURVE",
"30 325 CURVE SMOOTH",
"30 106 OFFCURVE",
"158 -12 OFFCURVE",
"335 -12 CURVE SMOOTH",
"451 -12 OFFCURVE",
"553 66 OFFCURVE",
"570 173 CURVE",
"554 173 LINE"
);
}
);
width = 600;
}
);
note = C;
unicode = 0043;
},
{
glyphname = D;
lastChange = "2017-04-01 19:51:57 +0000";
layers = (
{
layerId = "9ECE4C5B-AE6E-45F8-855F-54F501A6946D";
paths = (
{
closed = 1;
nodes = (
"659 527 OFFCURVE",
"582 690 OFFCURVE",
"389 690 CURVE SMOOTH",
"30 690 LINE",
"30 675 LINE",
"50 675 LINE SMOOTH",
"125 675 OFFCURVE",
"158 645 OFFCURVE",
"158 567 CURVE SMOOTH",
"158 115 LINE SMOOTH",
"158 47 OFFCURVE",
"125 16 OFFCURVE",
"50 16 CURVE SMOOTH",
"31 16 LINE",
"31 0 LINE",
"380 0 LINE SMOOTH",
"583 0 OFFCURVE",
"659 136 OFFCURVE",
"659 321 CURVE SMOOTH"
);
},
{
closed = 1;
nodes = (
"579 101 OFFCURVE",
"510 15 OFFCURVE",
"338 15 CURVE SMOOTH",
"270 15 OFFCURVE",
"233 47 OFFCURVE",
"233 100 CURVE SMOOTH",
"233 627 LINE SMOOTH",
"233 662 OFFCURVE",
"242 674 OFFCURVE",
"272 674 CURVE SMOOTH",
"369 674 LINE SMOOTH",
"490 674 OFFCURVE",
"579 561 OFFCURVE",
"579 321 CURVE SMOOTH"
);
}
);
width = 689;
},
{
layerId = "6701A4D5-8A3D-41DD-8AA0-CFF5D98C5FFE";
paths = (
{
closed = 1;
nodes = (
"752 527 OFFCURVE",
"627 690 OFFCURVE",
"434 690 CURVE SMOOTH",
"30 690 LINE",
"30 674 LINE",
"50 674 LINE SMOOTH",
"125 674 OFFCURVE",
"158 645 OFFCURVE",
"158 567 CURVE SMOOTH",
"158 115 LINE SMOOTH",
"158 47 OFFCURVE",
"125 18 OFFCURVE",
"50 18 CURVE SMOOTH",
"31 18 LINE",
"31 0 LINE",
"425 0 LINE SMOOTH",
"628 0 OFFCURVE",
"752 127 OFFCURVE",
"752 327 CURVE SMOOTH"
);
},
{
closed = 1;
nodes = (
"624 100 OFFCURVE",
"555 17 OFFCURVE",
"383 17 CURVE SMOOTH",
"315 17 OFFCURVE",
"278 47 OFFCURVE",
"278 100 CURVE SMOOTH",
"278 627 LINE SMOOTH",
"278 662 OFFCURVE",
"287 673 OFFCURVE",
"317 673 CURVE SMOOTH",
"414 673 LINE SMOOTH",
"535 673 OFFCURVE",
"624 560 OFFCURVE",
"624 313 CURVE SMOOTH"
);
}
);
width = 782;
}
);
note = D;
unicode = 0044;
},
{
glyphname = E;
lastChange = "2017-04-02 12:46:05 +0000";
layers = (
{
layerId = "9ECE4C5B-AE6E-45F8-855F-54F501A6946D";
paths = (
{
closed = 1;
nodes = (
"592 107 OFFCURVE",
"524 15 OFFCURVE",
"435 15 CURVE SMOOTH",
"293 15 LINE SMOOTH",
"256 15 OFFCURVE",
"235 41 OFFCURVE",
"235 77 CURVE SMOOTH",
"235 338 LINE",
"270 338 LINE SMOOTH",
"349 338 OFFCURVE",
"422 309 OFFCURVE",
"427 183 CURVE",
"442 183 LINE",
"442 506 LINE",
"427 506 LINE",
"425 410 OFFCURVE",
"370 353 OFFCURVE",
"282 353 CURVE SMOOTH",
"235 353 LINE",
"235 638 LINE SMOOTH",
"235 666 OFFCURVE",
"248 675 OFFCURVE",
"285 675 CURVE SMOOTH",
"418 675 LINE SMOOTH",
"511 675 OFFCURVE",
"565 591 OFFCURVE",
"601 472 CURVE",
"611 472 LINE",
"605 690 LINE",
"32 690 LINE",
"32 675 LINE",
"53 675 LINE SMOOTH",
"127 675 OFFCURVE",
"160 645 OFFCURVE",
"160 576 CURVE SMOOTH",
"160 114 LINE SMOOTH",
"160 47 OFFCURVE",
"126 15 OFFCURVE",
"53 15 CURVE SMOOTH",
"30 15 LINE",
"30 0 LINE",
"639 0 LINE",
"649 256 LINE",
"638 256 LINE"
);
}
);
width = 679;
},
{
layerId = "6701A4D5-8A3D-41DD-8AA0-CFF5D98C5FFE";
paths = (
{
closed = 1;
nodes = (
"621 107 OFFCURVE",
"569 17 OFFCURVE",
"480 17 CURVE SMOOTH",
"338 17 LINE SMOOTH",
"301 17 OFFCURVE",
"280 41 OFFCURVE",
"280 77 CURVE SMOOTH",
"280 337 LINE",
"315 337 LINE SMOOTH",
"394 337 OFFCURVE",
"467 283 OFFCURVE",
"472 157 CURVE",
"488 157 LINE",
"488 531 LINE",
"472 531 LINE",
"470 435 OFFCURVE",
"415 353 OFFCURVE",
"327 353 CURVE SMOOTH",
"280 353 LINE",
"280 628 LINE SMOOTH",
"280 656 OFFCURVE",
"293 663 OFFCURVE",
"330 663 CURVE SMOOTH",
"463 663 LINE SMOOTH",
"549 663 OFFCURVE",
"592 581 OFFCURVE",
"645 462 CURVE",
"656 462 LINE",
"650 680 LINE",
"32 680 LINE",
"32 663 LINE",
"53 663 LINE SMOOTH",
"127 663 OFFCURVE",
"160 635 OFFCURVE",
"160 566 CURVE SMOOTH",
"160 114 LINE SMOOTH",
"160 47 OFFCURVE",
"126 17 OFFCURVE",
"53 17 CURVE SMOOTH",
"30 17 LINE",
"30 0 LINE",
"684 0 LINE",
"694 256 LINE",
"683 256 LINE"
);
}
);
width = 724;
}
);
note = E;
unicode = 0045;
},
{
glyphname = F;
lastChange = "2017-04-02 12:46:46 +0000";
layers = (
{
layerId = "9ECE4C5B-AE6E-45F8-855F-54F501A6946D";
paths = (
{
closed = 1;
nodes = (
"30 690 LINE",
"30 675 LINE",
"50 675 LINE SMOOTH",
"125 675 OFFCURVE",
"158 645 OFFCURVE",
"158 576 CURVE SMOOTH",
"158 113 LINE SMOOTH",
"158 41 OFFCURVE",
"123 22 OFFCURVE",
"50 16 CURVE SMOOTH",
"37 15 LINE",
"37 0 LINE",
"360 0 LINE",
"360 15 LINE",
"340 15 LINE SMOOTH",
"267 15 OFFCURVE",
"233 45 OFFCURVE",
"233 113 CURVE SMOOTH",
"233 331 LINE",
"272 331 LINE SMOOTH",
"349 331 OFFCURVE",
"396 280 OFFCURVE",
"413 177 CURVE",
"428 177 LINE",
"428 500 LINE",
"413 500 LINE",
"407 384 OFFCURVE",
"347 346 OFFCURVE",
"259 346 CURVE SMOOTH",
"233 346 LINE",
"233 627 LINE SMOOTH",
"233 664 OFFCURVE",
"244 675 OFFCURVE",
"278 675 CURVE SMOOTH",
"423 675 LINE SMOOTH",
"512 675 OFFCURVE",
"558 587 OFFCURVE",
"595 465 CURVE",
"605 465 LINE",
"598 690 LINE"
);
}
);
width = 635;
},
{
layerId = "6701A4D5-8A3D-41DD-8AA0-CFF5D98C5FFE";
paths = (
{
closed = 1;
nodes = (
"30 680 LINE",
"30 663 LINE",
"50 663 LINE SMOOTH",
"125 663 OFFCURVE",
"158 635 OFFCURVE",
"158 566 CURVE SMOOTH",
"158 115 LINE SMOOTH",
"158 45 OFFCURVE",
"123 24 OFFCURVE",
"50 18 CURVE SMOOTH",
"37 17 LINE",
"37 0 LINE",
"405 0 LINE",
"405 17 LINE",
"385 17 LINE SMOOTH",
"312 17 OFFCURVE",
"278 47 OFFCURVE",
"278 115 CURVE SMOOTH",
"278 336 LINE",
"317 336 LINE SMOOTH",
"394 336 OFFCURVE",
"441 285 OFFCURVE",
"458 182 CURVE",
"475 182 LINE",
"475 506 LINE",
"458 506 LINE",
"452 390 OFFCURVE",
"392 352 OFFCURVE",
"304 352 CURVE SMOOTH",
"278 352 LINE",
"278 617 LINE SMOOTH",
"278 654 OFFCURVE",
"289 663 OFFCURVE",
"323 663 CURVE SMOOTH",
"468 663 LINE SMOOTH",
"540 663 OFFCURVE",
"593 569 OFFCURVE",
"640 455 CURVE",
"653 455 LINE",
"646 680 LINE"
);
}
);
width = 683;
}
);
note = F;
unicode = 0046;
},
{
glyphname = G;
lastChange = "2017-04-02 12:55:01 +0000";
layers = (
{
layerId = "9ECE4C5B-AE6E-45F8-855F-54F501A6946D";
paths = (
{
closed = 1;
nodes = (
"444 3 OFFCURVE",
"498 51 OFFCURVE",
"498 137 CURVE SMOOTH",
"498 215 OFFCURVE",
"483 243 OFFCURVE",
"409 243 CURVE SMOOTH",
"395 243 LINE",
"395 258 LINE",
"671 258 LINE",
"671 243 LINE",
"599 243 OFFCURVE",
"573 216 OFFCURVE",
"573 146 CURVE SMOOTH",
"573 6 LINE",
"567 6 LINE",
"545 23 OFFCURVE",
"529 28 OFFCURVE",
"511 28 CURVE SMOOTH",
"483 28 OFFCURVE",
"437 -12 OFFCURVE",
"357 -12 CURVE SMOOTH",
"229 -12 OFFCURVE",
"30 84 OFFCURVE",
"30 325 CURVE SMOOTH",
"30 553 OFFCURVE",
"149 702 OFFCURVE",
"344 702 CURVE SMOOTH",
"406 702 OFFCURVE",
"446 676 OFFCURVE",
"507 624 CURVE",
"525 642 OFFCURVE",
"544 677 OFFCURVE",
"554 700 CURVE",
"566 700 LINE",
"583 435 LINE",
"568 435 LINE",
"535 571 OFFCURVE",
"454 687 OFFCURVE",
"346 687 CURVE SMOOTH",
"189 687 OFFCURVE",
"110 519 OFFCURVE",
"110 325 CURVE SMOOTH",
"110 173 OFFCURVE",
"215 3 OFFCURVE",
"356 3 CURVE SMOOTH"
);
}
);
width = 701;
},
{
layerId = "6701A4D5-8A3D-41DD-8AA0-CFF5D98C5FFE";
paths = (
{
closed = 1;
nodes = (
"450 6 OFFCURVE",
"488 58 OFFCURVE",
"488 146 CURVE SMOOTH",
"488 215 OFFCURVE",
"454 243 OFFCURVE",
"380 243 CURVE SMOOTH",
"366 243 LINE",
"366 260 LINE",
"706 260 LINE",
"706 243 LINE",
"634 243 OFFCURVE",
"608 216 OFFCURVE",
"608 146 CURVE SMOOTH",
"608 0 LINE",
"604 0 LINE",
"582 17 OFFCURVE",
"569 28 OFFCURVE",
"543 28 CURVE SMOOTH",
"469 28 OFFCURVE",
"421 -12 OFFCURVE",
"334 -12 CURVE SMOOTH",
"144 -12 OFFCURVE",
"30 115 OFFCURVE",
"30 311 CURVE SMOOTH",
"30 515 OFFCURVE",
"157 689 OFFCURVE",
"341 689 CURVE SMOOTH",
"403 689 OFFCURVE",
"465 664 OFFCURVE",
"526 612 CURVE",
"544 630 OFFCURVE",
"563 665 OFFCURVE",
"573 688 CURVE",
"585 688 LINE",
"602 423 LINE",
"587 423 LINE",
"554 559 OFFCURVE",
"463 673 OFFCURVE",
"343 673 CURVE SMOOTH",
"186 673 OFFCURVE",
"158 519 OFFCURVE",
"158 338 CURVE SMOOTH",
"158 153 OFFCURVE",
"200 6 OFFCURVE",
"356 6 CURVE SMOOTH"
);
}
);
width = 736;
}
);
note = G;
unicode = 0047;
},
{
glyphname = H;
lastChange = "2017-04-02 12:56:53 +0000";
layers = (
{
layerId = "9ECE4C5B-AE6E-45F8-855F-54F501A6946D";
paths = (
{
closed = 1;
nodes = (
"727 15 LINE SMOOTH",
"656 15 OFFCURVE",
"620 45 OFFCURVE",
"620 114 CURVE SMOOTH",
"620 576 LINE SMOOTH",
"620 645 OFFCURVE",
"654 675 OFFCURVE",
"727 675 CURVE SMOOTH",
"745 675 LINE",
"745 690 LINE",
"431 690 LINE",
"431 675 LINE",
"502 675 OFFCURVE",
"545 654 OFFCURVE",
"545 576 CURVE SMOOTH",
"545 352 LINE",
"235 352 LINE",
"235 576 LINE SMOOTH",
"235 657 OFFCURVE",
"280 675 OFFCURVE",
"351 675 CURVE",
"351 690 LINE",
"31 690 LINE",
"31 675 LINE",
"51 675 LINE SMOOTH",
"126 675 OFFCURVE",
"160 645 OFFCURVE",
"160 576 CURVE SMOOTH",
"160 114 LINE SMOOTH",
"160 46 OFFCURVE",
"126 15 OFFCURVE",
"51 15 CURVE SMOOTH",
"30 15 LINE",
"30 0 LINE",
"351 0 LINE",
"351 15 LINE",
"276 15 OFFCURVE",
"235 37 OFFCURVE",
"235 114 CURVE SMOOTH",
"235 337 LINE",
"545 337 LINE",
"545 114 LINE SMOOTH",
"545 40 OFFCURVE",
"507 15 OFFCURVE",
"430 15 CURVE",
"430 0 LINE",
"746 0 LINE",
"746 15 LINE"
);
}
);
width = 776;
},
{
layerId = "6701A4D5-8A3D-41DD-8AA0-CFF5D98C5FFE";
paths = (
{
closed = 1;
nodes = (
"816 17 LINE SMOOTH",
"745 17 OFFCURVE",
"709 45 OFFCURVE",
"709 114 CURVE SMOOTH",
"709 566 LINE SMOOTH",
"709 635 OFFCURVE",
"743 663 OFFCURVE",
"816 663 CURVE SMOOTH",
"834 663 LINE",
"834 680 LINE",
"475 680 LINE",
"475 663 LINE",
"546 663 OFFCURVE",
"589 644 OFFCURVE",
"589 566 CURVE SMOOTH",
"589 352 LINE",
"279 352 LINE",
"279 566 LINE SMOOTH",
"279 647 OFFCURVE",
"324 663 OFFCURVE",
"395 663 CURVE",
"395 680 LINE",
"31 680 LINE",
"31 663 LINE",
"51 663 LINE SMOOTH",
"126 663 OFFCURVE",
"160 635 OFFCURVE",
"160 566 CURVE SMOOTH",
"160 114 LINE SMOOTH",
"160 46 OFFCURVE",
"126 17 OFFCURVE",
"51 17 CURVE SMOOTH",
"30 17 LINE",
"30 0 LINE",
"395 0 LINE",
"395 17 LINE",
"320 17 OFFCURVE",
"279 37 OFFCURVE",
"279 114 CURVE SMOOTH",
"279 332 LINE",
"589 332 LINE",
"589 114 LINE SMOOTH",
"589 40 OFFCURVE",
"551 17 OFFCURVE",
"474 17 CURVE",
"474 0 LINE",
"835 0 LINE",
"835 17 LINE"
);
}
);
width = 865;
}
);
note = H;
unicode = 0048;
},
{
glyphname = I;
lastChange = "2017-04-02 12:57:58 +0000";
layers = (
{
layerId = "9ECE4C5B-AE6E-45F8-855F-54F501A6946D";
paths = (
{
closed = 1;
nodes = (
"339 15 LINE SMOOTH",
"265 15 OFFCURVE",
"232 47 OFFCURVE",
"232 114 CURVE SMOOTH",
"232 576 LINE SMOOTH",
"232 644 OFFCURVE",
"265 675 OFFCURVE",
"339 675 CURVE SMOOTH",
"355 675 LINE",
"355 690 LINE",
"32 690 LINE",
"32 675 LINE",
"50 675 LINE SMOOTH",
"124 675 OFFCURVE",
"157 645 OFFCURVE",
"157 576 CURVE SMOOTH",
"157 114 LINE SMOOTH",
"157 47 OFFCURVE",
"124 15 OFFCURVE",
"50 15 CURVE SMOOTH",
"30 15 LINE",
"30 0 LINE",
"355 0 LINE",
"355 15 LINE"
);
}
);
width = 385;
},
{
layerId = "6701A4D5-8A3D-41DD-8AA0-CFF5D98C5FFE";
paths = (
{
closed = 1;
nodes = (
"385 18 LINE SMOOTH",
"311 18 OFFCURVE",
"278 47 OFFCURVE",
"278 114 CURVE SMOOTH",
"278 566 LINE SMOOTH",
"278 634 OFFCURVE",
"311 663 OFFCURVE",
"385 663 CURVE SMOOTH",
"401 663 LINE",
"401 680 LINE",
"32 680 LINE",
"32 663 LINE",
"50 663 LINE SMOOTH",
"124 663 OFFCURVE",
"157 635 OFFCURVE",
"157 566 CURVE SMOOTH",
"157 114 LINE SMOOTH",
"157 47 OFFCURVE",
"124 18 OFFCURVE",
"50 18 CURVE SMOOTH",
"30 18 LINE",
"30 0 LINE",
"401 0 LINE",
"401 18 LINE"
);
}
);
width = 431;
}
);
note = I;
unicode = 0049;
},
{
glyphname = J;
lastChange = "2017-04-02 13:00:57 +0000";
layers = (
{
layerId = "9ECE4C5B-AE6E-45F8-855F-54F501A6946D";
paths = (
{
closed = 1;
nodes = (
"177 690 LINE",
"177 675 LINE",
"208 675 LINE SMOOTH",
"282 675 OFFCURVE",
"316 645 OFFCURVE",
"316 576 CURVE SMOOTH",
"316 148 LINE SMOOTH",
"316 53 OFFCURVE",
"275 3 OFFCURVE",
"195 3 CURVE SMOOTH",
"142 3 OFFCURVE",
"108 29 OFFCURVE",
"108 43 CURVE SMOOTH",
"108 66 OFFCURVE",
"142 69 OFFCURVE",
"142 110 CURVE SMOOTH",
"142 139 OFFCURVE",
"119 156 OFFCURVE",
"87 156 CURVE SMOOTH",
"64 156 OFFCURVE",
"30 139 OFFCURVE",
"30 101 CURVE SMOOTH",
"30 79 OFFCURVE",
"37 60 OFFCURVE",
"51 43 CURVE SMOOTH",
"79 8 OFFCURVE",
"133 -12 OFFCURVE",
"198 -12 CURVE SMOOTH",
"336 -12 OFFCURVE",
"391 64 OFFCURVE",
"391 216 CURVE SMOOTH",
"391 576 LINE SMOOTH",
"391 650 OFFCURVE",
"431 675 OFFCURVE",
"509 675 CURVE",
"509 690 LINE"
);
}
);
width = 539;
},
{
layerId = "6701A4D5-8A3D-41DD-8AA0-CFF5D98C5FFE";
paths = (
{
closed = 1;
nodes = (
"177 680 LINE",
"177 663 LINE",
"208 663 LINE SMOOTH",
"282 663 OFFCURVE",
"316 635 OFFCURVE",
"316 566 CURVE SMOOTH",
"316 148 LINE SMOOTH",
"316 53 OFFCURVE",
"275 5 OFFCURVE",
"195 5 CURVE SMOOTH",
"155 5 OFFCURVE",
"118 22 OFFCURVE",
"118 36 CURVE SMOOTH",
"118 49 OFFCURVE",
"171 62 OFFCURVE",
"171 110 CURVE SMOOTH",
"171 142 OFFCURVE",
"149 176 OFFCURVE",
"100 176 CURVE SMOOTH",
"63 176 OFFCURVE",
"30 148 OFFCURVE",
"30 101 CURVE SMOOTH",
"30 79 OFFCURVE",
"37 60 OFFCURVE",
"51 43 CURVE SMOOTH",
"79 8 OFFCURVE",
"133 -12 OFFCURVE",
"198 -12 CURVE SMOOTH",
"336 -12 OFFCURVE",
"436 48 OFFCURVE",
"436 216 CURVE SMOOTH",
"436 566 LINE SMOOTH",
"436 643 OFFCURVE",
"477 663 OFFCURVE",
"554 663 CURVE",
"554 680 LINE"
);
}
);
width = 584;
}
);
note = J;
unicode = 004A;
},
{
glyphname = K;
lastChange = "2017-04-02 13:09:20 +0000";
layers = (
{
layerId = "9ECE4C5B-AE6E-45F8-855F-54F501A6946D";
paths = (
{
closed = 1;
nodes = (
"708 15 LINE SMOOTH",
"673 15 OFFCURVE",
"638 23 OFFCURVE",
"600 77 CURVE SMOOTH",
"371 401 LINE",
"519 547 LINE",
"602 628 OFFCURVE",
"655 675 OFFCURVE",
"713 675 CURVE",
"713 690 LINE",
"427 690 LINE",
"427 675 LINE",
"456 675 LINE SMOOTH",
"495 675 OFFCURVE",
"522 648 OFFCURVE",
"522 611 CURVE SMOOTH",
"522 584 OFFCURVE",
"503 552 OFFCURVE",
"466 516 CURVE SMOOTH",
"240 296 LINE",
"240 576 LINE SMOOTH",
"240 647 OFFCURVE",
"276 675 OFFCURVE",
"349 675 CURVE",
"349 690 LINE",
"30 690 LINE",
"30 675 LINE",
"57 675 LINE SMOOTH",
"131 675 OFFCURVE",
"165 645 OFFCURVE",
"165 576 CURVE SMOOTH",
"165 114 LINE SMOOTH",
"165 46 OFFCURVE",
"131 15 OFFCURVE",
"57 15 CURVE SMOOTH",
"32 15 LINE",
"32 0 LINE",
"350 0 LINE",
"350 15 LINE",
"279 15 OFFCURVE",
"240 41 OFFCURVE",
"240 114 CURVE SMOOTH",
"240 277 LINE",
"319 349 LINE",
"500 88 LINE SMOOTH",
"537 35 OFFCURVE",
"528 15 OFFCURVE",
"456 15 CURVE SMOOTH",
"421 15 LINE",
"421 1 LINE",
"728 1 LINE",
"728 15 LINE"
);
}
);
width = 758;
},
{
layerId = "6701A4D5-8A3D-41DD-8AA0-CFF5D98C5FFE";
paths = (
{
closed = 1;
nodes = (
"809 18 LINE",
"762 19 OFFCURVE",
"742 20 OFFCURVE",
"701 77 CURVE SMOOTH",
"451 425 LINE",
"564 533 LINE SMOOTH",
"654 619 OFFCURVE",
"717 663 OFFCURVE",
"818 663 CURVE",
"818 680 LINE",
"472 680 LINE",
"472 663 LINE",
"501 663 LINE SMOOTH",
"540 663 OFFCURVE",
"567 638 OFFCURVE",
"567 601 CURVE SMOOTH",
"567 574 OFFCURVE",
"549 542 OFFCURVE",
"511 506 CURVE SMOOTH",
"285 296 LINE",
"285 566 LINE SMOOTH",
"285 638 OFFCURVE",
"321 663 OFFCURVE",
"394 663 CURVE",
"394 680 LINE",
"30 680 LINE",
"30 663 LINE",
"57 663 LINE SMOOTH",
"131 663 OFFCURVE",
"165 635 OFFCURVE",
"165 566 CURVE SMOOTH",
"165 114 LINE SMOOTH",
"165 46 OFFCURVE",
"131 18 OFFCURVE",
"57 18 CURVE SMOOTH",
"32 18 LINE",
"32 0 LINE",
"395 0 LINE",
"395 18 LINE",
"324 18 OFFCURVE",
"285 41 OFFCURVE",
"285 114 CURVE SMOOTH",
"285 270 LINE",
"364 342 LINE",
"538 94 LINE",
"566 46 OFFCURVE",
"563 18 OFFCURVE",
"501 18 CURVE SMOOTH",
"466 18 LINE",
"466 1 LINE",
"829 1 LINE",
"829 18 LINE"
);
}
);
width = 859;
}
);
note = K;
unicode = 004B;
},
{
glyphname = L;
lastChange = "2017-04-02 13:10:35 +0000";
layers = (
{
layerId = "9ECE4C5B-AE6E-45F8-855F-54F501A6946D";
paths = (
{
closed = 1;
nodes = (
"545 142 OFFCURVE",
"512 17 OFFCURVE",
"400 17 CURVE SMOOTH",
"305 17 LINE SMOOTH",
"244 17 OFFCURVE",
"231 50 OFFCURVE",
"231 114 CURVE SMOOTH",
"231 576 LINE SMOOTH",
"231 645 OFFCURVE",
"264 673 OFFCURVE",
"338 673 CURVE SMOOTH",
"364 673 LINE",
"364 690 LINE",
"30 690 LINE",
"30 673 LINE",
"48 673 LINE SMOOTH",
"122 673 OFFCURVE",
"156 645 OFFCURVE",
"156 576 CURVE SMOOTH",
"156 114 LINE SMOOTH",
"156 47 OFFCURVE",
"121 17 OFFCURVE",
"48 17 CURVE SMOOTH",
"31 17 LINE",
"31 0 LINE",
"582 0 LINE",
"601 240 LINE",
"591 240 LINE"
);
}
);
width = 631;
},
{
layerId = "6701A4D5-8A3D-41DD-8AA0-CFF5D98C5FFE";
paths = (
{
closed = 1;
nodes = (
"590 143 OFFCURVE",
"518 17 OFFCURVE",
"445 17 CURVE SMOOTH",
"350 17 LINE SMOOTH",
"289 17 OFFCURVE",
"276 50 OFFCURVE",
"276 114 CURVE SMOOTH",
"276 566 LINE SMOOTH",
"276 635 OFFCURVE",
"309 663 OFFCURVE",
"383 663 CURVE SMOOTH",
"409 663 LINE",
"409 680 LINE",
"30 680 LINE",
"30 663 LINE",
"48 663 LINE SMOOTH",
"122 663 OFFCURVE",
"156 635 OFFCURVE",
"156 566 CURVE SMOOTH",
"156 114 LINE SMOOTH",
"156 47 OFFCURVE",
"121 17 OFFCURVE",
"48 17 CURVE SMOOTH",
"31 17 LINE",
"31 0 LINE",
"627 0 LINE",
"646 240 LINE",
"636 240 LINE"
);
}
);
width = 676;
}
);
note = L;
unicode = 004C;
},
{
glyphname = M;
lastChange = "2017-04-02 13:17:22 +0000";
layers = (
{
layerId = "9ECE4C5B-AE6E-45F8-855F-54F501A6946D";
paths = (
{
closed = 1;
nodes = (
"696 16 OFFCURVE",
"650 34 OFFCURVE",
"650 114 CURVE SMOOTH",
"650 576 LINE SMOOTH",
"650 653 OFFCURVE",
"690 675 OFFCURVE",
"767 675 CURVE",
"767 690 LINE",
"565 690 LINE",
"399 145 LINE",
"237 690 LINE",
"31 690 LINE",
"31 675 LINE",
"99 675 OFFCURVE",
"151 642 OFFCURVE",
"151 552 CURVE SMOOTH",
"151 145 LINE SMOOTH",
"151 66 OFFCURVE",
"115 22 OFFCURVE",
"42 16 CURVE SMOOTH",
"30 15 LINE",
"30 0 LINE",
"270 0 LINE",
"270 16 LINE",
"215 16 OFFCURVE",
"166 63 OFFCURVE",
"166 116 CURVE SMOOTH",
"166 667 LINE",
"167 667 LINE",
"360 0 LINE",
"372 0 LINE",
"573 667 LINE",
"575 667 LINE",
"575 114 LINE SMOOTH",
"575 39 OFFCURVE",
"536 16 OFFCURVE",
"463 16 CURVE",
"463 0 LINE",
"767 0 LINE",
"767 16 LINE"
);
}
);
width = 797;
},
{
layerId = "6701A4D5-8A3D-41DD-8AA0-CFF5D98C5FFE";
paths = (
{
closed = 1;
nodes = (
"769 18 OFFCURVE",
"723 34 OFFCURVE",
"723 114 CURVE SMOOTH",
"723 566 LINE SMOOTH",
"723 643 OFFCURVE",
"763 663 OFFCURVE",
"840 663 CURVE",
"840 680 LINE",
"587 680 LINE",
"438 207 LINE",
"287 680 LINE",
"31 680 LINE",
"32 663 LINE",
"99 663 OFFCURVE",
"151 632 OFFCURVE",
"151 542 CURVE SMOOTH",
"151 145 LINE SMOOTH",
"151 66 OFFCURVE",
"115 24 OFFCURVE",
"42 18 CURVE SMOOTH",
"30 17 LINE",
"30 0 LINE",
"274 0 LINE",
"274 18 LINE",
"219 18 OFFCURVE",
"170 63 OFFCURVE",
"170 116 CURVE SMOOTH",
"170 668 LINE",
"171 668 LINE",
"380 0 LINE",
"392 0 LINE",
"602 669 LINE",
"604 669 LINE",
"604 114 LINE SMOOTH",
"604 39 OFFCURVE",
"565 18 OFFCURVE",
"492 18 CURVE",
"492 0 LINE",
"840 0 LINE",
"840 18 LINE"
);
}
);
width = 870;
}
);
note = M;
unicode = 004D;
},
{
glyphname = N;
lastChange = "2017-04-02 13:21:50 +0000";
layers = (
{
layerId = "9ECE4C5B-AE6E-45F8-855F-54F501A6946D";
paths = (
{
closed = 1;
nodes = (
"447 690 LINE",
"447 675 LINE",
"466 675 LINE SMOOTH",
"527 675 OFFCURVE",
"581 631 OFFCURVE",
"581 511 CURVE SMOOTH",
"581 98 LINE",
"201 690 LINE",
"30 690 LINE",
"30 675 LINE",
"49 675 LINE SMOOTH",
"106 675 OFFCURVE",
"170 601 OFFCURVE",
"170 531 CURVE SMOOTH",
"170 157 LINE SMOOTH",
"170 81 OFFCURVE",
"126 15 OFFCURVE",
"48 15 CURVE SMOOTH",
"31 15 LINE",
"31 0 LINE",
"331 0 LINE",
"331 15 LINE",
"314 15 LINE SMOOTH",
"245 15 OFFCURVE",
"185 70 OFFCURVE",
"185 168 CURVE SMOOTH",
"185 582 LINE",
"566 0 LINE",
"596 0 LINE",
"596 519 LINE",
"596 600 OFFCURVE",
"631 675 OFFCURVE",
"703 675 CURVE SMOOTH",
"718 675 LINE",
"718 690 LINE"
);
}
);
width = 748;
},
{
layerId = "6701A4D5-8A3D-41DD-8AA0-CFF5D98C5FFE";
paths = (
{
closed = 1;
nodes = (
"507 680 LINE",
"507 663 LINE",
"526 663 LINE SMOOTH",
"587 663 OFFCURVE",
"640 621 OFFCURVE",
"641 501 CURVE SMOOTH",
"646 166 LINE",
"247 680 LINE",
"30 680 LINE",
"30 663 LINE",
"49 663 LINE SMOOTH",
"106 663 OFFCURVE",
"167 591 OFFCURVE",
"168 521 CURVE SMOOTH",
"171 157 LINE SMOOTH",
"171 81 OFFCURVE",
"126 17 OFFCURVE",
"48 17 CURVE SMOOTH",
"31 17 LINE",
"31 0 LINE",
"331 0 LINE",
"331 17 LINE",
"314 17 LINE SMOOTH",
"245 17 OFFCURVE",
"189 70 OFFCURVE",
"189 168 CURVE SMOOTH",
"189 563 LINE",
"626 -4 LINE",
"667 -4 LINE",
"661 509 LINE",
"661 591 OFFCURVE",
"697 663 OFFCURVE",
"768 663 CURVE SMOOTH",
"783 663 LINE",
"783 680 LINE"
);
}
);
width = 813;
}
);
note = N;
unicode = 004E;
},
{
glyphname = O;
lastChange = "2017-04-02 13:25:48 +0000";
layers = (
{
layerId = "9ECE4C5B-AE6E-45F8-855F-54F501A6946D";
paths = (
{
closed = 1;
nodes = (
"578 509 OFFCURVE",
"500 702 OFFCURVE",
"307 702 CURVE SMOOTH",
"113 702 OFFCURVE",
"30 509 OFFCURVE",
"30 343 CURVE SMOOTH",
"30 165 OFFCURVE",
"110 -12 OFFCURVE",
"299 -12 CURVE SMOOTH",
"498 -12 OFFCURVE",
"578 165 OFFCURVE",
"578 343 CURVE SMOOTH"
);
},
{
closed = 1;
nodes = (
"498 175 OFFCURVE",
"453 3 OFFCURVE",
"299 3 CURVE SMOOTH",
"162 3 OFFCURVE",
"110 175 OFFCURVE",
"110 302 CURVE SMOOTH",
"110 379 LINE SMOOTH",
"110 492 OFFCURVE",
"170 687 OFFCURVE",
"308 687 CURVE SMOOTH",
"453 687 OFFCURVE",
"498 492 OFFCURVE",
"498 379 CURVE SMOOTH",
"498 302 LINE SMOOTH"
);
}
);
width = 608;
},
{
layerId = "6701A4D5-8A3D-41DD-8AA0-CFF5D98C5FFE";
paths = (
{
closed = 1;
nodes = (
"678 538 OFFCURVE",
"551 688 OFFCURVE",
"358 688 CURVE SMOOTH",
"164 688 OFFCURVE",
"30 543 OFFCURVE",
"30 337 CURVE SMOOTH",
"30 140 OFFCURVE",
"161 -12 OFFCURVE",
"350 -12 CURVE SMOOTH",
"549 -12 OFFCURVE",
"678 138 OFFCURVE",
"678 337 CURVE SMOOTH"
);
},
{
closed = 1;
nodes = (
"549 130 OFFCURVE",
"504 4 OFFCURVE",
"350 4 CURVE SMOOTH",
"213 4 OFFCURVE",
"161 129 OFFCURVE",
"161 296 CURVE SMOOTH",
"161 373 LINE SMOOTH",
"161 566 OFFCURVE",
"221 672 OFFCURVE",
"359 672 CURVE SMOOTH",
"504 672 OFFCURVE",
"549 532 OFFCURVE",
"549 364 CURVE SMOOTH",
"549 309 LINE SMOOTH"
);
}
);
width = 708;
}
);
note = O;
unicode = 004F;
},
{
glyphname = P;
lastChange = "2017-04-02 13:28:13 +0000";
layers = (
{
layerId = "9ECE4C5B-AE6E-45F8-855F-54F501A6946D";
paths = (
{
closed = 1;
nodes = (
"580 607 OFFCURVE",
"512 690 OFFCURVE",
"379 690 CURVE SMOOTH",
"30 690 LINE",
"30 675 LINE",
"50 675 LINE SMOOTH",
"125 675 OFFCURVE",
"159 645 OFFCURVE",
"159 576 CURVE SMOOTH",
"159 115 LINE SMOOTH",
"159 50 OFFCURVE",
"125 21 OFFCURVE",
"50 16 CURVE SMOOTH",
"34 15 LINE",
"34 0 LINE",
"358 0 LINE",
"358 15 LINE",
"341 15 LINE SMOOTH",
"268 15 OFFCURVE",
"234 48 OFFCURVE",
"234 115 CURVE SMOOTH",
"234 317 LINE",
"369 317 LINE SMOOTH",
"499 317 OFFCURVE",
"580 405 OFFCURVE",
"580 505 CURVE SMOOTH"
);
},
{
closed = 1;
nodes = (
"500 396 OFFCURVE",
"419 334 OFFCURVE",
"344 334 CURVE SMOOTH",
"234 334 LINE",
"234 638 LINE SMOOTH",
"234 661 OFFCURVE",
"247 675 OFFCURVE",
"272 675 CURVE SMOOTH",
"349 675 LINE SMOOTH",
"436 675 OFFCURVE",
"500 607 OFFCURVE",
"500 501 CURVE SMOOTH"
);
}
);
width = 610;
},
{
layerId = "6701A4D5-8A3D-41DD-8AA0-CFF5D98C5FFE";
paths = (
{
closed = 1;
nodes = (
"655 611 OFFCURVE",
"556 680 OFFCURVE",
"423 680 CURVE SMOOTH",
"30 680 LINE",
"30 663 LINE",
"50 663 LINE SMOOTH",
"125 663 OFFCURVE",
"159 635 OFFCURVE",
"159 566 CURVE SMOOTH",
"159 115 LINE SMOOTH",
"159 45 OFFCURVE",
"122 24 OFFCURVE",
"50 18 CURVE SMOOTH",
"34 17 LINE",
"34 0 LINE",
"402 0 LINE",
"402 17 LINE",
"385 17 LINE SMOOTH",
"312 17 OFFCURVE",
"278 48 OFFCURVE",
"278 115 CURVE SMOOTH",
"278 317 LINE",
"413 317 LINE SMOOTH",
"543 317 OFFCURVE",
"655 378 OFFCURVE",
"655 495 CURVE SMOOTH"
);
},
{
closed = 1;
nodes = (
"524 372 OFFCURVE",
"463 334 OFFCURVE",
"388 334 CURVE SMOOTH",
"278 334 LINE",
"278 628 LINE SMOOTH",
"278 651 OFFCURVE",
"291 663 OFFCURVE",
"316 663 CURVE SMOOTH",
"393 663 LINE SMOOTH",
"480 663 OFFCURVE",
"524 606 OFFCURVE",
"524 491 CURVE SMOOTH"
);
}
);
width = 685;
}
);
note = P;
unicode = 0050;
},
{
glyphname = Q;
lastChange = "2017-04-02 13:37:41 +0000";
layers = (
{
layerId = "9ECE4C5B-AE6E-45F8-855F-54F501A6946D";
paths = (
{
closed = 1;
nodes = (
"611 -104 OFFCURVE",
"589 -113 OFFCURVE",
"567 -113 CURVE SMOOTH",
"515 -113 OFFCURVE",
"457 -73 OFFCURVE",
"435 16 CURVE",
"528 74 OFFCURVE",
"578 168 OFFCURVE",
"578 345 CURVE SMOOTH",
"578 534 OFFCURVE",
"499 702 OFFCURVE",
"307 702 CURVE SMOOTH",
"112 702 OFFCURVE",
"30 534 OFFCURVE",
"30 345 CURVE SMOOTH",
"30 168 OFFCURVE",
"120 -12 OFFCURVE",
"313 -12 CURVE SMOOTH",
"341 -12 OFFCURVE",
"363 -10 OFFCURVE",
"380 -5 CURVE",
"416 -137 OFFCURVE",
"506 -149 OFFCURVE",
"545 -149 CURVE SMOOTH",
"594 -149 OFFCURVE",
"622 -122 OFFCURVE",
"633 -108 CURVE",
"633 -91 LINE"
);
},
{
closed = 1;
nodes = (
"498 198 OFFCURVE",
"486 80 OFFCURVE",
"429 35 CURVE",
"409 135 OFFCURVE",
"368 191 OFFCURVE",
"279 191 CURVE SMOOTH",
"218 191 OFFCURVE",
"166 156 OFFCURVE",
"164 68 CURVE",
"131 113 OFFCURVE",
"110 198 OFFCURVE",
"110 296 CURVE SMOOTH",
"110 373 LINE SMOOTH",
"110 520 OFFCURVE",
"170 686 OFFCURVE",
"308 686 CURVE SMOOTH",
"452 686 OFFCURVE",
"498 520 OFFCURVE",
"498 373 CURVE SMOOTH",
"498 310 LINE SMOOTH"
);
},
{
closed = 1;
nodes = (
"362 6 OFFCURVE",
"342 3 OFFCURVE",
"322 3 CURVE SMOOTH",
"270 3 OFFCURVE",
"208 20 OFFCURVE",
"179 54 CURVE",
"179 71 LINE SMOOTH",
"179 125 OFFCURVE",
"214 168 OFFCURVE",
"264 168 CURVE SMOOTH",
"331 168 OFFCURVE",
"365 94 OFFCURVE",
"377 11 CURVE"
);
}
);
width = 663;
},
{
layerId = "6701A4D5-8A3D-41DD-8AA0-CFF5D98C5FFE";
paths = (
{
closed = 1;
nodes = (
"683 -99 OFFCURVE",
"661 -106 OFFCURVE",
"639 -106 CURVE SMOOTH",
"587 -106 OFFCURVE",
"538 -60 OFFCURVE",
"516 29 CURVE",
"625 92 OFFCURVE",
"679 207 OFFCURVE",
"679 337 CURVE SMOOTH",
"679 538 OFFCURVE",
"551 688 OFFCURVE",
"359 688 CURVE SMOOTH",
"164 688 OFFCURVE",
"30 542 OFFCURVE",
"30 345 CURVE SMOOTH",
"30 143 OFFCURVE",
"157 -12 OFFCURVE",
"350 -12 CURVE SMOOTH",
"378 -12 OFFCURVE",
"398 -9 OFFCURVE",
"410 -7 CURVE",
"422 -97 OFFCURVE",
"487 -156 OFFCURVE",
"574 -156 CURVE SMOOTH",
"620 -156 OFFCURVE",
"663 -139 OFFCURVE",
"702 -105 CURVE",
"702 -86 LINE"
);
},
{
closed = 1;
nodes = (
"550 205 OFFCURVE",
"533 122 OFFCURVE",
"502 77 CURVE",
"483 145 OFFCURVE",
"429 202 OFFCURVE",
"354 202 CURVE SMOOTH",
"279 202 OFFCURVE",
"219 157 OFFCURVE",
"213 75 CURVE",
"180 120 OFFCURVE",
"162 198 OFFCURVE",
"162 296 CURVE SMOOTH",
"162 373 LINE SMOOTH",
"162 566 OFFCURVE",
"222 672 OFFCURVE",
"360 672 CURVE SMOOTH",
"504 672 OFFCURVE",
"550 539 OFFCURVE",
"550 364 CURVE SMOOTH",
"550 310 LINE SMOOTH"
);
},
{
closed = 1;
nodes = (
"392 6 OFFCURVE",
"374 3 OFFCURVE",
"356 3 CURVE SMOOTH",
"310 3 OFFCURVE",
"260 20 OFFCURVE",
"231 54 CURVE",
"231 71 LINE SMOOTH",
"231 125 OFFCURVE",
"266 165 OFFCURVE",
"316 165 CURVE SMOOTH",
"383 165 OFFCURVE",
"402 94 OFFCURVE",
"407 11 CURVE"
);
}
);
width = 732;
}
);
note = Q;
unicode = 0051;
},
{
glyphname = R;
lastChange = "2017-04-02 13:44:28 +0000";
layers = (
{
layerId = "9ECE4C5B-AE6E-45F8-855F-54F501A6946D";
paths = (
{
closed = 1;
nodes = (
"637 46 OFFCURVE",
"615 19 OFFCURVE",
"595 19 CURVE SMOOTH",
"555 19 OFFCURVE",
"551 68 OFFCURVE",
"542 178 CURVE SMOOTH",
"534 278 OFFCURVE",
"477 321 OFFCURVE",
"384 339 CURVE",
"491 358 OFFCURVE",
"575 420 OFFCURVE",
"575 520 CURVE SMOOTH",
"575 597 OFFCURVE",
"532 690 OFFCURVE",
"405 690 CURVE SMOOTH",
"30 690 LINE",
"30 675 LINE",
"46 675 LINE SMOOTH",
"121 675 OFFCURVE",
"154 645 OFFCURVE",
"154 576 CURVE SMOOTH",
"154 114 LINE SMOOTH",
"154 47 OFFCURVE",
"121 15 OFFCURVE",
"46 15 CURVE SMOOTH",
"30 15 LINE",
"30 0 LINE",
"362 0 LINE",
"362 15 LINE",
"336 15 LINE SMOOTH",
"263 15 OFFCURVE",
"229 47 OFFCURVE",
"229 114 CURVE SMOOTH",
"229 332 LINE",
"334 332 LINE SMOOTH",
"420 332 OFFCURVE",
"462 268 OFFCURVE",
"462 163 CURVE SMOOTH",
"462 28 OFFCURVE",
"515 -12 OFFCURVE",
"575 -12 CURVE SMOOTH",
"624 -12 OFFCURVE",
"648 26 OFFCURVE",
"655 83 CURVE",
"640 83 LINE"
);
},
{
closed = 1;
nodes = (
"495 413 OFFCURVE",
"416 347 OFFCURVE",
"320 347 CURVE SMOOTH",
"229 347 LINE",
"229 633 LINE SMOOTH",
"229 663 OFFCURVE",
"239 675 OFFCURVE",
"265 675 CURVE SMOOTH",
"360 675 LINE SMOOTH",
"440 675 OFFCURVE",
"495 624 OFFCURVE",
"495 519 CURVE SMOOTH"
);
}
);
width = 685;
},
{
layerId = "6701A4D5-8A3D-41DD-8AA0-CFF5D98C5FFE";
paths = (
{
closed = 1;
nodes = (
"754 51 OFFCURVE",
"726 19 OFFCURVE",
"696 19 CURVE SMOOTH",
"656 19 OFFCURVE",
"649 49 OFFCURVE",
"643 120 CURVE SMOOTH",
"631 259 OFFCURVE",
"597 313 OFFCURVE",
"454 339 CURVE",
"611 365 OFFCURVE",
"675 420 OFFCURVE",
"675 510 CURVE SMOOTH",
"675 619 OFFCURVE",
"578 680 OFFCURVE",
"451 680 CURVE SMOOTH",
"30 680 LINE",
"30 663 LINE",
"46 663 LINE SMOOTH",
"121 663 OFFCURVE",
"154 635 OFFCURVE",
"154 566 CURVE SMOOTH",
"154 114 LINE SMOOTH",
"154 47 OFFCURVE",
"121 17 OFFCURVE",
"46 17 CURVE SMOOTH",
"30 17 LINE",
"30 0 LINE",
"408 0 LINE",
"408 17 LINE",
"382 17 LINE SMOOTH",
"309 17 OFFCURVE",
"275 47 OFFCURVE",
"275 114 CURVE SMOOTH",
"275 331 LINE",
"404 331 LINE SMOOTH",
"490 331 OFFCURVE",
"499 268 OFFCURVE",
"502 171 CURVE SMOOTH",
"504 59 OFFCURVE",
"551 -9 OFFCURVE",
"657 -9 CURVE SMOOTH",
"716 -9 OFFCURVE",
"769 26 OFFCURVE",
"776 83 CURVE",
"760 83 LINE"
);
},
{
closed = 1;
nodes = (
"545 403 OFFCURVE",
"486 348 OFFCURVE",
"390 348 CURVE SMOOTH",
"275 348 LINE",
"275 623 LINE SMOOTH",
"275 653 OFFCURVE",
"285 663 OFFCURVE",
"311 663 CURVE SMOOTH",
"406 663 LINE SMOOTH",
"486 663 OFFCURVE",
"545 614 OFFCURVE",
"545 509 CURVE SMOOTH"
);
}
);
width = 806;
}
);
note = R;
unicode = 0052;
},
{
glyphname = S;
lastChange = "2017-04-02 13:49:46 +0000";
layers = (
{
layerId = "9ECE4C5B-AE6E-45F8-855F-54F501A6946D";
paths = (
{
closed = 1;
nodes = (
"447 446 OFFCURVE",
"73 336 OFFCURVE",
"73 567 CURVE SMOOTH",
"73 654 OFFCURVE",
"139 687 OFFCURVE",
"198 687 CURVE SMOOTH",
"297 687 OFFCURVE",
"335 609 OFFCURVE",
"394 509 CURVE",
"403 509 LINE",
"393 700 LINE",
"383 700 LINE",
"371 677 OFFCURVE",
"347 662 OFFCURVE",
"324 662 CURVE SMOOTH",
"299 662 OFFCURVE",
"259 702 OFFCURVE",
"196 702 CURVE SMOOTH",
"95 702 OFFCURVE",
"37 631 OFFCURVE",
"37 528 CURVE SMOOTH",
"37 264 OFFCURVE",
"394 380 OFFCURVE",
"394 142 CURVE SMOOTH",
"394 59 OFFCURVE",
"333 4 OFFCURVE",
"256 4 CURVE SMOOTH",
"159 4 OFFCURVE",
"93 84 OFFCURVE",
"42 215 CURVE",
"30 215 LINE",
"30 -12 LINE",
"38 -12 LINE",
"67 11 OFFCURVE",
"82 27 OFFCURVE",
"119 27 CURVE SMOOTH",
"167 27 OFFCURVE",
"192 -11 OFFCURVE",
"258 -11 CURVE SMOOTH",
"383 -11 OFFCURVE",
"447 94 OFFCURVE",
"447 175 CURVE SMOOTH"
);
}
);
width = 477;
},
{
layerId = "6701A4D5-8A3D-41DD-8AA0-CFF5D98C5FFE";
paths = (
{
closed = 1;
nodes = (
"491 452 OFFCURVE",
"95 342 OFFCURVE",
"95 563 CURVE SMOOTH",
"95 640 OFFCURVE",
"151 672 OFFCURVE",
"210 672 CURVE SMOOTH",
"311 672 OFFCURVE",
"382 591 OFFCURVE",
"438 495 CURVE",
"447 495 LINE",
"437 686 LINE",
"427 686 LINE",
"415 663 OFFCURVE",
"391 648 OFFCURVE",
"368 648 CURVE SMOOTH",
"343 648 OFFCURVE",
"271 688 OFFCURVE",
"208 688 CURVE SMOOTH",
"107 688 OFFCURVE",
"37 607 OFFCURVE",
"37 505 CURVE SMOOTH",
"37 254 OFFCURVE",
"416 360 OFFCURVE",
"416 130 CURVE SMOOTH",
"416 59 OFFCURVE",
"365 6 OFFCURVE",
"288 6 CURVE SMOOTH",
"191 6 OFFCURVE",
"93 84 OFFCURVE",
"42 215 CURVE",
"30 215 LINE",
"30 -12 LINE",
"38 -12 LINE",
"67 11 OFFCURVE",
"82 27 OFFCURVE",
"119 27 CURVE SMOOTH",
"167 27 OFFCURVE",
"224 -11 OFFCURVE",
"290 -11 CURVE SMOOTH",
"415 -11 OFFCURVE",
"491 70 OFFCURVE",
"491 196 CURVE SMOOTH"
);
}
);
width = 521;
}
);
note = S;
unicode = 0053;
},
{
glyphname = T;
lastChange = "2017-04-02 13:52:34 +0000";
layers = (
{
layerId = "9ECE4C5B-AE6E-45F8-855F-54F501A6946D";
paths = (
{
closed = 1;
nodes = (
"37 690 LINE",
"30 450 LINE",
"42 450 LINE",
"88 584 OFFCURVE",
"128 675 OFFCURVE",
"208 675 CURVE SMOOTH",
"279 675 LINE",
"279 111 LINE SMOOTH",
"279 43 OFFCURVE",
"245 15 OFFCURVE",
"170 15 CURVE SMOOTH",
"139 15 LINE",
"139 0 LINE",
"494 0 LINE",
"494 15 LINE",
"461 15 LINE SMOOTH",
"388 15 OFFCURVE",
"354 44 OFFCURVE",
"354 111 CURVE SMOOTH",
"354 675 LINE",
"422 675 LINE SMOOTH",
"504 675 OFFCURVE",
"542 584 OFFCURVE",
"593 450 CURVE",
"604 450 LINE",
"596 690 LINE"
);
}
);
width = 634;
},
{
layerId = "6701A4D5-8A3D-41DD-8AA0-CFF5D98C5FFE";
paths = (
{
closed = 1;
nodes = (
"37 680 LINE",
"30 440 LINE",
"42 440 LINE",
"113 574 OFFCURVE",
"149 663 OFFCURVE",
"208 663 CURVE SMOOTH",
"279 663 LINE",
"279 114 LINE SMOOTH",
"279 46 OFFCURVE",
"245 18 OFFCURVE",
"170 18 CURVE SMOOTH",
"138 18 LINE",
"138 0 LINE",
"538 0 LINE",
"538 18 LINE",
"505 18 LINE SMOOTH",
"432 18 OFFCURVE",
"398 47 OFFCURVE",
"398 114 CURVE SMOOTH",
"398 663 LINE",
"466 663 LINE SMOOTH",
"530 663 OFFCURVE",
"561 588 OFFCURVE",
"637 440 CURVE",
"648 440 LINE",
"640 680 LINE"
);
}
);
width = 678;
}
);
note = T;
unicode = 0054;
},
{
glyphname = U;
lastChange = "2017-04-02 13:54:29 +0000";
layers = (
{
layerId = "9ECE4C5B-AE6E-45F8-855F-54F501A6946D";
paths = (
{
closed = 1;
nodes = (
"462 690 LINE",
"462 675 LINE",
"476 675 LINE SMOOTH",
"547 675 OFFCURVE",
"599 627 OFFCURVE",
"599 527 CURVE SMOOTH",
"599 205 LINE SMOOTH",
"599 81 OFFCURVE",
"521 4 OFFCURVE",
"389 4 CURVE SMOOTH",
"285 4 OFFCURVE",
"222 71 OFFCURVE",
"222 168 CURVE SMOOTH",
"222 576 LINE SMOOTH",
"222 652 OFFCURVE",
"263 675 OFFCURVE",
"339 675 CURVE",
"339 690 LINE",
"30 690 LINE",
"30 675 LINE",
"107 675 OFFCURVE",
"147 655 OFFCURVE",
"147 576 CURVE SMOOTH",
"147 207 LINE SMOOTH",
"147 81 OFFCURVE",
"214 -11 OFFCURVE",
"365 -11 CURVE SMOOTH",
"522 -11 OFFCURVE",
"614 59 OFFCURVE",
"614 208 CURVE SMOOTH",
"614 539 LINE SMOOTH",
"614 606 OFFCURVE",
"651 675 OFFCURVE",
"721 675 CURVE SMOOTH",
"738 675 LINE",
"738 690 LINE"
);
}
);
width = 768;
},
{
layerId = "6701A4D5-8A3D-41DD-8AA0-CFF5D98C5FFE";
paths = (
{
closed = 1;
nodes = (
"507 680 LINE",
"507 663 LINE",
"521 663 LINE SMOOTH",
"592 663 OFFCURVE",
"644 617 OFFCURVE",
"644 517 CURVE SMOOTH",
"644 205 LINE SMOOTH",
"644 81 OFFCURVE",
"566 6 OFFCURVE",
"434 6 CURVE SMOOTH",
"330 6 OFFCURVE",
"267 67 OFFCURVE",
"267 168 CURVE SMOOTH",
"267 566 LINE SMOOTH",
"267 642 OFFCURVE",
"308 663 OFFCURVE",
"384 663 CURVE",
"384 680 LINE",
"30 680 LINE",
"30 663 LINE",
"107 663 OFFCURVE",
"147 645 OFFCURVE",
"147 566 CURVE SMOOTH",
"147 207 LINE SMOOTH",
"147 58 OFFCURVE",
"259 -11 OFFCURVE",
"410 -11 CURVE SMOOTH",
"567 -11 OFFCURVE",
"661 59 OFFCURVE",
"661 208 CURVE SMOOTH",
"661 529 LINE SMOOTH",
"661 596 OFFCURVE",
"698 663 OFFCURVE",
"768 663 CURVE SMOOTH",
"785 663 LINE",
"785 680 LINE"
);
}
);
width = 815;
}
);
note = U;
unicode = 0055;
},
{
glyphname = V;
lastChange = "2017-04-02 13:57:31 +0000";
layers = (
{
layerId = "9ECE4C5B-AE6E-45F8-855F-54F501A6946D";
paths = (
{
closed = 1;
nodes = (
"421 690 LINE",
"421 675 LINE",
"480 675 OFFCURVE",
"530 661 OFFCURVE",
"530 584 CURVE SMOOTH",
"530 561 OFFCURVE",
"526 532 OFFCURVE",
"513 498 CURVE SMOOTH",
"370 119 LINE",
"224 589 LINE SMOOTH",
"218 608 OFFCURVE",
"215 623 OFFCURVE",
"215 634 CURVE SMOOTH",
"215 660 OFFCURVE",
"234 675 OFFCURVE",
"274 675 CURVE SMOOTH",
"311 675 LINE",
"311 690 LINE",
"30 690 LINE",
"30 675 LINE",
"47 675 LINE SMOOTH",
"111 675 OFFCURVE",
"120 668 OFFCURVE",
"142 598 CURVE SMOOTH",
"328 0 LINE",
"339 0 LINE",
"536 516 LINE SMOOTH",
"571 608 OFFCURVE",
"607 675 OFFCURVE",
"682 675 CURVE",
"682 690 LINE"
);
}
);
width = 712;
},
{
layerId = "6701A4D5-8A3D-41DD-8AA0-CFF5D98C5FFE";
paths = (
{
closed = 1;
nodes = (
"470 680 LINE",
"470 663 LINE",
"529 663 OFFCURVE",
"579 651 OFFCURVE",
"579 574 CURVE SMOOTH",
"579 551 OFFCURVE",
"573 522 OFFCURVE",
"560 488 CURVE SMOOTH",
"430 151 LINE",
"274 579 LINE SMOOTH",
"268 598 OFFCURVE",
"265 613 OFFCURVE",
"265 624 CURVE SMOOTH",
"265 650 OFFCURVE",
"284 663 OFFCURVE",
"324 663 CURVE SMOOTH",
"361 663 LINE",
"361 680 LINE",
"30 680 LINE",
"30 663 LINE",
"47 663 LINE SMOOTH",
"111 663 OFFCURVE",
"117 658 OFFCURVE",
"142 588 CURVE SMOOTH",
"359 -12 LINE",
"388 -12 LINE",
"585 506 LINE SMOOTH",
"621 597 OFFCURVE",
"656 663 OFFCURVE",
"731 663 CURVE",
"731 680 LINE"
);
}
);
width = 761;
}
);
note = V;
unicode = 0056;
},
{
glyphname = W;
lastChange = "2017-04-02 14:03:25 +0000";
layers = (
{
layerId = "9ECE4C5B-AE6E-45F8-855F-54F501A6946D";
paths = (
{
closed = 1;
nodes = (
"710 690 LINE",
"710 673 LINE",
"732 673 LINE SMOOTH",
"771 673 OFFCURVE",
"806 645 OFFCURVE",
"806 591 CURVE SMOOTH",
"806 573 OFFCURVE",
"801 546 OFFCURVE",
"790 510 CURVE SMOOTH",
"681 138 LINE",
"557 615 LINE",
"554 626 OFFCURVE",
"552 634 OFFCURVE",
"552 638 CURVE SMOOTH",
"552 661 OFFCURVE",
"568 673 OFFCURVE",
"600 673 CURVE SMOOTH",
"632 673 LINE",
"632 690 LINE",
"371 690 LINE",
"371 673 LINE",
"402 673 LINE SMOOTH",
"439 673 OFFCURVE",
"467 654 OFFCURVE",
"482 587 CURVE",
"341 138 LINE",
"213 586 LINE SMOOTH",
"207 607 OFFCURVE",
"203 624 OFFCURVE",
"203 636 CURVE SMOOTH",
"203 661 OFFCURVE",
"216 673 OFFCURVE",
"252 673 CURVE SMOOTH",
"291 673 LINE",
"291 690 LINE",
"30 690 LINE",
"30 673 LINE",
"49 673 LINE SMOOTH",
"92 673 OFFCURVE",
"113 660 OFFCURVE",
"132 593 CURVE SMOOTH",
"299 0 LINE",
"310 0 LINE",
"491 563 LINE",
"644 0 LINE",
"655 0 LINE",
"813 532 LINE SMOOTH",
"837 614 OFFCURVE",
"867 673 OFFCURVE",
"939 673 CURVE",
"939 690 LINE"
);
}
);
width = 969;
},
{
layerId = "6701A4D5-8A3D-41DD-8AA0-CFF5D98C5FFE";
paths = (
{
closed = 1;
nodes = (
"797 680 LINE",
"797 663 LINE",
"819 663 LINE SMOOTH",
"858 663 OFFCURVE",
"893 635 OFFCURVE",
"893 581 CURVE SMOOTH",
"893 563 OFFCURVE",
"888 536 OFFCURVE",
"877 500 CURVE SMOOTH",
"774 174 LINE",
"644 605 LINE",
"641 616 OFFCURVE",
"639 624 OFFCURVE",
"639 628 CURVE SMOOTH",
"639 651 OFFCURVE",
"655 663 OFFCURVE",
"687 663 CURVE SMOOTH",
"719 663 LINE",
"719 680 LINE",
"415 680 LINE",
"415 663 LINE",
"446 663 LINE SMOOTH",
"483 663 OFFCURVE",
"510 648 OFFCURVE",
"525 581 CURVE",
"383 166 LINE",
"257 576 LINE SMOOTH",
"251 597 OFFCURVE",
"247 614 OFFCURVE",
"247 626 CURVE SMOOTH",
"247 651 OFFCURVE",
"260 663 OFFCURVE",
"296 663 CURVE SMOOTH",
"335 663 LINE",
"335 680 LINE",
"30 680 LINE",
"30 663 LINE",
"49 663 LINE SMOOTH",
"92 663 OFFCURVE",
"112 650 OFFCURVE",
"132 583 CURVE SMOOTH",
"313 -12 LINE",
"342 -12 LINE",
"535 553 LINE",
"707 -12 LINE",
"735 -12 LINE",
"903 522 LINE SMOOTH",
"930 603 OFFCURVE",
"957 663 OFFCURVE",
"1029 663 CURVE",
"1029 680 LINE"
);
}
);
width = 1059;
}
);
note = W;
unicode = 0057;
},
{
glyphname = X;
lastChange = "2017-04-02 14:14:01 +0000";
layers = (
{
layerId = "9ECE4C5B-AE6E-45F8-855F-54F501A6946D";
paths = (
{
closed = 1;
nodes = (
"817 14 LINE SMOOTH",
"757 14 OFFCURVE",
"738 32 OFFCURVE",
"686 93 CURVE SMOOTH",
"450 366 LINE",
"586 550 OFFCURVE",
"673 675 OFFCURVE",
"771 675 CURVE",
"770 690 LINE",
"483 690 LINE",
"483 675 LINE",
"543 675 OFFCURVE",
"583 653 OFFCURVE",
"583 617 CURVE SMOOTH",
"583 579 OFFCURVE",
"573 552 OFFCURVE",
"536 504 CURVE SMOOTH",
"440 379 LINE",
"267 604 LINE SMOOTH",
"250 626 OFFCURVE",
"241 642 OFFCURVE",
"241 652 CURVE SMOOTH",
"241 672 OFFCURVE",
"259 675 OFFCURVE",
"290 675 CURVE SMOOTH",
"331 675 LINE",
"331 690 LINE",
"30 690 LINE",
"30 675 LINE",
"50 675 LINE SMOOTH",
"125 675 OFFCURVE",
"147 631 OFFCURVE",
"391 321 CURVE",
"193 79 OFFCURVE",
"150 15 OFFCURVE",
"40 15 CURVE",
"39 0 LINE",
"392 0 LINE",
"392 14 LINE",
"373 14 LINE SMOOTH",
"307 14 OFFCURVE",
"273 62 OFFCURVE",
"273 111 CURVE SMOOTH",
"273 125 OFFCURVE",
"277 141 OFFCURVE",
"285 158 CURVE SMOOTH",
"301 191 OFFCURVE",
"332 227 OFFCURVE",
"401 308 CURVE",
"500 198 OFFCURVE",
"579 99 OFFCURVE",
"599 77 CURVE SMOOTH",
"638 35 OFFCURVE",
"591 14 OFFCURVE",
"551 14 CURVE SMOOTH",
"533 14 LINE",
"533 0 LINE",
"831 0 LINE",
"831 14 LINE"
);
}
);
width = 861;
},
{
layerId = "6701A4D5-8A3D-41DD-8AA0-CFF5D98C5FFE";
paths = (
{
closed = 1;
nodes = (
"828 17 LINE SMOOTH",
"768 17 OFFCURVE",
"752 36 OFFCURVE",
"707 93 CURVE SMOOTH",
"473 392 LINE",
"602 556 OFFCURVE",
"677 663 OFFCURVE",
"792 663 CURVE",
"791 680 LINE",
"498 680 LINE",
"498 663 LINE",
"558 663 OFFCURVE",
"588 641 OFFCURVE",
"588 605 CURVE SMOOTH",
"588 580 OFFCURVE",
"574 548 OFFCURVE",
"545 512 CURVE SMOOTH",
"461 407 LINE",
"316 592 LINE SMOOTH",
"298 613 OFFCURVE",
"290 630 OFFCURVE",
"290 640 CURVE SMOOTH",
"290 660 OFFCURVE",
"308 663 OFFCURVE",
"339 663 CURVE SMOOTH",
"380 663 LINE",
"380 680 LINE",
"31 680 LINE",
"31 663 LINE",
"51 663 LINE SMOOTH",
"126 663 OFFCURVE",
"125 642 OFFCURVE",
"385 312 CURVE",
"228 119 OFFCURVE",
"157 18 OFFCURVE",
"31 18 CURVE",
"30 0 LINE",
"383 0 LINE",
"383 17 LINE",
"364 17 LINE SMOOTH",
"300 17 OFFCURVE",
"263 44 OFFCURVE",
"263 88 CURVE SMOOTH",
"263 103 OFFCURVE",
"267 120 OFFCURVE",
"276 138 CURVE SMOOTH",
"292 171 OFFCURVE",
"327 215 OFFCURVE",
"396 296 CURVE",
"533 123 OFFCURVE",
"546 101 OFFCURVE",
"563 75 CURVE SMOOTH",
"594 27 OFFCURVE",
"549 17 OFFCURVE",
"509 17 CURVE SMOOTH",
"491 17 LINE",
"491 0 LINE",
"842 0 LINE",
"842 17 LINE"
);
}
);
width = 872;
}
);
note = X;
unicode = 0058;
},
{
glyphname = Y;
lastChange = "2017-04-02 14:18:04 +0000";
layers = (
{
layerId = "9ECE4C5B-AE6E-45F8-855F-54F501A6946D";
paths = (
{
closed = 1;
nodes = (
"455 690 LINE",
"455 675 LINE",
"477 675 LINE SMOOTH",
"529 675 OFFCURVE",
"565 644 OFFCURVE",
"565 597 CURVE SMOOTH",
"565 567 OFFCURVE",
"547 536 OFFCURVE",
"519 485 CURVE SMOOTH",
"411 288 LINE",
"237 610 OFFCURVE",
"236 604 OFFCURVE",
"236 631 CURVE SMOOTH",
"236 669 OFFCURVE",
"265 675 OFFCURVE",
"320 675 CURVE SMOOTH",
"349 675 LINE",
"349 690 LINE",
"30 690 LINE",
"30 675 LINE",
"57 675 LINE SMOOTH",
"136 675 OFFCURVE",
"158 603 OFFCURVE",
"344 251 CURVE",
"344 114 LINE SMOOTH",
"344 34 OFFCURVE",
"299 15 OFFCURVE",
"228 15 CURVE",
"228 0 LINE",
"538 0 LINE",
"538 15 LINE",
"526 15 LINE SMOOTH",
"453 15 OFFCURVE",
"419 34 OFFCURVE",
"419 114 CURVE SMOOTH",
"419 270 LINE",
"560 526 LINE SMOOTH",
"610 616 OFFCURVE",
"658 675 OFFCURVE",
"731 675 CURVE",
"731 690 LINE"
);
}
);
width = 761;
},
{
layerId = "6701A4D5-8A3D-41DD-8AA0-CFF5D98C5FFE";
paths = (
{
closed = 1;
nodes = (
"506 680 LINE",
"506 663 LINE",
"528 663 LINE SMOOTH",
"580 663 OFFCURVE",
"616 633 OFFCURVE",
"616 585 CURVE SMOOTH",
"616 555 OFFCURVE",
"599 523 OFFCURVE",
"568 473 CURVE SMOOTH",
"457 296 LINE",
"282 609 OFFCURVE",
"287 589 OFFCURVE",
"287 619 CURVE SMOOTH",
"287 657 OFFCURVE",
"316 663 OFFCURVE",
"371 663 CURVE SMOOTH",
"400 663 LINE",
"400 680 LINE",
"30 680 LINE",
"30 663 LINE",
"57 663 LINE SMOOTH",
"135 663 OFFCURVE",
"117 656 OFFCURVE",
"344 251 CURVE",
"344 114 LINE SMOOTH",
"344 34 OFFCURVE",
"299 18 OFFCURVE",
"228 18 CURVE",
"228 0 LINE",
"583 0 LINE",
"583 18 LINE",
"571 18 LINE SMOOTH",
"498 18 OFFCURVE",
"464 47 OFFCURVE",
"464 114 CURVE SMOOTH",
"464 270 LINE",
"616 514 LINE SMOOTH",
"669 602 OFFCURVE",
"715 663 OFFCURVE",
"787 663 CURVE",
"787 680 LINE"
);
}
);
width = 817;
}
);
note = Y;
unicode = 0059;
},
{
glyphname = Z;
lastChange = "2017-04-02 14:19:46 +0000";
layers = (
{
layerId = "9ECE4C5B-AE6E-45F8-855F-54F501A6946D";
paths = (
{
closed = 1;
nodes = (
"62 453 LINE",
"76 453 LINE",
"124 561 OFFCURVE",
"161 675 OFFCURVE",
"271 675 CURVE SMOOTH",
"440 675 LINE",
"30 0 LINE",
"517 0 LINE",
"528 251 LINE",
"516 251 LINE",
"439 80 OFFCURVE",
"395 15 OFFCURVE",
"293 15 CURVE SMOOTH",
"130 15 LINE",
"537 690 LINE",
"71 690 LINE"
);
}
);
width = 567;
},
{
layerId = "6701A4D5-8A3D-41DD-8AA0-CFF5D98C5FFE";
paths = (
{
closed = 1;
nodes = (
"67 443 LINE",
"81 443 LINE",
"129 551 OFFCURVE",
"191 663 OFFCURVE",
"276 663 CURVE SMOOTH",
"445 663 LINE",
"35 0 LINE",
"575 0 LINE",
"586 253 LINE",
"574 253 LINE",
"497 82 OFFCURVE",
"435 17 OFFCURVE",
"351 17 CURVE SMOOTH",
"188 17 LINE",
"595 680 LINE",
"76 680 LINE"
);
}
);
width = 600;
}
);
note = Z;
unicode = 005A;
},
{
glyphname = a;
lastChange = "2017-04-01 19:30:59 +0000";
layers = (
{
layerId = "9ECE4C5B-AE6E-45F8-855F-54F501A6946D";
paths = (
{
closed = 1;
nodes = (
"482 132 LINE",
"482 107 LINE SMOOTH",
"482 79 OFFCURVE",
"478 59 OFFCURVE",
"470 45 CURVE SMOOTH",
"461 32 OFFCURVE",
"452 25 OFFCURVE",
"442 25 CURVE SMOOTH",
"415 25 OFFCURVE",
"407 50 OFFCURVE",
"407 90 CURVE SMOOTH",
"407 301 LINE SMOOTH",
"407 397 OFFCURVE",
"334 432 OFFCURVE",
"254 432 CURVE SMOOTH",
"213 432 OFFCURVE",
"178 426 OFFCURVE",
"151 414 CURVE SMOOTH",
"95 390 OFFCURVE",
"72 351 OFFCURVE",
"72 318 CURVE SMOOTH",
"72 283 OFFCURVE",
"99 259 OFFCURVE",
"127 259 CURVE SMOOTH",
"158 259 OFFCURVE",
"178 283 OFFCURVE",
"178 309 CURVE SMOOTH",
"178 323 OFFCURVE",
"172 332 OFFCURVE",
"161 343 CURVE SMOOTH",
"150 355 OFFCURVE",
"146 360 OFFCURVE",
"146 371 CURVE SMOOTH",
"146 397 OFFCURVE",
"179 415 OFFCURVE",
"234 415 CURVE SMOOTH",
"306 415 OFFCURVE",
"329 383 OFFCURVE",
"329 312 CURVE SMOOTH",
"329 251 LINE",
"309 243 OFFCURVE",
"287 236 OFFCURVE",
"263 230 CURVE SMOOTH",
"214 216 OFFCURVE",
"158 203 OFFCURVE",
"125 187 CURVE SMOOTH",
"91 171 OFFCURVE",
"46 136 OFFCURVE",
"46 87 CURVE SMOOTH",
"46 37 OFFCURVE",
"96 -8 OFFCURVE",
"167 -8 CURVE SMOOTH",
"247 -8 OFFCURVE",
"294 21 OFFCURVE",
"331 74 CURVE",
"334 22 OFFCURVE",
"365 -6 OFFCURVE",
"408 -6 CURVE SMOOTH",
"452 -6 OFFCURVE",
"500 18 OFFCURVE",
"500 107 CURVE SMOOTH",
"500 132 LINE"
);
},
{
closed = 1;
nodes = (
"329 111 OFFCURVE",
"322 91 OFFCURVE",
"309 74 CURVE SMOOTH",
"282 38 OFFCURVE",
"239 17 OFFCURVE",
"206 17 CURVE SMOOTH",
"163 17 OFFCURVE",
"141 49 OFFCURVE",
"141 93 CURVE SMOOTH",
"141 123 OFFCURVE",
"152 155 OFFCURVE",
"168 170 CURVE SMOOTH",
"191 193 OFFCURVE",
"210 198 OFFCURVE",
"265 213 CURVE SMOOTH",
"293 220 OFFCURVE",
"314 227 OFFCURVE",
"329 233 CURVE",
"329 133 LINE SMOOTH"
);
}
);
width = 514;
},
{
layerId = "6701A4D5-8A3D-41DD-8AA0-CFF5D98C5FFE";
paths = (
{
closed = 1;
nodes = (
"482 132 LINE",
"482 107 LINE SMOOTH",
"482 79 OFFCURVE",
"478 59 OFFCURVE",
"470 45 CURVE SMOOTH",
"461 32 OFFCURVE",
"452 25 OFFCURVE",
"442 25 CURVE SMOOTH",
"415 25 OFFCURVE",
"407 50 OFFCURVE",
"407 90 CURVE SMOOTH",
"407 301 LINE SMOOTH",
"407 397 OFFCURVE",
"334 432 OFFCURVE",
"254 432 CURVE SMOOTH",
"213 432 OFFCURVE",
"178 426 OFFCURVE",
"151 414 CURVE SMOOTH",
"95 390 OFFCURVE",
"72 351 OFFCURVE",
"72 318 CURVE SMOOTH",
"72 283 OFFCURVE",
"99 259 OFFCURVE",
"127 259 CURVE SMOOTH",
"158 259 OFFCURVE",
"178 283 OFFCURVE",
"178 309 CURVE SMOOTH",
"178 323 OFFCURVE",
"172 332 OFFCURVE",
"161 343 CURVE SMOOTH",
"150 355 OFFCURVE",
"146 360 OFFCURVE",
"146 371 CURVE SMOOTH",
"146 397 OFFCURVE",
"179 415 OFFCURVE",
"234 415 CURVE SMOOTH",
"306 415 OFFCURVE",
"329 383 OFFCURVE",
"329 312 CURVE SMOOTH",
"329 251 LINE",
"309 243 OFFCURVE",
"287 236 OFFCURVE",
"263 230 CURVE SMOOTH",
"214 216 OFFCURVE",
"158 203 OFFCURVE",
"125 187 CURVE SMOOTH",
"91 171 OFFCURVE",
"46 136 OFFCURVE",
"46 87 CURVE SMOOTH",
"46 37 OFFCURVE",
"96 -8 OFFCURVE",
"167 -8 CURVE SMOOTH",
"247 -8 OFFCURVE",
"294 21 OFFCURVE",
"331 74 CURVE",
"334 22 OFFCURVE",
"365 -6 OFFCURVE",
"408 -6 CURVE SMOOTH",
"452 -6 OFFCURVE",
"500 18 OFFCURVE",
"500 107 CURVE SMOOTH",
"500 132 LINE"
);
},
{
closed = 1;
nodes = (
"329 111 OFFCURVE",
"322 91 OFFCURVE",
"309 74 CURVE SMOOTH",
"282 38 OFFCURVE",
"239 17 OFFCURVE",
"206 17 CURVE SMOOTH",
"163 17 OFFCURVE",
"141 49 OFFCURVE",
"141 93 CURVE SMOOTH",
"141 123 OFFCURVE",
"152 155 OFFCURVE",
"168 170 CURVE SMOOTH",
"191 193 OFFCURVE",
"210 198 OFFCURVE",
"265 213 CURVE SMOOTH",
"293 220 OFFCURVE",
"314 227 OFFCURVE",
"329 233 CURVE",
"329 133 LINE SMOOTH"
);
}
);
width = 600;
}
);
note = a;
unicode = 0061;
},
{
glyphname = b;
lastChange = "2017-04-01 19:32:15 +0000";
layers = (
{
layerId = "9ECE4C5B-AE6E-45F8-855F-54F501A6946D";
paths = (
{
closed = 1;
nodes = (
"522 330 OFFCURVE",
"438 432 OFFCURVE",
"317 432 CURVE SMOOTH",
"255 432 OFFCURVE",
"214 405 OFFCURVE",
"176 354 CURVE",
"176 717 LINE",
"111 710 OFFCURVE",
"67 708 OFFCURVE",
"15 708 CURVE",
"15 692 LINE",
"70 692 OFFCURVE",
"97 683 OFFCURVE",
"97 618 CURVE SMOOTH",
"97 -10 LINE",
"106 -10 LINE",
"155 77 LINE",
"190 27 OFFCURVE",
"253 -11 OFFCURVE",
"314 -11 CURVE SMOOTH",
"435 -11 OFFCURVE",
"522 94 OFFCURVE",
"522 216 CURVE SMOOTH"
);
},
{
closed = 1;
nodes = (
"428 102 OFFCURVE",
"401 5 OFFCURVE",
"303 5 CURVE SMOOTH",
"209 5 OFFCURVE",
"175 103 OFFCURVE",
"175 217 CURVE SMOOTH",
"175 353 OFFCURVE",
"238 415 OFFCURVE",
"311 415 CURVE SMOOTH",
"394 415 OFFCURVE",
"428 334 OFFCURVE",
"428 214 CURVE SMOOTH"
);
}
);
width = 578;
},
{
layerId = "6701A4D5-8A3D-41DD-8AA0-CFF5D98C5FFE";
paths = (
{
closed = 1;
nodes = (
"522 330 OFFCURVE",
"438 432 OFFCURVE",
"317 432 CURVE SMOOTH",
"255 432 OFFCURVE",
"214 405 OFFCURVE",
"176 354 CURVE",
"176 717 LINE",
"111 710 OFFCURVE",
"67 708 OFFCURVE",
"15 708 CURVE",
"15 692 LINE",
"70 692 OFFCURVE",
"97 683 OFFCURVE",
"97 618 CURVE SMOOTH",
"97 -10 LINE",
"106 -10 LINE",
"155 77 LINE",
"190 27 OFFCURVE",
"253 -11 OFFCURVE",
"314 -11 CURVE SMOOTH",
"435 -11 OFFCURVE",
"522 94 OFFCURVE",
"522 216 CURVE SMOOTH"
);
},
{
closed = 1;
nodes = (
"428 102 OFFCURVE",
"401 5 OFFCURVE",
"303 5 CURVE SMOOTH",
"209 5 OFFCURVE",
"175 103 OFFCURVE",
"175 217 CURVE SMOOTH",
"175 353 OFFCURVE",
"238 415 OFFCURVE",
"311 415 CURVE SMOOTH",
"394 415 OFFCURVE",
"428 334 OFFCURVE",
"428 214 CURVE SMOOTH"
);
}
);
width = 600;
}
);
note = b;
unicode = 0062;
},
{
glyphname = c;
lastChange = "2017-04-01 19:32:21 +0000";
layers = (
{
layerId = "9ECE4C5B-AE6E-45F8-855F-54F501A6946D";
paths = (
{
closed = 1;
nodes = (
"402 88 OFFCURVE",
"389 70 OFFCURVE",
"374 55 CURVE SMOOTH",
"342 23 OFFCURVE",
"303 8 OFFCURVE",
"269 8 CURVE SMOOTH",
"193 8 OFFCURVE",
"131 69 OFFCURVE",
"131 206 CURVE SMOOTH",
"131 261 OFFCURVE",
"139 303 OFFCURVE",
"155 336 CURVE SMOOTH",
"187 399 OFFCURVE",
"235 417 OFFCURVE",
"274 417 CURVE SMOOTH",
"308 417 OFFCURVE",
"349 400 OFFCURVE",
"349 372 CURVE SMOOTH",
"349 367 OFFCURVE",
"345 361 OFFCURVE",
"337 352 CURVE SMOOTH",
"321 336 OFFCURVE",
"312 328 OFFCURVE",
"312 299 CURVE SMOOTH",
"312 266 OFFCURVE",
"332 244 OFFCURVE",
"359 244 CURVE SMOOTH",
"393 244 OFFCURVE",
"418 269 OFFCURVE",
"418 313 CURVE SMOOTH",
"418 333 OFFCURVE",
"411 352 OFFCURVE",
"398 370 CURVE SMOOTH",
"372 408 OFFCURVE",
"322 433 OFFCURVE",
"260 433 CURVE SMOOTH",
"200 433 OFFCURVE",
"145 410 OFFCURVE",
"103 369 CURVE SMOOTH",
"62 327 OFFCURVE",
"37 270 OFFCURVE",
"37 207 CURVE SMOOTH",
"37 175 OFFCURVE",
"44 142 OFFCURVE",
"59 109 CURVE SMOOTH",
"86 42 OFFCURVE",
"149 -11 OFFCURVE",
"248 -11 CURVE SMOOTH",
"348 -11 OFFCURVE",
"403 46 OFFCURVE",
"426 103 CURVE",
"411 109 LINE"
);
}
);
width = 462;
},
{
layerId = "6701A4D5-8A3D-41DD-8AA0-CFF5D98C5FFE";
paths = (
{
closed = 1;
nodes = (
"402 88 OFFCURVE",
"389 70 OFFCURVE",
"374 55 CURVE SMOOTH",
"342 23 OFFCURVE",
"303 8 OFFCURVE",
"269 8 CURVE SMOOTH",
"193 8 OFFCURVE",
"131 69 OFFCURVE",
"131 206 CURVE SMOOTH",
"131 261 OFFCURVE",
"139 303 OFFCURVE",
"155 336 CURVE SMOOTH",
"187 399 OFFCURVE",
"235 417 OFFCURVE",
"274 417 CURVE SMOOTH",
"308 417 OFFCURVE",
"349 400 OFFCURVE",
"349 372 CURVE SMOOTH",
"349 367 OFFCURVE",
"345 361 OFFCURVE",
"337 352 CURVE SMOOTH",
"321 336 OFFCURVE",
"312 328 OFFCURVE",
"312 299 CURVE SMOOTH",
"312 266 OFFCURVE",
"332 244 OFFCURVE",
"359 244 CURVE SMOOTH",
"393 244 OFFCURVE",
"418 269 OFFCURVE",
"418 313 CURVE SMOOTH",
"418 333 OFFCURVE",
"411 352 OFFCURVE",
"398 370 CURVE SMOOTH",
"372 408 OFFCURVE",
"322 433 OFFCURVE",
"260 433 CURVE SMOOTH",
"200 433 OFFCURVE",
"145 410 OFFCURVE",
"103 369 CURVE SMOOTH",
"62 327 OFFCURVE",
"37 270 OFFCURVE",
"37 207 CURVE SMOOTH",
"37 175 OFFCURVE",
"44 142 OFFCURVE",
"59 109 CURVE SMOOTH",
"86 42 OFFCURVE",
"149 -11 OFFCURVE",
"248 -11 CURVE SMOOTH",
"348 -11 OFFCURVE",
"403 46 OFFCURVE",
"426 103 CURVE",
"411 109 LINE"
);
}
);
width = 600;
}
);
note = c;
unicode = 0063;
},
{
glyphname = d;
lastChange = "2017-04-01 19:32:27 +0000";
layers = (
{
layerId = "9ECE4C5B-AE6E-45F8-855F-54F501A6946D";
paths = (
{
closed = 1;
nodes = (
"544 18 LINE SMOOTH",
"517 18 OFFCURVE",
"503 27 OFFCURVE",
"494 61 CURVE SMOOTH",
"490 78 OFFCURVE",
"487 102 OFFCURVE",
"487 135 CURVE SMOOTH",
"487 687 LINE",
"432 681 OFFCURVE",
"372 678 OFFCURVE",
"307 678 CURVE",
"307 661 LINE",
"337 661 LINE SMOOTH",
"382 661 OFFCURVE",
"408 637 OFFCURVE",
"408 593 CURVE SMOOTH",
"408 369 LINE",
"365 411 OFFCURVE",
"317 432 OFFCURVE",
"266 432 CURVE SMOOTH",
"230 432 OFFCURVE",
"196 422 OFFCURVE",
"165 403 CURVE SMOOTH",
"103 363 OFFCURVE",
"63 290 OFFCURVE",
"63 203 CURVE SMOOTH",
"63 164 OFFCURVE",
"71 129 OFFCURVE",
"89 96 CURVE SMOOTH",
"123 30 OFFCURVE",
"187 -12 OFFCURVE",
"255 -12 CURVE SMOOTH",
"321 -12 OFFCURVE",
"364 12 OFFCURVE",
"409 81 CURVE",
"409 -8 LINE",
"567 0 LINE",
"567 18 LINE"
);
},
{
closed = 1;
nodes = (
"407 179 OFFCURVE",
"403 141 OFFCURVE",
"395 112 CURVE SMOOTH",
"377 54 OFFCURVE",
"336 7 OFFCURVE",
"271 7 CURVE SMOOTH",
"253 7 OFFCURVE",
"236 12 OFFCURVE",
"219 23 CURVE SMOOTH",
"185 44 OFFCURVE",
"156 103 OFFCURVE",
"156 214 CURVE SMOOTH",
"156 330 OFFCURVE",
"194 416 OFFCURVE",
"273 416 CURVE SMOOTH",
"307 416 OFFCURVE",
"339 404 OFFCURVE",
"365 375 CURVE SMOOTH",
"390 346 OFFCURVE",
"407 297 OFFCURVE",
"407 225 CURVE SMOOTH"
);
}
);
width = 578;
},
{
layerId = "6701A4D5-8A3D-41DD-8AA0-CFF5D98C5FFE";
paths = (
{
closed = 1;
nodes = (
"544 18 LINE SMOOTH",
"517 18 OFFCURVE",
"503 27 OFFCURVE",
"494 61 CURVE SMOOTH",
"490 78 OFFCURVE",
"487 102 OFFCURVE",
"487 135 CURVE SMOOTH",
"487 687 LINE",
"432 681 OFFCURVE",
"372 678 OFFCURVE",
"307 678 CURVE",
"307 661 LINE",
"337 661 LINE SMOOTH",
"382 661 OFFCURVE",
"408 637 OFFCURVE",
"408 593 CURVE SMOOTH",
"408 369 LINE",
"365 411 OFFCURVE",
"317 432 OFFCURVE",
"266 432 CURVE SMOOTH",
"230 432 OFFCURVE",
"196 422 OFFCURVE",
"165 403 CURVE SMOOTH",
"103 363 OFFCURVE",
"63 290 OFFCURVE",
"63 203 CURVE SMOOTH",
"63 164 OFFCURVE",
"71 129 OFFCURVE",
"89 96 CURVE SMOOTH",
"123 30 OFFCURVE",
"187 -12 OFFCURVE",
"255 -12 CURVE SMOOTH",
"321 -12 OFFCURVE",
"364 12 OFFCURVE",
"409 81 CURVE",
"409 -8 LINE",
"567 0 LINE",
"567 18 LINE"
);
},
{
closed = 1;
nodes = (
"407 179 OFFCURVE",
"403 141 OFFCURVE",
"395 112 CURVE SMOOTH",
"377 54 OFFCURVE",
"336 7 OFFCURVE",
"271 7 CURVE SMOOTH",
"253 7 OFFCURVE",
"236 12 OFFCURVE",
"219 23 CURVE SMOOTH",
"185 44 OFFCURVE",
"156 103 OFFCURVE",
"156 214 CURVE SMOOTH",
"156 330 OFFCURVE",
"194 416 OFFCURVE",
"273 416 CURVE SMOOTH",
"307 416 OFFCURVE",
"339 404 OFFCURVE",
"365 375 CURVE SMOOTH",
"390 346 OFFCURVE",
"407 297 OFFCURVE",
"407 225 CURVE SMOOTH"
);
}
);
width = 600;
}
);
note = d;
unicode = 0064;
},
{
glyphname = e;
lastChange = "2017-04-01 19:32:34 +0000";
layers = (
{
layerId = "9ECE4C5B-AE6E-45F8-855F-54F501A6946D";
paths = (
{
closed = 1;
nodes = (
"423 285 OFFCURVE",
"413 316 OFFCURVE",
"397 343 CURVE SMOOTH",
"364 399 OFFCURVE",
"309 432 OFFCURVE",
"248 432 CURVE SMOOTH",
"208 432 OFFCURVE",
"173 422 OFFCURVE",
"141 402 CURVE SMOOTH",
"77 362 OFFCURVE",
"38 287 OFFCURVE",
"38 208 CURVE SMOOTH",
"38 171 OFFCURVE",
"47 136 OFFCURVE",
"64 102 CURVE SMOOTH",
"97 34 OFFCURVE",
"160 -11 OFFCURVE",
"239 -11 CURVE SMOOTH",
"312 -11 OFFCURVE",
"370 19 OFFCURVE",
"422 90 CURVE",
"407 99 LINE",
"369 42 OFFCURVE",
"321 13 OFFCURVE",
"265 13 CURVE SMOOTH",
"185 13 OFFCURVE",
"131 76 OFFCURVE",
"131 195 CURVE SMOOTH",
"131 251 LINE",
"425 251 LINE"
);
},
{
closed = 1;
nodes = (
"340 308 OFFCURVE",
"336 288 OFFCURVE",
"326 267 CURVE",
"131 267 LINE",
"134 364 OFFCURVE",
"185 416 OFFCURVE",
"250 416 CURVE SMOOTH",
"297 416 OFFCURVE",
"340 382 OFFCURVE",
"340 327 CURVE SMOOTH"
);
}
);
width = 462;
},
{
layerId = "6701A4D5-8A3D-41DD-8AA0-CFF5D98C5FFE";
paths = (
{
closed = 1;
nodes = (
"423 285 OFFCURVE",
"413 316 OFFCURVE",
"397 343 CURVE SMOOTH",
"364 399 OFFCURVE",
"309 432 OFFCURVE",
"248 432 CURVE SMOOTH",
"208 432 OFFCURVE",
"173 422 OFFCURVE",
"141 402 CURVE SMOOTH",
"77 362 OFFCURVE",
"38 287 OFFCURVE",
"38 208 CURVE SMOOTH",
"38 171 OFFCURVE",
"47 136 OFFCURVE",
"64 102 CURVE SMOOTH",
"97 34 OFFCURVE",
"160 -11 OFFCURVE",
"239 -11 CURVE SMOOTH",
"312 -11 OFFCURVE",
"370 19 OFFCURVE",
"422 90 CURVE",
"407 99 LINE",
"369 42 OFFCURVE",
"321 13 OFFCURVE",
"265 13 CURVE SMOOTH",
"185 13 OFFCURVE",
"131 76 OFFCURVE",
"131 195 CURVE SMOOTH",
"131 251 LINE",
"425 251 LINE"
);
},
{
closed = 1;
nodes = (
"340 308 OFFCURVE",
"336 288 OFFCURVE",
"326 267 CURVE",
"131 267 LINE",
"134 364 OFFCURVE",
"185 416 OFFCURVE",
"250 416 CURVE SMOOTH",
"297 416 OFFCURVE",
"340 382 OFFCURVE",
"340 327 CURVE SMOOTH"
);
}
);
width = 600;
}
);
note = e;
unicode = 0065;
},
{
glyphname = f;
lastChange = "2017-04-01 19:32:40 +0000";
layers = (
{
layerId = "9ECE4C5B-AE6E-45F8-855F-54F501A6946D";
paths = (
{
closed = 1;
nodes = (
"390 605 OFFCURVE",
"386 620 OFFCURVE",
"378 636 CURVE SMOOTH",
"362 666 OFFCURVE",
"327 689 OFFCURVE",
"281 689 CURVE SMOOTH",
"248 689 OFFCURVE",
"220 679 OFFCURVE",
"196 659 CURVE SMOOTH",
"149 618 OFFCURVE",
"124 546 OFFCURVE",
"124 467 CURVE SMOOTH",
"124 427 LINE",
"29 427 LINE",
"29 409 LINE",
"124 409 LINE",
"124 56 LINE SMOOTH",
"124 27 OFFCURVE",
"114 18 OFFCURVE",
"89 18 CURVE SMOOTH",
"46 18 LINE",
"46 0 LINE",
"306 0 LINE",
"306 18 LINE",
"239 18 LINE SMOOTH",
"215 18 OFFCURVE",
"204 27 OFFCURVE",
"204 56 CURVE SMOOTH",
"204 409 LINE",
"320 409 LINE",
"320 427 LINE",
"203 427 LINE",
"203 583 LINE SMOOTH",
"203 637 OFFCURVE",
"233 672 OFFCURVE",
"277 672 CURVE SMOOTH",
"303 672 OFFCURVE",
"320 664 OFFCURVE",
"320 649 CURVE SMOOTH",
"320 644 OFFCURVE",
"317 637 OFFCURVE",
"312 628 CURVE SMOOTH",
"302 610 OFFCURVE",
"298 605 OFFCURVE",
"298 588 CURVE SMOOTH",
"298 560 OFFCURVE",
"317 539 OFFCURVE",
"343 539 CURVE SMOOTH",
"371 539 OFFCURVE",
"390 563 OFFCURVE",
"390 591 CURVE SMOOTH"
);
}
);
width = 347;
},
{
layerId = "6701A4D5-8A3D-41DD-8AA0-CFF5D98C5FFE";
paths = (
{
closed = 1;
nodes = (
"390 605 OFFCURVE",
"386 620 OFFCURVE",
"378 636 CURVE SMOOTH",
"362 666 OFFCURVE",
"327 689 OFFCURVE",
"281 689 CURVE SMOOTH",
"248 689 OFFCURVE",
"220 679 OFFCURVE",
"196 659 CURVE SMOOTH",
"149 618 OFFCURVE",
"124 546 OFFCURVE",
"124 467 CURVE SMOOTH",
"124 427 LINE",
"29 427 LINE",
"29 409 LINE",
"124 409 LINE",
"124 56 LINE SMOOTH",
"124 27 OFFCURVE",
"114 18 OFFCURVE",
"89 18 CURVE SMOOTH",
"46 18 LINE",
"46 0 LINE",
"306 0 LINE",
"306 18 LINE",
"239 18 LINE SMOOTH",
"215 18 OFFCURVE",
"204 27 OFFCURVE",
"204 56 CURVE SMOOTH",
"204 409 LINE",
"320 409 LINE",
"320 427 LINE",
"203 427 LINE",
"203 583 LINE SMOOTH",
"203 637 OFFCURVE",
"233 672 OFFCURVE",
"277 672 CURVE SMOOTH",
"303 672 OFFCURVE",
"320 664 OFFCURVE",
"320 649 CURVE SMOOTH",
"320 644 OFFCURVE",
"317 637 OFFCURVE",
"312 628 CURVE SMOOTH",
"302 610 OFFCURVE",
"298 605 OFFCURVE",
"298 588 CURVE SMOOTH",
"298 560 OFFCURVE",
"317 539 OFFCURVE",
"343 539 CURVE SMOOTH",
"371 539 OFFCURVE",
"390 563 OFFCURVE",
"390 591 CURVE SMOOTH"
);
}
);
width = 600;
}
);
note = f;
unicode = 0066;
},
{
glyphname = g;
lastChange = "2017-04-01 19:32:48 +0000";
layers = (
{
layerId = "9ECE4C5B-AE6E-45F8-855F-54F501A6946D";
paths = (
{
closed = 1;
nodes = (
"506 399 OFFCURVE",
"484 435 OFFCURVE",
"442 435 CURVE SMOOTH",
"404 435 OFFCURVE",
"376 410 OFFCURVE",
"374 379 CURVE",
"337 416 OFFCURVE",
"295 435 OFFCURVE",
"248 435 CURVE SMOOTH",
"220 435 OFFCURVE",
"192 427 OFFCURVE",
"163 411 CURVE SMOOTH",
"106 380 OFFCURVE",
"67 324 OFFCURVE",
"67 265 CURVE SMOOTH",
"67 202 OFFCURVE",
"105 150 OFFCURVE",
"154 120 CURVE",
"83 118 OFFCURVE",
"52 68 OFFCURVE",
"52 34 CURVE SMOOTH",
"52 -12 OFFCURVE",
"82 -48 OFFCURVE",
"138 -57 CURVE",
"131 -59 OFFCURVE",
"121 -63 OFFCURVE",
"108 -67 CURVE SMOOTH",
"95 -71 OFFCURVE",
"83 -77 OFFCURVE",
"71 -83 CURVE SMOOTH",
"47 -96 OFFCURVE",
"28 -115 OFFCURVE",
"28 -140 CURVE SMOOTH",
"28 -160 OFFCURVE",
"36 -178 OFFCURVE",
"52 -194 CURVE SMOOTH",
"84 -225 OFFCURVE",
"150 -245 OFFCURVE",
"234 -245 CURVE SMOOTH",
"381 -245 OFFCURVE",
"457 -193 OFFCURVE",
"457 -108 CURVE SMOOTH",
"457 -27 OFFCURVE",
"400 9 OFFCURVE",
"306 9 CURVE SMOOTH",
"177 9 LINE SMOOTH",
"118 9 OFFCURVE",
"90 29 OFFCURVE",
"90 60 CURVE SMOOTH",
"90 84 OFFCURVE",
"113 105 OFFCURVE",
"162 105 CURVE SMOOTH",
"168 105 OFFCURVE",
"181 103 OFFCURVE",
"200 100 CURVE SMOOTH",
"219 97 OFFCURVE",
"236 95 OFFCURVE",
"249 95 CURVE SMOOTH",
"282 95 OFFCURVE",
"312 102 OFFCURVE",
"339 117 CURVE SMOOTH",
"394 147 OFFCURVE",
"426 201 OFFCURVE",
"426 256 CURVE SMOOTH",
"426 280 OFFCURVE",
"420 304 OFFCURVE",
"408 326 CURVE",
"405 334 OFFCURVE",
"402 339 OFFCURVE",
"399 344 CURVE",
"394 354 OFFCURVE",
"391 361 OFFCURVE",
"391 369 CURVE SMOOTH",
"391 400 OFFCURVE",
"411 419 OFFCURVE",
"430 419 CURVE SMOOTH",
"441 419 OFFCURVE",
"450 411 OFFCURVE",
"450 402 CURVE SMOOTH",
"450 397 OFFCURVE",
"448 391 OFFCURVE",
"444 383 CURVE SMOOTH",
"441 374 OFFCURVE",
"439 368 OFFCURVE",
"439 361 CURVE SMOOTH",
"439 341 OFFCURVE",
"454 326 OFFCURVE",
"474 326 CURVE SMOOTH",
"492 326 OFFCURVE",
"506 343 OFFCURVE",
"506 369 CURVE SMOOTH"
);
},
{
closed = 1;
nodes = (
"337 167 OFFCURVE",
"325 111 OFFCURVE",
"248 111 CURVE SMOOTH",
"224 111 OFFCURVE",
"205 117 OFFCURVE",
"192 130 CURVE SMOOTH",
"166 155 OFFCURVE",
"159 200 OFFCURVE",
"159 276 CURVE SMOOTH",
"159 300 OFFCURVE",
"160 322 OFFCURVE",
"164 341 CURVE SMOOTH",
"169 379 OFFCURVE",
"193 416 OFFCURVE",
"246 416 CURVE SMOOTH",
"319 416 OFFCURVE",
"337 367 OFFCURVE",
"337 251 CURVE SMOOTH"
);
},
{
closed = 1;
nodes = (
"420 -157 OFFCURVE",
"412 -177 OFFCURVE",
"385 -196 CURVE SMOOTH",
"357 -215 OFFCURVE",
"306 -228 OFFCURVE",
"231 -228 CURVE SMOOTH",
"131 -228 OFFCURVE",
"86 -195 OFFCURVE",
"86 -143 CURVE SMOOTH",
"86 -75 OFFCURVE",
"153 -62 OFFCURVE",
"273 -62 CURVE SMOOTH",
"356 -62 OFFCURVE",
"420 -75 OFFCURVE",
"420 -138 CURVE SMOOTH"
);
}
);
width = 514;
},
{
layerId = "6701A4D5-8A3D-41DD-8AA0-CFF5D98C5FFE";
paths = (
{
closed = 1;
nodes = (
"506 399 OFFCURVE",
"484 435 OFFCURVE",
"442 435 CURVE SMOOTH",
"404 435 OFFCURVE",
"376 410 OFFCURVE",
"374 379 CURVE",
"337 416 OFFCURVE",
"295 435 OFFCURVE",
"248 435 CURVE SMOOTH",
"220 435 OFFCURVE",
"192 427 OFFCURVE",
"163 411 CURVE SMOOTH",
"106 380 OFFCURVE",
"67 324 OFFCURVE",
"67 265 CURVE SMOOTH",
"67 202 OFFCURVE",
"105 150 OFFCURVE",
"154 120 CURVE",
"83 118 OFFCURVE",
"52 68 OFFCURVE",
"52 34 CURVE SMOOTH",
"52 -12 OFFCURVE",
"82 -48 OFFCURVE",
"138 -57 CURVE",
"131 -59 OFFCURVE",
"121 -63 OFFCURVE",
"108 -67 CURVE SMOOTH",
"95 -71 OFFCURVE",
"83 -77 OFFCURVE",
"71 -83 CURVE SMOOTH",
"47 -96 OFFCURVE",
"28 -115 OFFCURVE",
"28 -140 CURVE SMOOTH",
"28 -160 OFFCURVE",
"36 -178 OFFCURVE",
"52 -194 CURVE SMOOTH",
"84 -225 OFFCURVE",
"150 -245 OFFCURVE",
"234 -245 CURVE SMOOTH",
"381 -245 OFFCURVE",
"457 -193 OFFCURVE",
"457 -108 CURVE SMOOTH",
"457 -27 OFFCURVE",
"400 9 OFFCURVE",
"306 9 CURVE SMOOTH",
"177 9 LINE SMOOTH",
"118 9 OFFCURVE",
"90 29 OFFCURVE",
"90 60 CURVE SMOOTH",
"90 84 OFFCURVE",
"113 105 OFFCURVE",
"162 105 CURVE SMOOTH",
"168 105 OFFCURVE",
"181 103 OFFCURVE",
"200 100 CURVE SMOOTH",
"219 97 OFFCURVE",
"236 95 OFFCURVE",
"249 95 CURVE SMOOTH",
"282 95 OFFCURVE",
"312 102 OFFCURVE",
"339 117 CURVE SMOOTH",
"394 147 OFFCURVE",
"426 201 OFFCURVE",
"426 256 CURVE SMOOTH",
"426 280 OFFCURVE",
"420 304 OFFCURVE",
"408 326 CURVE",
"405 334 OFFCURVE",
"402 339 OFFCURVE",
"399 344 CURVE",
"394 354 OFFCURVE",
"391 361 OFFCURVE",
"391 369 CURVE SMOOTH",
"391 400 OFFCURVE",
"411 419 OFFCURVE",
"430 419 CURVE SMOOTH",
"441 419 OFFCURVE",
"450 411 OFFCURVE",
"450 402 CURVE SMOOTH",
"450 397 OFFCURVE",
"448 391 OFFCURVE",
"444 383 CURVE SMOOTH",
"441 374 OFFCURVE",
"439 368 OFFCURVE",
"439 361 CURVE SMOOTH",
"439 341 OFFCURVE",
"454 326 OFFCURVE",
"474 326 CURVE SMOOTH",
"492 326 OFFCURVE",
"506 343 OFFCURVE",
"506 369 CURVE SMOOTH"
);
},
{
closed = 1;
nodes = (
"337 167 OFFCURVE",
"325 111 OFFCURVE",
"248 111 CURVE SMOOTH",
"224 111 OFFCURVE",
"205 117 OFFCURVE",
"192 130 CURVE SMOOTH",
"166 155 OFFCURVE",
"159 200 OFFCURVE",
"159 276 CURVE SMOOTH",
"159 300 OFFCURVE",
"160 322 OFFCURVE",
"164 341 CURVE SMOOTH",
"169 379 OFFCURVE",
"193 416 OFFCURVE",
"246 416 CURVE SMOOTH",
"319 416 OFFCURVE",
"337 367 OFFCURVE",
"337 251 CURVE SMOOTH"
);
},
{
closed = 1;
nodes = (
"420 -157 OFFCURVE",
"412 -177 OFFCURVE",
"385 -196 CURVE SMOOTH",
"357 -215 OFFCURVE",
"306 -228 OFFCURVE",
"231 -228 CURVE SMOOTH",
"131 -228 OFFCURVE",
"86 -195 OFFCURVE",
"86 -143 CURVE SMOOTH",
"86 -75 OFFCURVE",
"153 -62 OFFCURVE",
"273 -62 CURVE SMOOTH",
"356 -62 OFFCURVE",
"420 -75 OFFCURVE",
"420 -138 CURVE SMOOTH"
);
}
);
width = 600;
}
);
note = g;
unicode = 0067;
},
{
glyphname = h;
lastChange = "2017-04-01 19:32:54 +0000";
layers = (
{
layerId = "9ECE4C5B-AE6E-45F8-855F-54F501A6946D";
paths = (
{
closed = 1;
nodes = (
"513 18 LINE SMOOTH",
"489 18 OFFCURVE",
"478 27 OFFCURVE",
"478 56 CURVE SMOOTH",
"478 271 LINE SMOOTH",
"478 291 OFFCURVE",
"477 306 OFFCURVE",
"475 320 CURVE SMOOTH",
"471 345 OFFCURVE",
"460 370 OFFCURVE",
"437 393 CURVE SMOOTH",
"413 418 OFFCURVE",
"370 435 OFFCURVE",
"330 435 CURVE SMOOTH",
"262 435 OFFCURVE",
"221 401 OFFCURVE",
"185 332 CURVE",
"185 687 LINE",
"116 680 OFFCURVE",
"85 678 OFFCURVE",
"34 678 CURVE",
"34 661 LINE",
"79 661 OFFCURVE",
"105 636 OFFCURVE",
"105 593 CURVE SMOOTH",
"105 57 LINE SMOOTH",
"105 28 OFFCURVE",
"95 18 OFFCURVE",
"69 18 CURVE SMOOTH",
"33 18 LINE",
"33 0 LINE",
"255 0 LINE",
"255 18 LINE",
"220 18 LINE SMOOTH",
"196 18 OFFCURVE",
"185 28 OFFCURVE",
"185 57 CURVE SMOOTH",
"185 194 LINE SMOOTH",
"185 248 OFFCURVE",
"192 292 OFFCURVE",
"205 325 CURVE SMOOTH",
"233 390 OFFCURVE",
"275 414 OFFCURVE",
"309 414 CURVE SMOOTH",
"373 414 OFFCURVE",
"399 366 OFFCURVE",
"399 285 CURVE SMOOTH",
"399 56 LINE SMOOTH",
"399 27 OFFCURVE",
"388 18 OFFCURVE",
"363 18 CURVE SMOOTH",
"326 18 LINE",
"326 0 LINE",
"547 0 LINE",
"547 18 LINE"
);
}
);
width = 578;
},
{
layerId = "6701A4D5-8A3D-41DD-8AA0-CFF5D98C5FFE";
paths = (
{
closed = 1;
nodes = (
"513 18 LINE SMOOTH",
"489 18 OFFCURVE",
"478 27 OFFCURVE",
"478 56 CURVE SMOOTH",
"478 271 LINE SMOOTH",
"478 291 OFFCURVE",
"477 306 OFFCURVE",
"475 320 CURVE SMOOTH",
"471 345 OFFCURVE",
"460 370 OFFCURVE",
"437 393 CURVE SMOOTH",
"413 418 OFFCURVE",
"370 435 OFFCURVE",
"330 435 CURVE SMOOTH",
"262 435 OFFCURVE",
"221 401 OFFCURVE",
"185 332 CURVE",
"185 687 LINE",
"116 680 OFFCURVE",
"85 678 OFFCURVE",
"34 678 CURVE",
"34 661 LINE",
"79 661 OFFCURVE",
"105 636 OFFCURVE",
"105 593 CURVE SMOOTH",
"105 57 LINE SMOOTH",
"105 28 OFFCURVE",
"95 18 OFFCURVE",
"69 18 CURVE SMOOTH",
"33 18 LINE",
"33 0 LINE",
"255 0 LINE",
"255 18 LINE",
"220 18 LINE SMOOTH",
"196 18 OFFCURVE",
"185 28 OFFCURVE",
"185 57 CURVE SMOOTH",
"185 194 LINE SMOOTH",
"185 248 OFFCURVE",
"192 292 OFFCURVE",
"205 325 CURVE SMOOTH",
"233 390 OFFCURVE",
"275 414 OFFCURVE",
"309 414 CURVE SMOOTH",
"373 414 OFFCURVE",
"399 366 OFFCURVE",
"399 285 CURVE SMOOTH",
"399 56 LINE SMOOTH",
"399 27 OFFCURVE",
"388 18 OFFCURVE",
"363 18 CURVE SMOOTH",
"326 18 LINE",
"326 0 LINE",
"547 0 LINE",
"547 18 LINE"
);
}
);
width = 600;
}
);
note = h;
unicode = 0068;
},
{
glyphname = i;
lastChange = "2017-04-01 19:33:03 +0000";
layers = (
{
layerId = "9ECE4C5B-AE6E-45F8-855F-54F501A6946D";
paths = (
{
closed = 1;
nodes = (
"189 651 OFFCURVE",
"183 664 OFFCURVE",
"175 673 CURVE SMOOTH",
"167 682 OFFCURVE",
"153 687 OFFCURVE",
"139 687 CURVE SMOOTH",
"130 687 OFFCURVE",
"122 685 OFFCURVE",
"114 681 CURVE SMOOTH",
"99 672 OFFCURVE",
"90 656 OFFCURVE",
"90 638 CURVE SMOOTH",
"90 611 OFFCURVE",
"112 588 OFFCURVE",
"139 588 CURVE SMOOTH",
"148 588 OFFCURVE",
"157 591 OFFCURVE",
"164 595 CURVE SMOOTH",
"179 604 OFFCURVE",
"189 620 OFFCURVE",
"189 638 CURVE SMOOTH"
);
},
{
closed = 1;
nodes = (
"221 17 LINE SMOOTH",
"196 17 OFFCURVE",
"186 26 OFFCURVE",
"186 55 CURVE SMOOTH",
"186 434 LINE",
"29 427 LINE",
"29 409 LINE",
"80 409 OFFCURVE",
"106 403 OFFCURVE",
"106 352 CURVE SMOOTH",
"106 55 LINE SMOOTH",
"106 26 OFFCURVE",
"96 17 OFFCURVE",
"70 17 CURVE SMOOTH",
"36 17 LINE",
"36 0 LINE",
"254 0 LINE",
"254 17 LINE"
);
}
);
width = 283;
},
{
layerId = "6701A4D5-8A3D-41DD-8AA0-CFF5D98C5FFE";
paths = (
{
closed = 1;
nodes = (
"189 651 OFFCURVE",
"183 664 OFFCURVE",
"175 673 CURVE SMOOTH",
"167 682 OFFCURVE",
"153 687 OFFCURVE",
"139 687 CURVE SMOOTH",
"130 687 OFFCURVE",
"122 685 OFFCURVE",
"114 681 CURVE SMOOTH",
"99 672 OFFCURVE",
"90 656 OFFCURVE",
"90 638 CURVE SMOOTH",
"90 611 OFFCURVE",
"112 588 OFFCURVE",
"139 588 CURVE SMOOTH",
"148 588 OFFCURVE",
"157 591 OFFCURVE",
"164 595 CURVE SMOOTH",
"179 604 OFFCURVE",
"189 620 OFFCURVE",
"189 638 CURVE SMOOTH"
);
},
{
closed = 1;
nodes = (
"221 17 LINE SMOOTH",
"196 17 OFFCURVE",
"186 26 OFFCURVE",
"186 55 CURVE SMOOTH",
"186 434 LINE",
"29 427 LINE",
"29 409 LINE",
"80 409 OFFCURVE",
"106 403 OFFCURVE",
"106 352 CURVE SMOOTH",
"106 55 LINE SMOOTH",
"106 26 OFFCURVE",
"96 17 OFFCURVE",
"70 17 CURVE SMOOTH",
"36 17 LINE",
"36 0 LINE",
"254 0 LINE",
"254 17 LINE"
);
}
);
width = 600;
}
);
note = i;
unicode = 0069;
},
{
glyphname = j;
lastChange = "2017-04-01 19:33:08 +0000";
layers = (
{
layerId = "9ECE4C5B-AE6E-45F8-855F-54F501A6946D";
paths = (
{
closed = 1;
nodes = (
"226 651 OFFCURVE",
"220 665 OFFCURVE",
"212 673 CURVE SMOOTH",
"203 681 OFFCURVE",
"190 687 OFFCURVE",
"176 687 CURVE SMOOTH",
"168 687 OFFCURVE",
"159 685 OFFCURVE",
"152 681 CURVE SMOOTH",
"136 672 OFFCURVE",
"127 656 OFFCURVE",
"127 638 CURVE SMOOTH",
"127 629 OFFCURVE",
"130 620 OFFCURVE",
"134 613 CURVE SMOOTH",
"143 598 OFFCURVE",
"159 588 OFFCURVE",
"176 588 CURVE SMOOTH",
"186 588 OFFCURVE",
"194 591 OFFCURVE",
"202 595 CURVE SMOOTH",
"217 604 OFFCURVE",
"226 620 OFFCURVE",
"226 638 CURVE SMOOTH"
);
},
{
closed = 1;
nodes = (
"41 427 LINE",
"41 409 LINE",
"58 409 LINE SMOOTH",
"83 409 OFFCURVE",
"102 408 OFFCURVE",
"113 406 CURVE SMOOTH",
"136 402 OFFCURVE",
"147 387 OFFCURVE",
"147 352 CURVE SMOOTH",
"147 -13 LINE SMOOTH",
"147 -26 OFFCURVE",
"149 -47 OFFCURVE",
"153 -78 CURVE SMOOTH",
"157 -110 OFFCURVE",
"159 -133 OFFCURVE",
"159 -146 CURVE SMOOTH",
"159 -201 OFFCURVE",
"145 -228 OFFCURVE",
"100 -228 CURVE SMOOTH",
"83 -228 OFFCURVE",
"64 -218 OFFCURVE",
"64 -206 CURVE SMOOTH",
"64 -202 OFFCURVE",
"67 -196 OFFCURVE",
"76 -188 CURVE SMOOTH",
"92 -174 OFFCURVE",
"100 -168 OFFCURVE",
"100 -149 CURVE SMOOTH",
"100 -122 OFFCURVE",
"83 -104 OFFCURVE",
"57 -104 CURVE SMOOTH",
"27 -104 OFFCURVE",
"8 -131 OFFCURVE",
"8 -159 CURVE SMOOTH",
"8 -196 OFFCURVE",
"48 -244 OFFCURVE",
"105 -244 CURVE SMOOTH",
"130 -244 OFFCURVE",
"152 -237 OFFCURVE",
"170 -223 CURVE SMOOTH",
"207 -194 OFFCURVE",
"227 -144 OFFCURVE",
"227 -93 CURVE SMOOTH",
"227 434 LINE"
);
}
);
width = 347;
},
{
layerId = "6701A4D5-8A3D-41DD-8AA0-CFF5D98C5FFE";
paths = (
{
closed = 1;
nodes = (
"226 651 OFFCURVE",
"220 665 OFFCURVE",
"212 673 CURVE SMOOTH",
"203 681 OFFCURVE",
"190 687 OFFCURVE",
"176 687 CURVE SMOOTH",
"168 687 OFFCURVE",
"159 685 OFFCURVE",
"152 681 CURVE SMOOTH",
"136 672 OFFCURVE",
"127 656 OFFCURVE",
"127 638 CURVE SMOOTH",
"127 629 OFFCURVE",
"130 620 OFFCURVE",
"134 613 CURVE SMOOTH",
"143 598 OFFCURVE",
"159 588 OFFCURVE",
"176 588 CURVE SMOOTH",
"186 588 OFFCURVE",
"194 591 OFFCURVE",
"202 595 CURVE SMOOTH",
"217 604 OFFCURVE",
"226 620 OFFCURVE",
"226 638 CURVE SMOOTH"
);
},
{
closed = 1;
nodes = (
"41 427 LINE",
"41 409 LINE",
"58 409 LINE SMOOTH",
"83 409 OFFCURVE",
"102 408 OFFCURVE",
"113 406 CURVE SMOOTH",
"136 402 OFFCURVE",
"147 387 OFFCURVE",
"147 352 CURVE SMOOTH",
"147 -13 LINE SMOOTH",
"147 -26 OFFCURVE",
"149 -47 OFFCURVE",
"153 -78 CURVE SMOOTH",
"157 -110 OFFCURVE",
"159 -133 OFFCURVE",
"159 -146 CURVE SMOOTH",
"159 -201 OFFCURVE",
"145 -228 OFFCURVE",
"100 -228 CURVE SMOOTH",
"83 -228 OFFCURVE",
"64 -218 OFFCURVE",
"64 -206 CURVE SMOOTH",
"64 -202 OFFCURVE",
"67 -196 OFFCURVE",
"76 -188 CURVE SMOOTH",
"92 -174 OFFCURVE",
"100 -168 OFFCURVE",
"100 -149 CURVE SMOOTH",
"100 -122 OFFCURVE",
"83 -104 OFFCURVE",
"57 -104 CURVE SMOOTH",
"27 -104 OFFCURVE",
"8 -131 OFFCURVE",
"8 -159 CURVE SMOOTH",
"8 -196 OFFCURVE",
"48 -244 OFFCURVE",
"105 -244 CURVE SMOOTH",
"130 -244 OFFCURVE",
"152 -237 OFFCURVE",
"170 -223 CURVE SMOOTH",
"207 -194 OFFCURVE",
"227 -144 OFFCURVE",
"227 -93 CURVE SMOOTH",
"227 434 LINE"
);
}
);
width = 600;
}
);
note = j;
unicode = 006A;
},
{
glyphname = k;
lastChange = "2017-04-01 19:33:15 +0000";
layers = (
{
layerId = "9ECE4C5B-AE6E-45F8-855F-54F501A6946D";
paths = (
{
closed = 1;
nodes = (
"529 18 LINE SMOOTH",
"516 18 OFFCURVE",
"506 21 OFFCURVE",
"499 26 CURVE SMOOTH",
"491 31 OFFCURVE",
"485 38 OFFCURVE",
"471 54 CURVE SMOOTH",
"293 262 LINE",
"396 349 LINE SMOOTH",
"443 389 OFFCURVE",
"480 409 OFFCURVE",
"505 409 CURVE SMOOTH",
"522 409 LINE",
"522 427 LINE",
"288 427 LINE",
"288 409 LINE",
"311 409 LINE SMOOTH",
"350 409 OFFCURVE",
"372 404 OFFCURVE",
"372 373 CURVE SMOOTH",
"372 358 OFFCURVE",
"362 342 OFFCURVE",
"341 326 CURVE",
"188 199 LINE",
"188 687 LINE",
"133 681 OFFCURVE",
"77 678 OFFCURVE",
"22 678 CURVE",
"22 661 LINE",
"37 661 LINE SMOOTH",
"89 661 OFFCURVE",
"108 652 OFFCURVE",
"108 609 CURVE SMOOTH",
"108 56 LINE SMOOTH",
"108 26 OFFCURVE",
"98 18 OFFCURVE",
"72 18 CURVE SMOOTH",
"33 18 LINE",
"33 0 LINE",
"254 0 LINE",
"254 18 LINE",
"223 18 LINE SMOOTH",
"215 18 OFFCURVE",
"209 19 OFFCURVE",
"203 22 CURVE",
"193 26 OFFCURVE",
"188 36 OFFCURVE",
"188 56 CURVE SMOOTH",
"188 175 LINE",
"230 210 LINE",
"366 51 LINE",
"373 44 OFFCURVE",
"376 37 OFFCURVE",
"376 30 CURVE SMOOTH",
"376 22 OFFCURVE",
"370 18 OFFCURVE",
"356 18 CURVE SMOOTH",
"317 18 LINE",
"317 1 LINE",
"556 1 LINE",
"556 18 LINE"
);
}
);
width = 578;
},
{
layerId = "6701A4D5-8A3D-41DD-8AA0-CFF5D98C5FFE";
paths = (
{
closed = 1;
nodes = (
"529 18 LINE SMOOTH",
"516 18 OFFCURVE",
"506 21 OFFCURVE",
"499 26 CURVE SMOOTH",
"491 31 OFFCURVE",
"485 38 OFFCURVE",
"471 54 CURVE SMOOTH",
"293 262 LINE",
"396 349 LINE SMOOTH",
"443 389 OFFCURVE",
"480 409 OFFCURVE",
"505 409 CURVE SMOOTH",
"522 409 LINE",
"522 427 LINE",
"288 427 LINE",
"288 409 LINE",
"311 409 LINE SMOOTH",
"350 409 OFFCURVE",
"372 404 OFFCURVE",
"372 373 CURVE SMOOTH",
"372 358 OFFCURVE",
"362 342 OFFCURVE",
"341 326 CURVE",
"188 199 LINE",
"188 687 LINE",
"133 681 OFFCURVE",
"77 678 OFFCURVE",
"22 678 CURVE",
"22 661 LINE",
"37 661 LINE SMOOTH",
"89 661 OFFCURVE",
"108 652 OFFCURVE",
"108 609 CURVE SMOOTH",
"108 56 LINE SMOOTH",
"108 26 OFFCURVE",
"98 18 OFFCURVE",
"72 18 CURVE SMOOTH",
"33 18 LINE",
"33 0 LINE",
"254 0 LINE",
"254 18 LINE",
"223 18 LINE SMOOTH",
"215 18 OFFCURVE",
"209 19 OFFCURVE",
"203 22 CURVE",
"193 26 OFFCURVE",
"188 36 OFFCURVE",
"188 56 CURVE SMOOTH",
"188 175 LINE",
"230 210 LINE",
"366 51 LINE",
"373 44 OFFCURVE",
"376 37 OFFCURVE",
"376 30 CURVE SMOOTH",
"376 22 OFFCURVE",
"370 18 OFFCURVE",
"356 18 CURVE SMOOTH",
"317 18 LINE",
"317 1 LINE",
"556 1 LINE",
"556 18 LINE"
);
}
);
width = 600;
}
);
note = k;
unicode = 006B;
},
{
glyphname = l;
lastChange = "2017-04-01 19:33:22 +0000";
layers = (
{
layerId = "9ECE4C5B-AE6E-45F8-855F-54F501A6946D";
paths = (
{
closed = 1;
nodes = (
"219 17 LINE SMOOTH",
"195 17 OFFCURVE",
"184 26 OFFCURVE",
"184 55 CURVE SMOOTH",
"184 717 LINE",
"117 710 OFFCURVE",
"77 708 OFFCURVE",
"25 708 CURVE",
"25 691 LINE",
"43 691 LINE SMOOTH",
"89 691 OFFCURVE",
"104 670 OFFCURVE",
"104 623 CURVE SMOOTH",
"104 55 LINE SMOOTH",
"104 27 OFFCURVE",
"94 17 OFFCURVE",
"68 17 CURVE SMOOTH",
"30 17 LINE",
"30 0 LINE",
"258 0 LINE",
"258 17 LINE"
);
}
);
width = 283;
},
{
layerId = "6701A4D5-8A3D-41DD-8AA0-CFF5D98C5FFE";
paths = (
{
closed = 1;
nodes = (
"219 17 LINE SMOOTH",
"195 17 OFFCURVE",
"184 26 OFFCURVE",
"184 55 CURVE SMOOTH",
"184 717 LINE",
"117 710 OFFCURVE",
"77 708 OFFCURVE",
"25 708 CURVE",
"25 691 LINE",
"43 691 LINE SMOOTH",
"89 691 OFFCURVE",
"104 670 OFFCURVE",
"104 623 CURVE SMOOTH",
"104 55 LINE SMOOTH",
"104 27 OFFCURVE",
"94 17 OFFCURVE",
"68 17 CURVE SMOOTH",
"30 17 LINE",
"30 0 LINE",
"258 0 LINE",
"258 17 LINE"
);
}
);
width = 600;
}
);
note = l;
unicode = 006C;
},
{
glyphname = m;
lastChange = "2017-04-01 19:33:27 +0000";
layers = (
{
layerId = "9ECE4C5B-AE6E-45F8-855F-54F501A6946D";
paths = (
{
closed = 1;
nodes = (
"800 18 LINE SMOOTH",
"792 18 OFFCURVE",
"786 19 OFFCURVE",
"780 22 CURVE",
"770 26 OFFCURVE",
"765 36 OFFCURVE",
"765 56 CURVE SMOOTH",
"765 290 LINE SMOOTH",
"765 318 OFFCURVE",
"759 343 OFFCURVE",
"746 365 CURVE SMOOTH",
"721 407 OFFCURVE",
"674 432 OFFCURVE",
"619 432 CURVE SMOOTH",
"553 432 OFFCURVE",
"497 397 OFFCURVE",
"472 320 CURVE",
"447 395 OFFCURVE",
"397 432 OFFCURVE",
"322 432 CURVE SMOOTH",
"302 432 OFFCURVE",
"283 428 OFFCURVE",
"267 421 CURVE SMOOTH",
"233 406 OFFCURVE",
"203 374 OFFCURVE",
"184 330 CURVE",
"184 432 LINE",
"30 425 LINE",
"30 407 LINE",
"46 407 OFFCURVE",
"59 406 OFFCURVE",
"68 403 CURVE",
"88 398 OFFCURVE",
"104 375 OFFCURVE",
"104 324 CURVE SMOOTH",
"104 56 LINE SMOOTH",
"104 27 OFFCURVE",
"94 18 OFFCURVE",
"68 18 CURVE SMOOTH",
"33 18 LINE",
"33 1 LINE",
"253 1 LINE",
"253 18 LINE",
"219 18 LINE SMOOTH",
"195 18 OFFCURVE",
"184 27 OFFCURVE",
"184 56 CURVE SMOOTH",
"184 211 LINE SMOOTH",
"184 251 OFFCURVE",
"189 287 OFFCURVE",
"200 317 CURVE SMOOTH",
"222 377 OFFCURVE",
"259 412 OFFCURVE",
"310 412 CURVE SMOOTH",
"330 412 OFFCURVE",
"347 406 OFFCURVE",
"360 395 CURVE SMOOTH",
"386 373 OFFCURVE",
"395 330 OFFCURVE",
"395 291 CURVE SMOOTH",
"395 56 LINE SMOOTH",
"395 27 OFFCURVE",
"384 18 OFFCURVE",
"359 18 CURVE SMOOTH",
"325 18 LINE",
"325 0 LINE",
"546 0 LINE",
"546 18 LINE",
"509 18 LINE SMOOTH",
"485 18 OFFCURVE",
"474 27 OFFCURVE",
"474 56 CURVE SMOOTH",
"474 201 LINE SMOOTH",
"474 255 OFFCURVE",
"481 298 OFFCURVE",
"496 330 CURVE SMOOTH",
"525 392 OFFCURVE",
"565 414 OFFCURVE",
"603 414 CURVE SMOOTH",
"658 414 OFFCURVE",
"685 374 OFFCURVE",
"685 296 CURVE SMOOTH",
"685 56 LINE SMOOTH",
"685 27 OFFCURVE",
"675 18 OFFCURVE",
"650 18 CURVE SMOOTH",
"615 18 LINE",
"615 0 LINE",
"836 0 LINE",
"836 18 LINE"
);
}
);
width = 862;
},
{
layerId = "6701A4D5-8A3D-41DD-8AA0-CFF5D98C5FFE";
paths = (
{
closed = 1;
nodes = (
"800 18 LINE SMOOTH",
"792 18 OFFCURVE",
"786 19 OFFCURVE",
"780 22 CURVE",
"770 26 OFFCURVE",
"765 36 OFFCURVE",
"765 56 CURVE SMOOTH",
"765 290 LINE SMOOTH",
"765 318 OFFCURVE",
"759 343 OFFCURVE",
"746 365 CURVE SMOOTH",
"721 407 OFFCURVE",
"674 432 OFFCURVE",
"619 432 CURVE SMOOTH",
"553 432 OFFCURVE",
"497 397 OFFCURVE",
"472 320 CURVE",
"447 395 OFFCURVE",
"397 432 OFFCURVE",
"322 432 CURVE SMOOTH",
"302 432 OFFCURVE",
"283 428 OFFCURVE",
"267 421 CURVE SMOOTH",
"233 406 OFFCURVE",
"203 374 OFFCURVE",
"184 330 CURVE",
"184 432 LINE",
"30 425 LINE",
"30 407 LINE",
"46 407 OFFCURVE",
"59 406 OFFCURVE",
"68 403 CURVE",
"88 398 OFFCURVE",
"104 375 OFFCURVE",
"104 324 CURVE SMOOTH",
"104 56 LINE SMOOTH",
"104 27 OFFCURVE",
"94 18 OFFCURVE",
"68 18 CURVE SMOOTH",
"33 18 LINE",
"33 1 LINE",
"253 1 LINE",
"253 18 LINE",
"219 18 LINE SMOOTH",
"195 18 OFFCURVE",
"184 27 OFFCURVE",
"184 56 CURVE SMOOTH",
"184 211 LINE SMOOTH",
"184 251 OFFCURVE",
"189 287 OFFCURVE",
"200 317 CURVE SMOOTH",
"222 377 OFFCURVE",
"259 412 OFFCURVE",
"310 412 CURVE SMOOTH",
"330 412 OFFCURVE",
"347 406 OFFCURVE",
"360 395 CURVE SMOOTH",
"386 373 OFFCURVE",
"395 330 OFFCURVE",
"395 291 CURVE SMOOTH",
"395 56 LINE SMOOTH",
"395 27 OFFCURVE",
"384 18 OFFCURVE",
"359 18 CURVE SMOOTH",
"325 18 LINE",
"325 0 LINE",
"546 0 LINE",
"546 18 LINE",
"509 18 LINE SMOOTH",
"485 18 OFFCURVE",
"474 27 OFFCURVE",
"474 56 CURVE SMOOTH",
"474 201 LINE SMOOTH",
"474 255 OFFCURVE",
"481 298 OFFCURVE",
"496 330 CURVE SMOOTH",
"525 392 OFFCURVE",
"565 414 OFFCURVE",
"603 414 CURVE SMOOTH",
"658 414 OFFCURVE",
"685 374 OFFCURVE",
"685 296 CURVE SMOOTH",
"685 56 LINE SMOOTH",
"685 27 OFFCURVE",
"675 18 OFFCURVE",
"650 18 CURVE SMOOTH",
"615 18 LINE",
"615 0 LINE",
"836 0 LINE",
"836 18 LINE"
);
}
);
width = 600;
}
);
note = m;
unicode = 006D;
},
{
glyphname = n;
lastChange = "2017-04-01 19:33:33 +0000";
layers = (
{
layerId = "9ECE4C5B-AE6E-45F8-855F-54F501A6946D";
paths = (
{
closed = 1;
nodes = (
"510 17 LINE SMOOTH",
"486 17 OFFCURVE",
"475 27 OFFCURVE",
"475 56 CURVE SMOOTH",
"475 283 LINE SMOOTH",
"475 309 OFFCURVE",
"470 333 OFFCURVE",
"459 356 CURVE SMOOTH",
"437 402 OFFCURVE",
"391 434 OFFCURVE",
"323 434 CURVE SMOOTH",
"303 434 OFFCURVE",
"286 430 OFFCURVE",
"269 423 CURVE SMOOTH",
"234 407 OFFCURVE",
"205 377 OFFCURVE",
"185 332 CURVE",
"185 434 LINE",
"31 427 LINE",
"31 409 LINE",
"47 409 OFFCURVE",
"60 408 OFFCURVE",
"69 405 CURVE",
"89 400 OFFCURVE",
"105 377 OFFCURVE",
"105 326 CURVE SMOOTH",
"105 56 LINE SMOOTH",
"105 27 OFFCURVE",
"95 18 OFFCURVE",
"69 18 CURVE SMOOTH",
"34 18 LINE",
"34 1 LINE",
"255 1 LINE",
"255 18 LINE",
"220 18 LINE SMOOTH",
"196 18 OFFCURVE",
"185 27 OFFCURVE",
"185 56 CURVE SMOOTH",
"185 213 LINE SMOOTH",
"185 338 OFFCURVE",
"242 414 OFFCURVE",
"311 414 CURVE SMOOTH",
"325 414 OFFCURVE",
"338 410 OFFCURVE",
"351 403 CURVE SMOOTH",
"377 389 OFFCURVE",
"396 354 OFFCURVE",
"396 297 CURVE SMOOTH",
"396 56 LINE SMOOTH",
"396 27 OFFCURVE",
"385 17 OFFCURVE",
"360 17 CURVE SMOOTH",
"327 17 LINE",
"327 0 LINE",
"547 0 LINE",
"547 17 LINE"
);
}
);
width = 578;
},
{
layerId = "6701A4D5-8A3D-41DD-8AA0-CFF5D98C5FFE";
paths = (
{
closed = 1;
nodes = (
"510 17 LINE SMOOTH",
"486 17 OFFCURVE",
"475 27 OFFCURVE",
"475 56 CURVE SMOOTH",
"475 283 LINE SMOOTH",
"475 309 OFFCURVE",
"470 333 OFFCURVE",
"459 356 CURVE SMOOTH",
"437 402 OFFCURVE",
"391 434 OFFCURVE",
"323 434 CURVE SMOOTH",
"303 434 OFFCURVE",
"286 430 OFFCURVE",
"269 423 CURVE SMOOTH",
"234 407 OFFCURVE",
"205 377 OFFCURVE",
"185 332 CURVE",
"185 434 LINE",
"31 427 LINE",
"31 409 LINE",
"47 409 OFFCURVE",
"60 408 OFFCURVE",
"69 405 CURVE",
"89 400 OFFCURVE",
"105 377 OFFCURVE",
"105 326 CURVE SMOOTH",
"105 56 LINE SMOOTH",
"105 27 OFFCURVE",
"95 18 OFFCURVE",
"69 18 CURVE SMOOTH",
"34 18 LINE",
"34 1 LINE",
"255 1 LINE",
"255 18 LINE",
"220 18 LINE SMOOTH",
"196 18 OFFCURVE",
"185 27 OFFCURVE",
"185 56 CURVE SMOOTH",
"185 213 LINE SMOOTH",
"185 338 OFFCURVE",
"242 414 OFFCURVE",
"311 414 CURVE SMOOTH",
"325 414 OFFCURVE",
"338 410 OFFCURVE",
"351 403 CURVE SMOOTH",
"377 389 OFFCURVE",
"396 354 OFFCURVE",
"396 297 CURVE SMOOTH",
"396 56 LINE SMOOTH",
"396 27 OFFCURVE",
"385 17 OFFCURVE",
"360 17 CURVE SMOOTH",
"327 17 LINE",
"327 0 LINE",
"547 0 LINE",
"547 17 LINE"
);
}
);
width = 600;
}
);
note = n;
unicode = 006E;
},
{
glyphname = o;
lastChange = "2017-04-01 19:33:39 +0000";
layers = (
{
layerId = "9ECE4C5B-AE6E-45F8-855F-54F501A6946D";
paths = (
{
closed = 1;
nodes = (
"479 252 OFFCURVE",
"470 289 OFFCURVE",
"449 323 CURVE SMOOTH",
"409 391 OFFCURVE",
"336 433 OFFCURVE",
"256 433 CURVE SMOOTH",
"217 433 OFFCURVE",
"181 424 OFFCURVE",
"147 404 CURVE SMOOTH",
"80 367 OFFCURVE",
"35 297 OFFCURVE",
"35 212 CURVE SMOOTH",
"35 171 OFFCURVE",
"45 135 OFFCURVE",
"65 101 CURVE SMOOTH",
"104 33 OFFCURVE",
"175 -8 OFFCURVE",
"256 -8 CURVE SMOOTH",
"300 -8 OFFCURVE",
"339 2 OFFCURVE",
"373 24 CURVE SMOOTH",
"442 65 OFFCURVE",
"479 137 OFFCURVE",
"479 211 CURVE SMOOTH"
);
},
{
closed = 1;
nodes = (
"386 85 OFFCURVE",
"360 8 OFFCURVE",
"256 8 CURVE SMOOTH",
"214 8 OFFCURVE",
"182 21 OFFCURVE",
"160 55 CURVE SMOOTH",
"138 89 OFFCURVE",
"128 144 OFFCURVE",
"128 219 CURVE SMOOTH",
"128 346 OFFCURVE",
"161 417 OFFCURVE",
"257 417 CURVE SMOOTH",
"343 417 OFFCURVE",
"386 349 OFFCURVE",
"386 215 CURVE SMOOTH"
);
}
);
width = 514;
},
{
layerId = "6701A4D5-8A3D-41DD-8AA0-CFF5D98C5FFE";
paths = (
{
closed = 1;
nodes = (
"479 252 OFFCURVE",
"470 289 OFFCURVE",
"449 323 CURVE SMOOTH",
"409 391 OFFCURVE",
"336 433 OFFCURVE",
"256 433 CURVE SMOOTH",
"217 433 OFFCURVE",
"181 424 OFFCURVE",
"147 404 CURVE SMOOTH",
"80 367 OFFCURVE",
"35 297 OFFCURVE",
"35 212 CURVE SMOOTH",
"35 171 OFFCURVE",
"45 135 OFFCURVE",
"65 101 CURVE SMOOTH",
"104 33 OFFCURVE",
"175 -8 OFFCURVE",
"256 -8 CURVE SMOOTH",
"300 -8 OFFCURVE",
"339 2 OFFCURVE",
"373 24 CURVE SMOOTH",
"442 65 OFFCURVE",
"479 137 OFFCURVE",
"479 211 CURVE SMOOTH"
);
},
{
closed = 1;
nodes = (
"386 85 OFFCURVE",
"360 8 OFFCURVE",
"256 8 CURVE SMOOTH",
"214 8 OFFCURVE",
"182 21 OFFCURVE",
"160 55 CURVE SMOOTH",
"138 89 OFFCURVE",
"128 144 OFFCURVE",
"128 219 CURVE SMOOTH",
"128 346 OFFCURVE",
"161 417 OFFCURVE",
"257 417 CURVE SMOOTH",
"343 417 OFFCURVE",
"386 349 OFFCURVE",
"386 215 CURVE SMOOTH"
);
}
);
width = 600;
}
);
note = o;
unicode = 006F;
},
{
glyphname = p;
lastChange = "2017-04-01 19:33:45 +0000";
layers = (
{
layerId = "9ECE4C5B-AE6E-45F8-855F-54F501A6946D";
paths = (
{
closed = 1;
nodes = (
"527 259 OFFCURVE",
"517 297 OFFCURVE",
"499 331 CURVE SMOOTH",
"461 398 OFFCURVE",
"397 435 OFFCURVE",
"336 435 CURVE SMOOTH",
"269 435 OFFCURVE",
"219 405 OFFCURVE",
"180 336 CURVE",
"180 433 LINE",
"22 425 LINE",
"22 407 LINE",
"45 407 LINE SMOOTH",
"65 407 OFFCURVE",
"79 400 OFFCURVE",
"89 385 CURVE SMOOTH",
"98 370 OFFCURVE",
"102 338 OFFCURVE",
"102 291 CURVE SMOOTH",
"102 -189 LINE SMOOTH",
"102 -218 OFFCURVE",
"91 -227 OFFCURVE",
"66 -227 CURVE SMOOTH",
"24 -227 LINE",
"24 -244 LINE",
"271 -244 LINE",
"271 -227 LINE",
"216 -227 LINE SMOOTH",
"192 -227 OFFCURVE",
"181 -218 OFFCURVE",
"181 -189 CURVE SMOOTH",
"181 70 LINE",
"223 17 OFFCURVE",
"263 -9 OFFCURVE",
"324 -9 CURVE SMOOTH",
"353 -9 OFFCURVE",
"383 0 OFFCURVE",
"414 16 CURVE SMOOTH",
"477 49 OFFCURVE",
"527 118 OFFCURVE",
"527 216 CURVE SMOOTH"
);
},
{
closed = 1;
nodes = (
"433 129 OFFCURVE",
"421 77 OFFCURVE",
"396 49 CURVE SMOOTH",
"370 21 OFFCURVE",
"344 7 OFFCURVE",
"316 7 CURVE SMOOTH",
"245 7 OFFCURVE",
"182 68 OFFCURVE",
"182 203 CURVE SMOOTH",
"182 288 OFFCURVE",
"198 345 OFFCURVE",
"229 373 CURVE SMOOTH",
"260 402 OFFCURVE",
"289 416 OFFCURVE",
"318 416 CURVE SMOOTH",
"414 416 OFFCURVE",
"433 307 OFFCURVE",
"433 206 CURVE SMOOTH"
);
}
);
width = 578;
},
{
layerId = "6701A4D5-8A3D-41DD-8AA0-CFF5D98C5FFE";
paths = (
{
closed = 1;
nodes = (
"527 259 OFFCURVE",
"517 297 OFFCURVE",
"499 331 CURVE SMOOTH",
"461 398 OFFCURVE",
"397 435 OFFCURVE",
"336 435 CURVE SMOOTH",
"269 435 OFFCURVE",
"219 405 OFFCURVE",
"180 336 CURVE",
"180 433 LINE",
"22 425 LINE",
"22 407 LINE",
"45 407 LINE SMOOTH",
"65 407 OFFCURVE",
"79 400 OFFCURVE",
"89 385 CURVE SMOOTH",
"98 370 OFFCURVE",
"102 338 OFFCURVE",
"102 291 CURVE SMOOTH",
"102 -189 LINE SMOOTH",
"102 -218 OFFCURVE",
"91 -227 OFFCURVE",
"66 -227 CURVE SMOOTH",
"24 -227 LINE",
"24 -244 LINE",
"271 -244 LINE",
"271 -227 LINE",
"216 -227 LINE SMOOTH",
"192 -227 OFFCURVE",
"181 -218 OFFCURVE",
"181 -189 CURVE SMOOTH",
"181 70 LINE",
"223 17 OFFCURVE",
"263 -9 OFFCURVE",
"324 -9 CURVE SMOOTH",
"353 -9 OFFCURVE",
"383 0 OFFCURVE",
"414 16 CURVE SMOOTH",
"477 49 OFFCURVE",
"527 118 OFFCURVE",
"527 216 CURVE SMOOTH"
);
},
{
closed = 1;
nodes = (
"433 129 OFFCURVE",
"421 77 OFFCURVE",
"396 49 CURVE SMOOTH",
"370 21 OFFCURVE",
"344 7 OFFCURVE",
"316 7 CURVE SMOOTH",
"245 7 OFFCURVE",
"182 68 OFFCURVE",
"182 203 CURVE SMOOTH",
"182 288 OFFCURVE",
"198 345 OFFCURVE",
"229 373 CURVE SMOOTH",
"260 402 OFFCURVE",
"289 416 OFFCURVE",
"318 416 CURVE SMOOTH",
"414 416 OFFCURVE",
"433 307 OFFCURVE",
"433 206 CURVE SMOOTH"
);
}
);
width = 600;
}
);
note = p;
unicode = 0070;
},
{
glyphname = q;
lastChange = "2017-04-01 19:33:51 +0000";
layers = (
{
layerId = "9ECE4C5B-AE6E-45F8-855F-54F501A6946D";
paths = (
{
closed = 1;
nodes = (
"527 -227 LINE SMOOTH",
"501 -227 OFFCURVE",
"490 -218 OFFCURVE",
"490 -189 CURVE SMOOTH",
"490 435 LINE",
"484 435 LINE",
"435 366 LINE",
"392 412 OFFCURVE",
"340 435 OFFCURVE",
"277 435 CURVE SMOOTH",
"235 435 OFFCURVE",
"199 424 OFFCURVE",
"166 402 CURVE SMOOTH",
"100 358 OFFCURVE",
"61 283 OFFCURVE",
"61 210 CURVE SMOOTH",
"61 160 OFFCURVE",
"72 119 OFFCURVE",
"95 86 CURVE SMOOTH",
"140 21 OFFCURVE",
"209 -9 OFFCURVE",
"269 -9 CURVE SMOOTH",
"330 -9 OFFCURVE",
"381 15 OFFCURVE",
"412 51 CURVE",
"412 -189 LINE SMOOTH",
"412 -218 OFFCURVE",
"402 -227 OFFCURVE",
"376 -227 CURVE SMOOTH",
"322 -227 LINE",
"322 -244 LINE",
"568 -244 LINE",
"568 -227 LINE"
);
},
{
closed = 1;
nodes = (
"413 56 OFFCURVE",
"350 8 OFFCURVE",
"277 8 CURVE SMOOTH",
"190 8 OFFCURVE",
"154 89 OFFCURVE",
"154 203 CURVE SMOOTH",
"154 303 OFFCURVE",
"177 419 OFFCURVE",
"277 419 CURVE SMOOTH",
"318 419 OFFCURVE",
"349 407 OFFCURVE",
"370 385 CURVE SMOOTH",
"410 339 OFFCURVE",
"413 281 OFFCURVE",
"413 193 CURVE SMOOTH"
);
}
);
width = 578;
},
{
layerId = "6701A4D5-8A3D-41DD-8AA0-CFF5D98C5FFE";
paths = (
{
closed = 1;
nodes = (
"527 -227 LINE SMOOTH",
"501 -227 OFFCURVE",
"490 -218 OFFCURVE",
"490 -189 CURVE SMOOTH",
"490 435 LINE",
"484 435 LINE",
"435 366 LINE",
"392 412 OFFCURVE",
"340 435 OFFCURVE",
"277 435 CURVE SMOOTH",
"235 435 OFFCURVE",
"199 424 OFFCURVE",
"166 402 CURVE SMOOTH",
"100 358 OFFCURVE",
"61 283 OFFCURVE",
"61 210 CURVE SMOOTH",
"61 160 OFFCURVE",
"72 119 OFFCURVE",
"95 86 CURVE SMOOTH",
"140 21 OFFCURVE",
"209 -9 OFFCURVE",
"269 -9 CURVE SMOOTH",
"330 -9 OFFCURVE",
"381 15 OFFCURVE",
"412 51 CURVE",
"412 -189 LINE SMOOTH",
"412 -218 OFFCURVE",
"402 -227 OFFCURVE",
"376 -227 CURVE SMOOTH",
"322 -227 LINE",
"322 -244 LINE",
"568 -244 LINE",
"568 -227 LINE"
);
},
{
closed = 1;
nodes = (
"413 56 OFFCURVE",
"350 8 OFFCURVE",
"277 8 CURVE SMOOTH",
"190 8 OFFCURVE",
"154 89 OFFCURVE",
"154 203 CURVE SMOOTH",
"154 303 OFFCURVE",
"177 419 OFFCURVE",
"277 419 CURVE SMOOTH",
"318 419 OFFCURVE",
"349 407 OFFCURVE",
"370 385 CURVE SMOOTH",
"410 339 OFFCURVE",
"413 281 OFFCURVE",
"413 193 CURVE SMOOTH"
);
}
);
width = 600;
}
);
note = q;
unicode = 0071;
},
{
glyphname = r;
lastChange = "2017-04-01 19:33:57 +0000";
layers = (
{
layerId = "9ECE4C5B-AE6E-45F8-855F-54F501A6946D";
paths = (
{
closed = 1;
nodes = (
"380 372 OFFCURVE",
"377 385 OFFCURVE",
"370 397 CURVE SMOOTH",
"355 420 OFFCURVE",
"329 435 OFFCURVE",
"302 435 CURVE SMOOTH",
"252 435 OFFCURVE",
"207 393 OFFCURVE",
"185 331 CURVE",
"185 434 LINE",
"20 427 LINE",
"20 408 LINE",
"62 408 OFFCURVE",
"81 406 OFFCURVE",
"95 379 CURVE SMOOTH",
"101 366 OFFCURVE",
"105 344 OFFCURVE",
"105 316 CURVE SMOOTH",
"105 55 LINE SMOOTH",
"105 26 OFFCURVE",
"95 17 OFFCURVE",
"69 17 CURVE SMOOTH",
"28 17 LINE",
"28 0 LINE",
"278 0 LINE",
"278 17 LINE",
"220 17 LINE SMOOTH",
"196 17 OFFCURVE",
"185 26 OFFCURVE",
"185 55 CURVE SMOOTH",
"185 209 LINE SMOOTH",
"185 265 OFFCURVE",
"197 317 OFFCURVE",
"214 352 CURVE SMOOTH",
"231 387 OFFCURVE",
"251 405 OFFCURVE",
"269 405 CURVE SMOOTH",
"284 405 OFFCURVE",
"292 398 OFFCURVE",
"292 381 CURVE SMOOTH",
"292 377 OFFCURVE",
"291 370 OFFCURVE",
"290 362 CURVE SMOOTH",
"288 354 OFFCURVE",
"288 349 OFFCURVE",
"288 347 CURVE SMOOTH",
"288 324 OFFCURVE",
"300 300 OFFCURVE",
"329 300 CURVE SMOOTH",
"361 300 OFFCURVE",
"380 326 OFFCURVE",
"380 359 CURVE SMOOTH"
);
}
);
width = 400;
},
{
layerId = "6701A4D5-8A3D-41DD-8AA0-CFF5D98C5FFE";
paths = (
{
closed = 1;
nodes = (
"380 372 OFFCURVE",
"377 385 OFFCURVE",
"370 397 CURVE SMOOTH",
"355 420 OFFCURVE",
"329 435 OFFCURVE",
"302 435 CURVE SMOOTH",
"252 435 OFFCURVE",
"207 393 OFFCURVE",
"185 331 CURVE",
"185 434 LINE",
"20 427 LINE",
"20 408 LINE",
"62 408 OFFCURVE",
"81 406 OFFCURVE",
"95 379 CURVE SMOOTH",
"101 366 OFFCURVE",
"105 344 OFFCURVE",
"105 316 CURVE SMOOTH",
"105 55 LINE SMOOTH",
"105 26 OFFCURVE",
"95 17 OFFCURVE",
"69 17 CURVE SMOOTH",
"28 17 LINE",
"28 0 LINE",
"278 0 LINE",
"278 17 LINE",
"220 17 LINE SMOOTH",
"196 17 OFFCURVE",
"185 26 OFFCURVE",
"185 55 CURVE SMOOTH",
"185 209 LINE SMOOTH",
"185 265 OFFCURVE",
"197 317 OFFCURVE",
"214 352 CURVE SMOOTH",
"231 387 OFFCURVE",
"251 405 OFFCURVE",
"269 405 CURVE SMOOTH",
"284 405 OFFCURVE",
"292 398 OFFCURVE",
"292 381 CURVE SMOOTH",
"292 377 OFFCURVE",
"291 370 OFFCURVE",
"290 362 CURVE SMOOTH",
"288 354 OFFCURVE",
"288 349 OFFCURVE",
"288 347 CURVE SMOOTH",
"288 324 OFFCURVE",
"300 300 OFFCURVE",
"329 300 CURVE SMOOTH",
"361 300 OFFCURVE",
"380 326 OFFCURVE",
"380 359 CURVE SMOOTH"
);
}
);
width = 600;
}
);
note = r;
unicode = 0072;
},
{
glyphname = s;
lastChange = "2017-04-01 19:34:03 +0000";
layers = (
{
layerId = "9ECE4C5B-AE6E-45F8-855F-54F501A6946D";
paths = (
{
closed = 1;
nodes = (
"363 182 OFFCURVE",
"319 217 OFFCURVE",
"252 244 CURVE",
"236 250 OFFCURVE",
"216 257 OFFCURVE",
"192 267 CURVE SMOOTH",
"142 284 OFFCURVE",
"106 310 OFFCURVE",
"106 353 CURVE SMOOTH",
"106 393 OFFCURVE",
"145 420 OFFCURVE",
"186 420 CURVE SMOOTH",
"247 420 OFFCURVE",
"293 379 OFFCURVE",
"323 299 CURVE",
"335 299 LINE",
"331 433 LINE",
"319 433 LINE",
"311 410 OFFCURVE",
"303 394 OFFCURVE",
"296 386 CURVE",
"255 424 OFFCURVE",
"233 435 OFFCURVE",
"180 435 CURVE SMOOTH",
"101 435 OFFCURVE",
"48 377 OFFCURVE",
"48 314 CURVE SMOOTH",
"48 239 OFFCURVE",
"108 205 OFFCURVE",
"177 180 CURVE",
"210 169 OFFCURVE",
"227 164 OFFCURVE",
"253 150 CURVE SMOOTH",
"280 135 OFFCURVE",
"299 112 OFFCURVE",
"299 82 CURVE SMOOTH",
"299 42 OFFCURVE",
"268 8 OFFCURVE",
"211 8 CURVE SMOOTH",
"189 8 OFFCURVE",
"168 13 OFFCURVE",
"149 22 CURVE SMOOTH",
"110 41 OFFCURVE",
"79 81 OFFCURVE",
"64 146 CURVE",
"46 146 LINE",
"55 -8 LINE",
"68 -8 LINE",
"89 47 LINE",
"121 10 OFFCURVE",
"163 -8 OFFCURVE",
"214 -8 CURVE SMOOTH",
"312 -8 OFFCURVE",
"363 50 OFFCURVE",
"363 113 CURVE SMOOTH"
);
}
);
width = 400;
},
{
layerId = "6701A4D5-8A3D-41DD-8AA0-CFF5D98C5FFE";
paths = (
{
closed = 1;
nodes = (
"363 182 OFFCURVE",
"319 217 OFFCURVE",
"252 244 CURVE",
"236 250 OFFCURVE",
"216 257 OFFCURVE",
"192 267 CURVE SMOOTH",
"142 284 OFFCURVE",
"106 310 OFFCURVE",
"106 353 CURVE SMOOTH",
"106 393 OFFCURVE",
"145 420 OFFCURVE",
"186 420 CURVE SMOOTH",
"247 420 OFFCURVE",
"293 379 OFFCURVE",
"323 299 CURVE",
"335 299 LINE",
"331 433 LINE",
"319 433 LINE",
"311 410 OFFCURVE",
"303 394 OFFCURVE",
"296 386 CURVE",
"255 424 OFFCURVE",
"233 435 OFFCURVE",
"180 435 CURVE SMOOTH",
"101 435 OFFCURVE",
"48 377 OFFCURVE",
"48 314 CURVE SMOOTH",
"48 239 OFFCURVE",
"108 205 OFFCURVE",
"177 180 CURVE",
"210 169 OFFCURVE",
"227 164 OFFCURVE",
"253 150 CURVE SMOOTH",
"280 135 OFFCURVE",
"299 112 OFFCURVE",
"299 82 CURVE SMOOTH",
"299 42 OFFCURVE",
"268 8 OFFCURVE",
"211 8 CURVE SMOOTH",
"189 8 OFFCURVE",
"168 13 OFFCURVE",
"149 22 CURVE SMOOTH",
"110 41 OFFCURVE",
"79 81 OFFCURVE",
"64 146 CURVE",
"46 146 LINE",
"55 -8 LINE",
"68 -8 LINE",
"89 47 LINE",
"121 10 OFFCURVE",
"163 -8 OFFCURVE",
"214 -8 CURVE SMOOTH",
"312 -8 OFFCURVE",
"363 50 OFFCURVE",
"363 113 CURVE SMOOTH"
);
}
);
width = 600;
}
);
note = s;
unicode = 0073;
},
{
glyphname = t;
lastChange = "2017-04-01 19:34:09 +0000";
layers = (
{
layerId = "9ECE4C5B-AE6E-45F8-855F-54F501A6946D";
paths = (
{
closed = 1;
nodes = (
"356 144 LINE",
"356 77 OFFCURVE",
"321 19 OFFCURVE",
"266 19 CURVE SMOOTH",
"222 19 OFFCURVE",
"197 64 OFFCURVE",
"197 129 CURVE SMOOTH",
"197 398 LINE",
"344 398 LINE",
"344 427 LINE",
"197 427 LINE",
"197 616 LINE",
"117 585 LINE",
"117 427 LINE",
"29 427 LINE",
"29 399 LINE",
"117 399 LINE",
"117 125 LINE SMOOTH",
"117 30 OFFCURVE",
"180 -9 OFFCURVE",
"240 -9 CURVE SMOOTH",
"266 -9 OFFCURVE",
"289 -3 OFFCURVE",
"309 9 CURVE SMOOTH",
"350 33 OFFCURVE",
"374 77 OFFCURVE",
"374 130 CURVE SMOOTH",
"374 144 LINE"
);
}
);
width = 400;
},
{
layerId = "6701A4D5-8A3D-41DD-8AA0-CFF5D98C5FFE";
paths = (
{
closed = 1;
nodes = (
"356 144 LINE",
"356 77 OFFCURVE",
"321 19 OFFCURVE",
"266 19 CURVE SMOOTH",
"222 19 OFFCURVE",
"197 64 OFFCURVE",
"197 129 CURVE SMOOTH",
"197 398 LINE",
"344 398 LINE",
"344 427 LINE",
"197 427 LINE",
"197 616 LINE",
"117 585 LINE",
"117 427 LINE",
"29 427 LINE",
"29 399 LINE",
"117 399 LINE",
"117 125 LINE SMOOTH",
"117 30 OFFCURVE",
"180 -9 OFFCURVE",
"240 -9 CURVE SMOOTH",
"266 -9 OFFCURVE",
"289 -3 OFFCURVE",
"309 9 CURVE SMOOTH",
"350 33 OFFCURVE",
"374 77 OFFCURVE",
"374 130 CURVE SMOOTH",
"374 144 LINE"
);
}
);
width = 600;
}
);
note = t;
unicode = 0074;
},
{
glyphname = u;
lastChange = "2017-04-01 19:34:15 +0000";
layers = (
{
layerId = "9ECE4C5B-AE6E-45F8-855F-54F501A6946D";
paths = (
{
closed = 1;
nodes = (
"512 16 LINE SMOOTH",
"488 16 OFFCURVE",
"477 26 OFFCURVE",
"477 55 CURVE SMOOTH",
"477 433 LINE",
"318 427 LINE",
"318 407 LINE",
"377 407 OFFCURVE",
"398 403 OFFCURVE",
"398 351 CURVE SMOOTH",
"398 222 LINE SMOOTH",
"398 177 OFFCURVE",
"391 138 OFFCURVE",
"377 107 CURVE SMOOTH",
"349 44 OFFCURVE",
"303 12 OFFCURVE",
"258 12 CURVE SMOOTH",
"238 12 OFFCURVE",
"223 18 OFFCURVE",
"212 28 CURVE SMOOTH",
"190 49 OFFCURVE",
"185 81 OFFCURVE",
"185 125 CURVE SMOOTH",
"185 433 LINE",
"27 427 LINE",
"27 407 LINE",
"84 407 OFFCURVE",
"105 403 OFFCURVE",
"105 351 CURVE SMOOTH",
"105 121 LINE SMOOTH",
"105 25 OFFCURVE",
"168 -7 OFFCURVE",
"233 -7 CURVE SMOOTH",
"272 -7 OFFCURVE",
"303 1 OFFCURVE",
"330 19 CURVE SMOOTH",
"356 36 OFFCURVE",
"378 65 OFFCURVE",
"398 103 CURVE",
"398 0 LINE",
"551 0 LINE",
"551 16 LINE"
);
}
);
width = 578;
},
{
layerId = "6701A4D5-8A3D-41DD-8AA0-CFF5D98C5FFE";
paths = (
{
closed = 1;
nodes = (
"512 16 LINE SMOOTH",
"488 16 OFFCURVE",
"477 26 OFFCURVE",
"477 55 CURVE SMOOTH",
"477 433 LINE",
"318 427 LINE",
"318 407 LINE",
"377 407 OFFCURVE",
"398 403 OFFCURVE",
"398 351 CURVE SMOOTH",
"398 222 LINE SMOOTH",
"398 177 OFFCURVE",
"391 138 OFFCURVE",
"377 107 CURVE SMOOTH",
"349 44 OFFCURVE",
"303 12 OFFCURVE",
"258 12 CURVE SMOOTH",
"238 12 OFFCURVE",
"223 18 OFFCURVE",
"212 28 CURVE SMOOTH",
"190 49 OFFCURVE",
"185 81 OFFCURVE",
"185 125 CURVE SMOOTH",
"185 433 LINE",
"27 427 LINE",
"27 407 LINE",
"84 407 OFFCURVE",
"105 403 OFFCURVE",
"105 351 CURVE SMOOTH",
"105 121 LINE SMOOTH",
"105 25 OFFCURVE",
"168 -7 OFFCURVE",
"233 -7 CURVE SMOOTH",
"272 -7 OFFCURVE",
"303 1 OFFCURVE",
"330 19 CURVE SMOOTH",
"356 36 OFFCURVE",
"378 65 OFFCURVE",
"398 103 CURVE",
"398 0 LINE",
"551 0 LINE",
"551 16 LINE"
);
}
);
width = 600;
}
);
note = u;
unicode = 0075;
},
{
glyphname = v;
lastChange = "2017-04-01 19:34:22 +0000";
layers = (
{
layerId = "9ECE4C5B-AE6E-45F8-855F-54F501A6946D";
paths = (
{
closed = 1;
nodes = (
"360 427 LINE",
"360 409 LINE",
"372 409 LINE SMOOTH",
"405 409 OFFCURVE",
"431 391 OFFCURVE",
"431 355 CURVE SMOOTH",
"431 342 OFFCURVE",
"427 328 OFFCURVE",
"421 313 CURVE SMOOTH",
"319 88 LINE",
"204 360 LINE",
"199 370 OFFCURVE",
"197 379 OFFCURVE",
"197 386 CURVE SMOOTH",
"197 402 OFFCURVE",
"207 409 OFFCURVE",
"227 409 CURVE SMOOTH",
"277 409 LINE",
"277 427 LINE",
"27 427 LINE",
"27 409 LINE",
"58 409 LINE SMOOTH",
"80 409 OFFCURVE",
"96 400 OFFCURVE",
"105 379 CURVE SMOOTH",
"273 -12 LINE",
"294 -12 LINE",
"447 328 LINE SMOOTH",
"480 400 OFFCURVE",
"512 409 OFFCURVE",
"552 409 CURVE",
"552 427 LINE"
);
}
);
width = 578;
},
{
layerId = "6701A4D5-8A3D-41DD-8AA0-CFF5D98C5FFE";
paths = (
{
closed = 1;
nodes = (
"360 427 LINE",
"360 409 LINE",
"372 409 LINE SMOOTH",
"405 409 OFFCURVE",
"431 391 OFFCURVE",
"431 355 CURVE SMOOTH",
"431 342 OFFCURVE",
"427 328 OFFCURVE",
"421 313 CURVE SMOOTH",
"319 88 LINE",
"204 360 LINE",
"199 370 OFFCURVE",
"197 379 OFFCURVE",
"197 386 CURVE SMOOTH",
"197 402 OFFCURVE",
"207 409 OFFCURVE",
"227 409 CURVE SMOOTH",
"277 409 LINE",
"277 427 LINE",
"27 427 LINE",
"27 409 LINE",
"58 409 LINE SMOOTH",
"80 409 OFFCURVE",
"96 400 OFFCURVE",
"105 379 CURVE SMOOTH",
"273 -12 LINE",
"294 -12 LINE",
"447 328 LINE SMOOTH",
"480 400 OFFCURVE",
"512 409 OFFCURVE",
"552 409 CURVE",
"552 427 LINE"
);
}
);
width = 600;
}
);
note = v;
unicode = 0076;
},
{
glyphname = w;
lastChange = "2017-04-01 19:34:27 +0000";
layers = (
{
layerId = "9ECE4C5B-AE6E-45F8-855F-54F501A6946D";
paths = (
{
closed = 1;
nodes = (
"559 427 LINE",
"559 409 LINE",
"589 409 OFFCURVE",
"611 402 OFFCURVE",
"611 349 CURVE SMOOTH",
"611 333 OFFCURVE",
"608 314 OFFCURVE",
"601 293 CURVE SMOOTH",
"534 110 LINE",
"447 340 LINE SMOOTH",
"441 353 OFFCURVE",
"439 366 OFFCURVE",
"439 376 CURVE SMOOTH",
"439 402 OFFCURVE",
"457 409 OFFCURVE",
"497 409 CURVE",
"497 427 LINE",
"297 427 LINE",
"297 409 LINE",
"328 409 OFFCURVE",
"337 405 OFFCURVE",
"347 386 CURVE SMOOTH",
"352 376 OFFCURVE",
"359 358 OFFCURVE",
"367 331 CURVE",
"281 108 LINE",
"191 348 LINE SMOOTH",
"186 360 OFFCURVE",
"184 371 OFFCURVE",
"184 380 CURVE SMOOTH",
"184 400 OFFCURVE",
"197 409 OFFCURVE",
"223 409 CURVE SMOOTH",
"242 409 LINE",
"242 427 LINE",
"24 427 LINE",
"24 409 LINE",
"38 409 LINE SMOOTH",
"73 409 OFFCURVE",
"89 393 OFFCURVE",
"103 357 CURVE SMOOTH",
"243 -11 LINE",
"256 -11 LINE",
"377 307 LINE",
"498 -11 LINE",
"509 -11 LINE",
"627 313 LINE SMOOTH",
"647 368 OFFCURVE",
"682 409 OFFCURVE",
"710 409 CURVE SMOOTH",
"721 409 LINE",
"721 427 LINE"
);
}
);
width = 747;
},
{
layerId = "6701A4D5-8A3D-41DD-8AA0-CFF5D98C5FFE";
paths = (
{
closed = 1;
nodes = (
"559 427 LINE",
"559 409 LINE",
"589 409 OFFCURVE",
"611 402 OFFCURVE",
"611 349 CURVE SMOOTH",
"611 333 OFFCURVE",
"608 314 OFFCURVE",
"601 293 CURVE SMOOTH",
"534 110 LINE",
"447 340 LINE SMOOTH",
"441 353 OFFCURVE",
"439 366 OFFCURVE",
"439 376 CURVE SMOOTH",
"439 402 OFFCURVE",
"457 409 OFFCURVE",
"497 409 CURVE",
"497 427 LINE",
"297 427 LINE",
"297 409 LINE",
"328 409 OFFCURVE",
"337 405 OFFCURVE",
"347 386 CURVE SMOOTH",
"352 376 OFFCURVE",
"359 358 OFFCURVE",
"367 331 CURVE",
"281 108 LINE",
"191 348 LINE SMOOTH",
"186 360 OFFCURVE",
"184 371 OFFCURVE",
"184 380 CURVE SMOOTH",
"184 400 OFFCURVE",
"197 409 OFFCURVE",
"223 409 CURVE SMOOTH",
"242 409 LINE",
"242 427 LINE",
"24 427 LINE",
"24 409 LINE",
"38 409 LINE SMOOTH",
"73 409 OFFCURVE",
"89 393 OFFCURVE",
"103 357 CURVE SMOOTH",
"243 -11 LINE",
"256 -11 LINE",
"377 307 LINE",
"498 -11 LINE",
"509 -11 LINE",
"627 313 LINE SMOOTH",
"647 368 OFFCURVE",
"682 409 OFFCURVE",
"710 409 CURVE SMOOTH",
"721 409 LINE",
"721 427 LINE"
);
}
);
width = 600;
}
);
note = w;
unicode = 0077;
},
{
glyphname = x;
lastChange = "2017-04-01 19:34:35 +0000";
layers = (
{
layerId = "9ECE4C5B-AE6E-45F8-855F-54F501A6946D";
paths = (
{
closed = 1;
nodes = (
"520 17 OFFCURVE",
"501 23 OFFCURVE",
"465 68 CURVE SMOOTH",
"330 240 LINE",
"414 336 LINE SMOOTH",
"468 398 OFFCURVE",
"498 408 OFFCURVE",
"536 408 CURVE",
"536 426 LINE",
"360 426 LINE",
"360 408 LINE",
"390 408 OFFCURVE",
"404 399 OFFCURVE",
"404 379 CURVE SMOOTH",
"404 364 OFFCURVE",
"399 352 OFFCURVE",
"391 341 CURVE",
"387 336 OFFCURVE",
"379 326 OFFCURVE",
"368 312 CURVE SMOOTH",
"356 298 OFFCURVE",
"339 279 OFFCURVE",
"319 255 CURVE",
"244 348 LINE",
"232 363 OFFCURVE",
"226 375 OFFCURVE",
"226 385 CURVE SMOOTH",
"226 401 OFFCURVE",
"241 408 OFFCURVE",
"270 408 CURVE SMOOTH",
"286 408 LINE",
"286 426 LINE",
"35 426 LINE",
"35 408 LINE",
"51 408 LINE SMOOTH",
"85 408 OFFCURVE",
"109 388 OFFCURVE",
"139 350 CURVE SMOOTH",
"262 194 LINE",
"182 102 LINE SMOOTH",
"125 35 OFFCURVE",
"79 17 OFFCURVE",
"35 17 CURVE",
"35 0 LINE",
"226 0 LINE",
"226 17 LINE",
"213 17 LINE SMOOTH",
"193 17 OFFCURVE",
"177 28 OFFCURVE",
"177 46 CURVE SMOOTH",
"177 61 OFFCURVE",
"191 84 OFFCURVE",
"219 115 CURVE SMOOTH",
"274 178 LINE",
"370 59 LINE",
"374 52 OFFCURVE",
"376 45 OFFCURVE",
"376 39 CURVE SMOOTH",
"376 26 OFFCURVE",
"363 17 OFFCURVE",
"346 17 CURVE SMOOTH",
"321 17 LINE",
"321 0 LINE",
"553 0 LINE",
"553 17 LINE"
);
}
);
width = 578;
},
{
layerId = "6701A4D5-8A3D-41DD-8AA0-CFF5D98C5FFE";
paths = (
{
closed = 1;
nodes = (
"520 17 OFFCURVE",
"501 23 OFFCURVE",
"465 68 CURVE SMOOTH",
"330 240 LINE",
"414 336 LINE SMOOTH",
"468 398 OFFCURVE",
"498 408 OFFCURVE",
"536 408 CURVE",
"536 426 LINE",
"360 426 LINE",
"360 408 LINE",
"390 408 OFFCURVE",
"404 399 OFFCURVE",
"404 379 CURVE SMOOTH",
"404 364 OFFCURVE",
"399 352 OFFCURVE",
"391 341 CURVE",
"387 336 OFFCURVE",
"379 326 OFFCURVE",
"368 312 CURVE SMOOTH",
"356 298 OFFCURVE",
"339 279 OFFCURVE",
"319 255 CURVE",
"244 348 LINE",
"232 363 OFFCURVE",
"226 375 OFFCURVE",
"226 385 CURVE SMOOTH",
"226 401 OFFCURVE",
"241 408 OFFCURVE",
"270 408 CURVE SMOOTH",
"286 408 LINE",
"286 426 LINE",
"35 426 LINE",
"35 408 LINE",
"51 408 LINE SMOOTH",
"85 408 OFFCURVE",
"109 388 OFFCURVE",
"139 350 CURVE SMOOTH",
"262 194 LINE",
"182 102 LINE SMOOTH",
"125 35 OFFCURVE",
"79 17 OFFCURVE",
"35 17 CURVE",
"35 0 LINE",
"226 0 LINE",
"226 17 LINE",
"213 17 LINE SMOOTH",
"193 17 OFFCURVE",
"177 28 OFFCURVE",
"177 46 CURVE SMOOTH",
"177 61 OFFCURVE",
"191 84 OFFCURVE",
"219 115 CURVE SMOOTH",
"274 178 LINE",
"370 59 LINE",
"374 52 OFFCURVE",
"376 45 OFFCURVE",
"376 39 CURVE SMOOTH",
"376 26 OFFCURVE",
"363 17 OFFCURVE",
"346 17 CURVE SMOOTH",
"321 17 LINE",
"321 0 LINE",
"553 0 LINE",
"553 17 LINE"
);
}
);
width = 600;
}
);
note = x;
unicode = 0078;
},
{
glyphname = y;
lastChange = "2017-04-01 19:34:41 +0000";
layers = (
{
layerId = "9ECE4C5B-AE6E-45F8-855F-54F501A6946D";
paths = (
{
closed = 1;
nodes = (
"369 427 LINE",
"369 409 LINE",
"388 409 LINE SMOOTH",
"419 409 OFFCURVE",
"442 389 OFFCURVE",
"442 354 CURVE SMOOTH",
"442 341 OFFCURVE",
"438 326 OFFCURVE",
"432 310 CURVE SMOOTH",
"336 80 LINE",
"201 374 LINE SMOOTH",
"198 382 OFFCURVE",
"196 388 OFFCURVE",
"196 393 CURVE SMOOTH",
"196 404 OFFCURVE",
"206 409 OFFCURVE",
"228 409 CURVE SMOOTH",
"265 409 LINE",
"265 427 LINE",
"36 427 LINE",
"36 409 LINE",
"57 409 LINE SMOOTH",
"85 409 OFFCURVE",
"96 403 OFFCURVE",
"108 376 CURVE SMOOTH",
"293 -24 LINE",
"249 -129 LINE SMOOTH",
"226 -188 OFFCURVE",
"187 -227 OFFCURVE",
"145 -227 CURVE SMOOTH",
"142 -227 OFFCURVE",
"138 -227 OFFCURVE",
"133 -226 CURVE",
"151 -211 OFFCURVE",
"161 -194 OFFCURVE",
"161 -174 CURVE SMOOTH",
"161 -146 OFFCURVE",
"139 -123 OFFCURVE",
"106 -123 CURVE SMOOTH",
"77 -123 OFFCURVE",
"54 -149 OFFCURVE",
"54 -177 CURVE SMOOTH",
"54 -221 OFFCURVE",
"88 -244 OFFCURVE",
"131 -244 CURVE SMOOTH",
"158 -244 OFFCURVE",
"180 -239 OFFCURVE",
"198 -228 CURVE SMOOTH",
"232 -206 OFFCURVE",
"250 -172 OFFCURVE",
"281 -99 CURVE SMOOTH",
"449 302 LINE SMOOTH",
"482 381 OFFCURVE",
"505 411 OFFCURVE",
"562 411 CURVE",
"562 427 LINE"
);
}
);
width = 578;
},
{
layerId = "6701A4D5-8A3D-41DD-8AA0-CFF5D98C5FFE";
paths = (
{
closed = 1;
nodes = (
"369 427 LINE",
"369 409 LINE",
"388 409 LINE SMOOTH",
"419 409 OFFCURVE",
"442 389 OFFCURVE",
"442 354 CURVE SMOOTH",
"442 341 OFFCURVE",
"438 326 OFFCURVE",
"432 310 CURVE SMOOTH",
"336 80 LINE",
"201 374 LINE SMOOTH",
"198 382 OFFCURVE",
"196 388 OFFCURVE",
"196 393 CURVE SMOOTH",
"196 404 OFFCURVE",
"206 409 OFFCURVE",
"228 409 CURVE SMOOTH",
"265 409 LINE",
"265 427 LINE",
"36 427 LINE",
"36 409 LINE",
"57 409 LINE SMOOTH",
"85 409 OFFCURVE",
"96 403 OFFCURVE",
"108 376 CURVE SMOOTH",
"293 -24 LINE",
"249 -129 LINE SMOOTH",
"226 -188 OFFCURVE",
"187 -227 OFFCURVE",
"145 -227 CURVE SMOOTH",
"142 -227 OFFCURVE",
"138 -227 OFFCURVE",
"133 -226 CURVE",
"151 -211 OFFCURVE",
"161 -194 OFFCURVE",
"161 -174 CURVE SMOOTH",
"161 -146 OFFCURVE",
"139 -123 OFFCURVE",
"106 -123 CURVE SMOOTH",
"77 -123 OFFCURVE",
"54 -149 OFFCURVE",
"54 -177 CURVE SMOOTH",
"54 -221 OFFCURVE",
"88 -244 OFFCURVE",
"131 -244 CURVE SMOOTH",
"158 -244 OFFCURVE",
"180 -239 OFFCURVE",
"198 -228 CURVE SMOOTH",
"232 -206 OFFCURVE",
"250 -172 OFFCURVE",
"281 -99 CURVE SMOOTH",
"449 302 LINE SMOOTH",
"482 381 OFFCURVE",
"505 411 OFFCURVE",
"562 411 CURVE",
"562 427 LINE"
);
}
);
width = 600;
}
);
note = y;
unicode = 0079;
},
{
glyphname = z;
lastChange = "2017-04-01 19:34:48 +0000";
layers = (
{
layerId = "9ECE4C5B-AE6E-45F8-855F-54F501A6946D";
paths = (
{
closed = 1;
nodes = (
"318 16 LINE",
"141 16 LINE",
"409 426 LINE",
"62 426 LINE",
"43 270 LINE",
"51 270 LINE",
"144 408 LINE",
"303 408 LINE",
"33 0 LINE",
"407 0 LINE",
"420 178 LINE",
"412 178 LINE"
);
}
);
width = 462;
},
{
layerId = "6701A4D5-8A3D-41DD-8AA0-CFF5D98C5FFE";
paths = (
{
closed = 1;
nodes = (
"318 16 LINE",
"141 16 LINE",
"409 426 LINE",
"62 426 LINE",
"43 270 LINE",
"51 270 LINE",
"144 408 LINE",
"303 408 LINE",
"33 0 LINE",
"407 0 LINE",
"420 178 LINE",
"412 178 LINE"
);
}
);
width = 600;
}
);
note = z;
unicode = 007A;
},
{
color = 1;
glyphname = "an-georgian";
lastChange = "2017-04-01 19:12:20 +0000";
layers = (
{
backgroundImage = {
crop = "{{0, 0}, {838, 503}}";
imagePath = links/an.jpg;
locked = "1";
transform = "{1.819, 0.006, -0.006, 1.819, -1082, -118}";
};
layerId = "9ECE4C5B-AE6E-45F8-855F-54F501A6946D";
paths = (
{
closed = 1;
nodes = (
"116 312 OFFCURVE",
"309 318 OFFCURVE",
"309 149 CURVE SMOOTH",
"309 86 OFFCURVE",
"280 3 OFFCURVE",
"197 3 CURVE SMOOTH",
"160 3 OFFCURVE",
"112 33 OFFCURVE",
"112 63 CURVE SMOOTH",
"112 90 OFFCURVE",
"151 91 OFFCURVE",
"151 129 CURVE SMOOTH",
"151 166 OFFCURVE",
"127 179 OFFCURVE",
"107 179 CURVE SMOOTH",
"70 179 OFFCURVE",
"50 144 OFFCURVE",
"50 113 CURVE SMOOTH",
"50 46 OFFCURVE",
"106 -12 OFFCURVE",
"196 -12 CURVE SMOOTH",
"309 -12 OFFCURVE",
"383 68 OFFCURVE",
"383 155 CURVE SMOOTH",
"383 338 OFFCURVE",
"135 331 OFFCURVE",
"135 507 CURVE",
"116 505 LINE"
);
}
);
width = 433;
},
{
background = {
paths = (
{
closed = 1;
nodes = (
"118 312 OFFCURVE",
"311 318 OFFCURVE",
"311 149 CURVE SMOOTH",
"311 86 OFFCURVE",
"282 3 OFFCURVE",
"199 3 CURVE SMOOTH",
"162 3 OFFCURVE",
"114 33 OFFCURVE",
"114 63 CURVE SMOOTH",
"114 90 OFFCURVE",
"153 91 OFFCURVE",
"153 129 CURVE SMOOTH",
"153 166 OFFCURVE",
"129 179 OFFCURVE",
"109 179 CURVE SMOOTH",
"72 179 OFFCURVE",
"52 144 OFFCURVE",
"52 113 CURVE SMOOTH",
"52 46 OFFCURVE",
"108 -12 OFFCURVE",
"198 -12 CURVE SMOOTH",
"311 -12 OFFCURVE",
"385 68 OFFCURVE",
"385 155 CURVE SMOOTH",
"385 338 OFFCURVE",
"137 331 OFFCURVE",
"137 507 CURVE",
"118 505 LINE"
);
}
);
};
layerId = "6701A4D5-8A3D-41DD-8AA0-CFF5D98C5FFE";
paths = (
{
closed = 1;
nodes = (
"118 312 OFFCURVE",
"281 328 OFFCURVE",
"281 149 CURVE SMOOTH",
"281 97 OFFCURVE",
"274 18 OFFCURVE",
"211 18 CURVE SMOOTH",
"164 18 OFFCURVE",
"142 44 OFFCURVE",
"142 78 CURVE SMOOTH",
"142 105 OFFCURVE",
"170 106 OFFCURVE",
"170 144 CURVE SMOOTH",
"170 186 OFFCURVE",
"139 204 OFFCURVE",
"107 204 CURVE SMOOTH",
"70 204 OFFCURVE",
"40 174 OFFCURVE",
"40 123 CURVE SMOOTH",
"40 36 OFFCURVE",
"112 -12 OFFCURVE",
"211 -12 CURVE SMOOTH",
"305 -12 OFFCURVE",
"415 18 OFFCURVE",
"415 155 CURVE SMOOTH",
"415 358 OFFCURVE",
"148 330 OFFCURVE",
"148 506 CURVE",
"118 505 LINE"
);
}
);
width = 455;
}
);
rightKerningGroup = "an-georgian";
unicode = 10D0;
},
{
color = 1;
glyphname = "ban-georgian";
lastChange = "2017-04-01 19:17:10 +0000";
layers = (
{
backgroundImage = {
crop = "{{0, 0}, {1007, 680}}";
imagePath = links/ghan.jpg;
locked = "1";
transform = "{1.825, -0.034, 0.034, 1.825, -1313, -403}";
};
layerId = "9ECE4C5B-AE6E-45F8-855F-54F501A6946D";
paths = (
{
closed = 1;
nodes = (
"50 85 OFFCURVE",
"144 -12 OFFCURVE",
"251 -12 CURVE SMOOTH",
"358 -12 OFFCURVE",
"452 85 OFFCURVE",
"452 205 CURVE SMOOTH",
"452 319 OFFCURVE",
"363 414 OFFCURVE",
"262 420 CURVE",
"262 422 LINE",
"347 469 OFFCURVE",
"380 514 OFFCURVE",
"380 568 CURVE SMOOTH",
"380 617 OFFCURVE",
"335 649 OFFCURVE",
"247 649 CURVE SMOOTH",
"178 649 OFFCURVE",
"123 652 OFFCURVE",
"123 722 CURVE",
"108 722 LINE",
"108 709 LINE",
"108 610 OFFCURVE",
"146 579 OFFCURVE",
"241 577 CURVE SMOOTH",
"284 576 OFFCURVE",
"333 568 OFFCURVE",
"333 530 CURVE SMOOTH",
"333 481 OFFCURVE",
"260 425 OFFCURVE",
"230 418 CURVE SMOOTH",
"137 396 OFFCURVE",
"50 320 OFFCURVE",
"50 205 CURVE SMOOTH"
);
},
{
closed = 1;
nodes = (
"130 335 OFFCURVE",
"176 405 OFFCURVE",
"251 405 CURVE SMOOTH",
"326 405 OFFCURVE",
"372 335 OFFCURVE",
"372 205 CURVE SMOOTH",
"372 74 OFFCURVE",
"326 3 OFFCURVE",
"251 3 CURVE SMOOTH",
"176 3 OFFCURVE",
"130 74 OFFCURVE",
"130 205 CURVE SMOOTH"
);
}
);
width = 502;
},
{
associatedMasterId = "9ECE4C5B-AE6E-45F8-855F-54F501A6946D";
backgroundImage = {
crop = "{{0, 0}, {816, 545}}";
imagePath = links/ban.jpg;
locked = "1";
transform = "{1.822, 0, 0, 1.822, 10, -125}";
};
layerId = "FD389592-B55C-44F1-B1B6-6BF3AD0DCF31";
name = "Regular Apr 12 16, 19:32";
paths = (
{
closed = 1;
nodes = (
"60 85 OFFCURVE",
"154 -12 OFFCURVE",
"261 -12 CURVE SMOOTH",
"368 -12 OFFCURVE",
"462 85 OFFCURVE",
"462 205 CURVE SMOOTH",
"462 319 OFFCURVE",
"370 412 OFFCURVE",
"269 418 CURVE",
"267 420 OFFCURVE",
"264 423 OFFCURVE",
"270 427 CURVE SMOOTH",
"278 432 OFFCURVE",
"292 441 OFFCURVE",
"306 450 CURVE SMOOTH",
"326 463 OFFCURVE",
"390 494 OFFCURVE",
"390 577 CURVE SMOOTH",
"390 617 OFFCURVE",
"345 650 OFFCURVE",
"284 650 CURVE SMOOTH",
"243 650 OFFCURVE",
"162 653 OFFCURVE",
"147 671 CURVE SMOOTH",
"130 692 OFFCURVE",
"134 714 OFFCURVE",
"133 740 CURVE",
"118 740 LINE",
"118 732 OFFCURVE",
"117 721 OFFCURVE",
"117 709 CURVE SMOOTH",
"117 677 OFFCURVE",
"121 636 OFFCURVE",
"142 611 CURVE SMOOTH",
"173 574 OFFCURVE",
"208 570 OFFCURVE",
"251 569 CURVE SMOOTH",
"294 568 OFFCURVE",
"343 568 OFFCURVE",
"343 522 CURVE SMOOTH",
"343 484 OFFCURVE",
"264 437 OFFCURVE",
"240 418 CURVE",
"141 404 OFFCURVE",
"60 320 OFFCURVE",
"60 205 CURVE SMOOTH"
);
},
{
closed = 1;
nodes = (
"140 335 OFFCURVE",
"186 403 OFFCURVE",
"261 403 CURVE SMOOTH",
"336 403 OFFCURVE",
"382 335 OFFCURVE",
"382 205 CURVE SMOOTH",
"382 74 OFFCURVE",
"336 3 OFFCURVE",
"261 3 CURVE SMOOTH",
"186 3 OFFCURVE",
"140 74 OFFCURVE",
"140 205 CURVE SMOOTH"
);
}
);
width = 522;
},
{
associatedMasterId = "9ECE4C5B-AE6E-45F8-855F-54F501A6946D";
backgroundImage = {
crop = "{{0, 0}, {816, 545}}";
imagePath = links/ban.jpg;
locked = "1";
transform = "{1.822, 0, 0, 1.822, 10, -125}";
};
layerId = "57874CCD-D0C2-4DAF-BB4B-73B2E95711EB";
name = "Regular Apr 12 16, 19:35";
paths = (
{
closed = 1;
nodes = (
"60 85 OFFCURVE",
"154 -12 OFFCURVE",
"261 -12 CURVE SMOOTH",
"368 -12 OFFCURVE",
"462 85 OFFCURVE",
"462 205 CURVE SMOOTH",
"462 319 OFFCURVE",
"370 414 OFFCURVE",
"269 420 CURVE",
"269 422 LINE",
"354 475 OFFCURVE",
"390 514 OFFCURVE",
"390 577 CURVE SMOOTH",
"390 617 OFFCURVE",
"345 650 OFFCURVE",
"284 650 CURVE SMOOTH",
"243 650 OFFCURVE",
"162 653 OFFCURVE",
"147 671 CURVE SMOOTH",
"130 692 OFFCURVE",
"134 714 OFFCURVE",
"133 740 CURVE",
"118 740 LINE",
"118 732 OFFCURVE",
"117 721 OFFCURVE",
"117 709 CURVE SMOOTH",
"117 677 OFFCURVE",
"121 636 OFFCURVE",
"142 611 CURVE SMOOTH",
"173 574 OFFCURVE",
"208 570 OFFCURVE",
"251 569 CURVE SMOOTH",
"294 568 OFFCURVE",
"343 568 OFFCURVE",
"343 522 CURVE SMOOTH",
"343 484 OFFCURVE",
"270 425 OFFCURVE",
"240 418 CURVE SMOOTH",
"147 396 OFFCURVE",
"60 320 OFFCURVE",
"60 205 CURVE SMOOTH"
);
},
{
closed = 1;
nodes = (
"140 335 OFFCURVE",
"186 405 OFFCURVE",
"261 405 CURVE SMOOTH",
"336 405 OFFCURVE",
"382 335 OFFCURVE",
"382 205 CURVE SMOOTH",
"382 74 OFFCURVE",
"336 3 OFFCURVE",
"261 3 CURVE SMOOTH",
"186 3 OFFCURVE",
"140 74 OFFCURVE",
"140 205 CURVE SMOOTH"
);
}
);
width = 522;
},
{
background = {
paths = (
{
closed = 1;
nodes = (
"60 85 OFFCURVE",
"154 -12 OFFCURVE",
"261 -12 CURVE SMOOTH",
"368 -12 OFFCURVE",
"462 85 OFFCURVE",
"462 205 CURVE SMOOTH",
"462 319 OFFCURVE",
"373 414 OFFCURVE",
"272 420 CURVE",
"272 422 LINE",
"357 469 OFFCURVE",
"390 514 OFFCURVE",
"390 568 CURVE SMOOTH",
"390 617 OFFCURVE",
"345 649 OFFCURVE",
"257 649 CURVE SMOOTH",
"188 649 OFFCURVE",
"133 652 OFFCURVE",
"133 721 CURVE",
"133 722 LINE",
"118 722 LINE",
"118 709 LINE",
"118 610 OFFCURVE",
"156 579 OFFCURVE",
"251 577 CURVE SMOOTH",
"294 576 OFFCURVE",
"343 568 OFFCURVE",
"343 530 CURVE SMOOTH",
"343 481 OFFCURVE",
"270 425 OFFCURVE",
"240 418 CURVE SMOOTH",
"147 396 OFFCURVE",
"60 320 OFFCURVE",
"60 205 CURVE SMOOTH"
);
},
{
closed = 1;
nodes = (
"140 335 OFFCURVE",
"186 405 OFFCURVE",
"261 405 CURVE SMOOTH",
"336 405 OFFCURVE",
"382 335 OFFCURVE",
"382 205 CURVE SMOOTH",
"382 74 OFFCURVE",
"336 3 OFFCURVE",
"261 3 CURVE SMOOTH",
"186 3 OFFCURVE",
"140 74 OFFCURVE",
"140 205 CURVE SMOOTH"
);
}
);
};
layerId = "6701A4D5-8A3D-41DD-8AA0-CFF5D98C5FFE";
paths = (
{
closed = 1;
nodes = (
"40 65 OFFCURVE",
"154 -15 OFFCURVE",
"261 -15 CURVE SMOOTH",
"368 -15 OFFCURVE",
"482 65 OFFCURVE",
"482 203 CURVE SMOOTH",
"482 339 OFFCURVE",
"389 415 OFFCURVE",
"288 421 CURVE",
"288 423 LINE",
"356 460 OFFCURVE",
"399 507 OFFCURVE",
"399 568 CURVE SMOOTH",
"399 628 OFFCURVE",
"345 662 OFFCURVE",
"257 662 CURVE SMOOTH",
"188 662 OFFCURVE",
"140 655 OFFCURVE",
"140 725 CURVE",
"110 725 LINE",
"110 697 LINE",
"110 596 OFFCURVE",
"156 562 OFFCURVE",
"233 560 CURVE SMOOTH",
"307 559 OFFCURVE",
"335 555 OFFCURVE",
"335 515 CURVE SMOOTH",
"335 474 OFFCURVE",
"257 426 OFFCURVE",
"227 419 CURVE SMOOTH",
"134 397 OFFCURVE",
"40 340 OFFCURVE",
"40 203 CURVE SMOOTH"
);
},
{
closed = 1;
nodes = (
"180 299 OFFCURVE",
"186 391 OFFCURVE",
"261 391 CURVE SMOOTH",
"336 391 OFFCURVE",
"342 299 OFFCURVE",
"342 203 CURVE SMOOTH",
"342 107 OFFCURVE",
"336 15 OFFCURVE",
"261 15 CURVE SMOOTH",
"186 15 OFFCURVE",
"180 107 OFFCURVE",
"180 203 CURVE SMOOTH"
);
}
);
width = 522;
}
);
unicode = 10D1;
},
{
color = 1;
glyphname = "gan-georgian";
lastChange = "2017-04-01 18:39:42 +0000";
layers = (
{
background = {
paths = (
{
closed = 1;
nodes = (
"50 -208 OFFCURVE",
"150 -312 OFFCURVE",
"257 -312 CURVE SMOOTH",
"364 -312 OFFCURVE",
"464 -208 OFFCURVE",
"464 -88 CURVE SMOOTH",
"464 26 OFFCURVE",
"361 138 OFFCURVE",
"260 144 CURVE",
"260 146 LINE",
"329 183 OFFCURVE",
"381 232 OFFCURVE",
"381 314 CURVE SMOOTH",
"381 382 OFFCURVE",
"320 432 OFFCURVE",
"237 432 CURVE SMOOTH",
"171 432 OFFCURVE",
"123 381 OFFCURVE",
"123 323 CURVE SMOOTH",
"123 295 OFFCURVE",
"143 262 OFFCURVE",
"176 262 CURVE SMOOTH",
"201 262 OFFCURVE",
"218 273 OFFCURVE",
"218 300 CURVE SMOOTH",
"218 348 OFFCURVE",
"161 329 OFFCURVE",
"161 371 CURVE SMOOTH",
"161 401 OFFCURVE",
"197 417 OFFCURVE",
"230 417 CURVE SMOOTH",
"290 417 OFFCURVE",
"319 361 OFFCURVE",
"319 307 CURVE SMOOTH",
"319 208 OFFCURVE",
"297 171 OFFCURVE",
"230 144 CURVE SMOOTH",
"124 101 OFFCURVE",
"50 21 OFFCURVE",
"50 -88 CURVE SMOOTH"
);
},
{
closed = 1;
nodes = (
"130 42 OFFCURVE",
"175 130 OFFCURVE",
"257 130 CURVE SMOOTH",
"339 130 OFFCURVE",
"384 42 OFFCURVE",
"384 -88 CURVE SMOOTH",
"384 -219 OFFCURVE",
"332 -297 OFFCURVE",
"257 -297 CURVE SMOOTH",
"182 -297 OFFCURVE",
"130 -219 OFFCURVE",
"130 -88 CURVE SMOOTH"
);
}
);
};
backgroundImage = {
crop = "{{0, 0}, {933, 712}}";
imagePath = links/gan.jpg;
locked = "1";
transform = "{1.823, 0, 0, 1.823, -1184, -433}";
};
layerId = "9ECE4C5B-AE6E-45F8-855F-54F501A6946D";
paths = (
{
closed = 1;
nodes = (
"50 -208 OFFCURVE",
"150 -312 OFFCURVE",
"257 -312 CURVE SMOOTH",
"364 -312 OFFCURVE",
"464 -208 OFFCURVE",
"464 -88 CURVE SMOOTH",
"464 26 OFFCURVE",
"382 139 OFFCURVE",
"260 144 CURVE",
"260 146 LINE",
"326 180 OFFCURVE",
"381 223 OFFCURVE",
"381 314 CURVE SMOOTH",
"381 382 OFFCURVE",
"320 432 OFFCURVE",
"237 432 CURVE SMOOTH",
"171 432 OFFCURVE",
"123 381 OFFCURVE",
"123 323 CURVE SMOOTH",
"123 295 OFFCURVE",
"143 262 OFFCURVE",
"176 262 CURVE SMOOTH",
"201 262 OFFCURVE",
"218 273 OFFCURVE",
"218 300 CURVE SMOOTH",
"218 348 OFFCURVE",
"161 329 OFFCURVE",
"161 371 CURVE SMOOTH",
"161 401 OFFCURVE",
"197 417 OFFCURVE",
"230 417 CURVE SMOOTH",
"290 417 OFFCURVE",
"319 361 OFFCURVE",
"319 307 CURVE SMOOTH",
"319 208 OFFCURVE",
"297 171 OFFCURVE",
"230 144 CURVE SMOOTH",
"124 101 OFFCURVE",
"50 21 OFFCURVE",
"50 -88 CURVE SMOOTH"
);
},
{
closed = 1;
nodes = (
"130 42 OFFCURVE",
"175 130 OFFCURVE",
"257 130 CURVE SMOOTH",
"339 130 OFFCURVE",
"384 42 OFFCURVE",
"384 -88 CURVE SMOOTH",
"384 -219 OFFCURVE",
"332 -297 OFFCURVE",
"257 -297 CURVE SMOOTH",
"182 -297 OFFCURVE",
"130 -219 OFFCURVE",
"130 -88 CURVE SMOOTH"
);
}
);
width = 514;
},
{
background = {
paths = (
{
closed = 1;
nodes = (
"60 -208 OFFCURVE",
"160 -312 OFFCURVE",
"267 -312 CURVE SMOOTH",
"374 -312 OFFCURVE",
"474 -208 OFFCURVE",
"474 -88 CURVE SMOOTH",
"474 26 OFFCURVE",
"392 139 OFFCURVE",
"270 144 CURVE",
"270 146 LINE",
"336 180 OFFCURVE",
"391 223 OFFCURVE",
"391 314 CURVE SMOOTH",
"391 382 OFFCURVE",
"330 432 OFFCURVE",
"247 432 CURVE SMOOTH",
"181 432 OFFCURVE",
"133 381 OFFCURVE",
"133 323 CURVE SMOOTH",
"133 295 OFFCURVE",
"153 262 OFFCURVE",
"186 262 CURVE SMOOTH",
"211 262 OFFCURVE",
"228 273 OFFCURVE",
"228 300 CURVE SMOOTH",
"228 348 OFFCURVE",
"171 329 OFFCURVE",
"171 371 CURVE SMOOTH",
"171 401 OFFCURVE",
"207 417 OFFCURVE",
"240 417 CURVE SMOOTH",
"300 417 OFFCURVE",
"329 361 OFFCURVE",
"329 307 CURVE SMOOTH",
"329 208 OFFCURVE",
"307 171 OFFCURVE",
"240 144 CURVE SMOOTH",
"134 101 OFFCURVE",
"60 21 OFFCURVE",
"60 -88 CURVE SMOOTH"
);
},
{
closed = 1;
nodes = (
"140 42 OFFCURVE",
"185 130 OFFCURVE",
"267 130 CURVE SMOOTH",
"349 130 OFFCURVE",
"394 42 OFFCURVE",
"394 -88 CURVE SMOOTH",
"394 -219 OFFCURVE",
"342 -297 OFFCURVE",
"267 -297 CURVE SMOOTH",
"192 -297 OFFCURVE",
"140 -219 OFFCURVE",
"140 -88 CURVE SMOOTH"
);
}
);
};
layerId = "6701A4D5-8A3D-41DD-8AA0-CFF5D98C5FFE";
paths = (
{
closed = 1;
nodes = (
"40 -238 OFFCURVE",
"160 -315 OFFCURVE",
"267 -315 CURVE SMOOTH",
"374 -315 OFFCURVE",
"494 -238 OFFCURVE",
"494 -85 CURVE SMOOTH",
"494 52 OFFCURVE",
"404 140 OFFCURVE",
"282 145 CURVE",
"282 147 LINE",
"348 172 OFFCURVE",
"421 204 OFFCURVE",
"421 306 CURVE SMOOTH",
"421 410 OFFCURVE",
"330 435 OFFCURVE",
"247 435 CURVE SMOOTH",
"181 435 OFFCURVE",
"116 404 OFFCURVE",
"116 327 CURVE SMOOTH",
"116 277 OFFCURVE",
"147 251 OFFCURVE",
"186 251 CURVE SMOOTH",
"218 251 OFFCURVE",
"238 271 OFFCURVE",
"238 304 CURVE SMOOTH",
"238 341 OFFCURVE",
"191 332 OFFCURVE",
"191 368 CURVE SMOOTH",
"191 386 OFFCURVE",
"207 405 OFFCURVE",
"241 405 CURVE SMOOTH",
"291 405 OFFCURVE",
"309 361 OFFCURVE",
"309 299 CURVE SMOOTH",
"309 231 OFFCURVE",
"291 160 OFFCURVE",
"236 144 CURVE SMOOTH",
"173 126 OFFCURVE",
"40 80 OFFCURVE",
"40 -85 CURVE SMOOTH"
);
},
{
closed = 1;
nodes = (
"180 35 OFFCURVE",
"185 115 OFFCURVE",
"267 115 CURVE SMOOTH",
"349 115 OFFCURVE",
"354 35 OFFCURVE",
"354 -85 CURVE SMOOTH",
"354 -206 OFFCURVE",
"342 -285 OFFCURVE",
"267 -285 CURVE SMOOTH",
"192 -285 OFFCURVE",
"180 -206 OFFCURVE",
"180 -85 CURVE SMOOTH"
);
}
);
width = 534;
}
);
unicode = 10D2;
},
{
color = 1;
glyphname = "don-georgian";
lastChange = "2017-04-01 19:00:38 +0000";
layers = (
{
backgroundImage = {
crop = "{{0, 0}, {1100, 736}}";
imagePath = links/don1.jpg;
locked = "1";
transform = "{1.828, 0, 0, 1.828, -567, -495}";
};
layerId = "9ECE4C5B-AE6E-45F8-855F-54F501A6946D";
paths = (
{
closed = 1;
nodes = (
"50 100 OFFCURVE",
"157 21 OFFCURVE",
"282 -34 CURVE",
"282 -36 LINE",
"186 -36 OFFCURVE",
"137 -71 OFFCURVE",
"137 -117 CURVE SMOOTH",
"137 -151 OFFCURVE",
"158 -179 OFFCURVE",
"198 -179 CURVE SMOOTH",
"228 -179 OFFCURVE",
"248 -162 OFFCURVE",
"248 -132 CURVE SMOOTH",
"248 -107 OFFCURVE",
"230 -91 OFFCURVE",
"209 -91 CURVE SMOOTH",
"203 -91 OFFCURVE",
"199 -92 OFFCURVE",
"196 -93 CURVE",
"195 -93 LINE",
"199 -76 OFFCURVE",
"220 -61 OFFCURVE",
"280 -61 CURVE SMOOTH",
"332 -61 OFFCURVE",
"409 -96 OFFCURVE",
"457 -117 CURVE SMOOTH",
"550 -158 OFFCURVE",
"654 -237 OFFCURVE",
"711 -312 CURVE",
"735 -296 LINE",
"654 -200 OFFCURVE",
"552 -136 OFFCURVE",
"451 -91 CURVE SMOOTH",
"248 0 OFFCURVE",
"130 40 OFFCURVE",
"130 222 CURVE SMOOTH",
"130 346 OFFCURVE",
"186 414 OFFCURVE",
"276 414 CURVE SMOOTH",
"320 414 OFFCURVE",
"376 377 OFFCURVE",
"395 326 CURVE",
"409 348 LINE",
"381 392 OFFCURVE",
"331 432 OFFCURVE",
"253 432 CURVE SMOOTH",
"174 432 OFFCURVE",
"50 369 OFFCURVE",
"50 225 CURVE SMOOTH"
);
},
{
closed = 1;
nodes = (
"350 95 OFFCURVE",
"443 -11 OFFCURVE",
"550 -11 CURVE SMOOTH",
"657 -11 OFFCURVE",
"750 95 OFFCURVE",
"750 215 CURVE SMOOTH",
"750 335 OFFCURVE",
"657 432 OFFCURVE",
"550 432 CURVE SMOOTH",
"443 432 OFFCURVE",
"350 335 OFFCURVE",
"350 215 CURVE SMOOTH"
);
},
{
closed = 1;
nodes = (
"430 346 OFFCURVE",
"474 417 OFFCURVE",
"550 417 CURVE SMOOTH",
"626 417 OFFCURVE",
"670 346 OFFCURVE",
"670 215 CURVE SMOOTH",
"670 83 OFFCURVE",
"626 4 OFFCURVE",
"550 4 CURVE SMOOTH",
"474 4 OFFCURVE",
"430 83 OFFCURVE",
"430 215 CURVE SMOOTH"
);
}
);
width = 800;
},
{
background = {
paths = (
{
closed = 1;
nodes = (
"60 100 OFFCURVE",
"167 21 OFFCURVE",
"292 -34 CURVE",
"292 -36 LINE",
"196 -36 OFFCURVE",
"147 -71 OFFCURVE",
"147 -117 CURVE SMOOTH",
"147 -151 OFFCURVE",
"168 -179 OFFCURVE",
"208 -179 CURVE SMOOTH",
"238 -179 OFFCURVE",
"258 -162 OFFCURVE",
"258 -132 CURVE SMOOTH",
"258 -107 OFFCURVE",
"240 -91 OFFCURVE",
"219 -91 CURVE SMOOTH",
"213 -91 OFFCURVE",
"209 -92 OFFCURVE",
"206 -93 CURVE",
"205 -93 LINE",
"209 -76 OFFCURVE",
"230 -61 OFFCURVE",
"290 -61 CURVE SMOOTH",
"342 -61 OFFCURVE",
"419 -96 OFFCURVE",
"467 -117 CURVE SMOOTH",
"560 -158 OFFCURVE",
"664 -237 OFFCURVE",
"721 -312 CURVE",
"745 -296 LINE",
"664 -200 OFFCURVE",
"562 -136 OFFCURVE",
"461 -91 CURVE SMOOTH",
"258 0 OFFCURVE",
"140 40 OFFCURVE",
"140 222 CURVE SMOOTH",
"140 346 OFFCURVE",
"196 414 OFFCURVE",
"286 414 CURVE SMOOTH",
"330 414 OFFCURVE",
"386 377 OFFCURVE",
"405 326 CURVE",
"419 348 LINE",
"391 392 OFFCURVE",
"341 432 OFFCURVE",
"263 432 CURVE SMOOTH",
"184 432 OFFCURVE",
"60 369 OFFCURVE",
"60 225 CURVE SMOOTH"
);
},
{
closed = 1;
nodes = (
"360 95 OFFCURVE",
"453 -11 OFFCURVE",
"560 -11 CURVE SMOOTH",
"667 -11 OFFCURVE",
"760 95 OFFCURVE",
"760 215 CURVE SMOOTH",
"760 335 OFFCURVE",
"667 432 OFFCURVE",
"560 432 CURVE SMOOTH",
"453 432 OFFCURVE",
"360 335 OFFCURVE",
"360 215 CURVE SMOOTH"
);
},
{
closed = 1;
nodes = (
"440 346 OFFCURVE",
"484 417 OFFCURVE",
"560 417 CURVE SMOOTH",
"636 417 OFFCURVE",
"680 346 OFFCURVE",
"680 215 CURVE SMOOTH",
"680 83 OFFCURVE",
"636 4 OFFCURVE",
"560 4 CURVE SMOOTH",
"484 4 OFFCURVE",
"440 83 OFFCURVE",
"440 215 CURVE SMOOTH"
);
}
);
};
layerId = "6701A4D5-8A3D-41DD-8AA0-CFF5D98C5FFE";
paths = (
{
closed = 1;
nodes = (
"40 70 OFFCURVE",
"145 25 OFFCURVE",
"270 -30 CURVE",
"270 -32 LINE",
"180 -32 OFFCURVE",
"137 -64 OFFCURVE",
"137 -122 CURVE SMOOTH",
"137 -166 OFFCURVE",
"168 -192 OFFCURVE",
"208 -192 CURVE SMOOTH",
"245 -192 OFFCURVE",
"268 -168 OFFCURVE",
"268 -137 CURVE SMOOTH",
"268 -107 OFFCURVE",
"249 -92 OFFCURVE",
"228 -92 CURVE SMOOTH",
"222 -92 OFFCURVE",
"218 -93 OFFCURVE",
"215 -94 CURVE",
"214 -94 LINE",
"218 -77 OFFCURVE",
"239 -62 OFFCURVE",
"299 -62 CURVE SMOOTH",
"351 -62 OFFCURVE",
"425 -94 OFFCURVE",
"492 -130 CURVE SMOOTH",
"585 -180 OFFCURVE",
"663 -240 OFFCURVE",
"720 -315 CURVE",
"754 -289 LINE",
"673 -193 OFFCURVE",
"562 -116 OFFCURVE",
"461 -71 CURVE SMOOTH",
"258 20 OFFCURVE",
"180 61 OFFCURVE",
"180 222 CURVE SMOOTH",
"180 356 OFFCURVE",
"216 405 OFFCURVE",
"286 405 CURVE SMOOTH",
"330 405 OFFCURVE",
"376 377 OFFCURVE",
"395 326 CURVE",
"425 352 LINE",
"397 396 OFFCURVE",
"355 435 OFFCURVE",
"267 435 CURVE SMOOTH",
"164 435 OFFCURVE",
"40 388 OFFCURVE",
"40 225 CURVE SMOOTH"
);
},
{
closed = 1;
nodes = (
"340 75 OFFCURVE",
"453 -11 OFFCURVE",
"560 -11 CURVE SMOOTH",
"667 -11 OFFCURVE",
"780 75 OFFCURVE",
"780 215 CURVE SMOOTH",
"780 355 OFFCURVE",
"667 435 OFFCURVE",
"560 435 CURVE SMOOTH",
"453 435 OFFCURVE",
"340 355 OFFCURVE",
"340 215 CURVE SMOOTH"
);
},
{
closed = 1;
nodes = (
"480 341 OFFCURVE",
"484 405 OFFCURVE",
"560 405 CURVE SMOOTH",
"636 405 OFFCURVE",
"640 341 OFFCURVE",
"640 215 CURVE SMOOTH",
"640 88 OFFCURVE",
"636 19 OFFCURVE",
"560 19 CURVE SMOOTH",
"484 19 OFFCURVE",
"480 88 OFFCURVE",
"480 215 CURVE SMOOTH"
);
}
);
width = 820;
}
);
unicode = 10D3;
},
{
color = 1;
glyphname = "en-georgian";
lastChange = "2017-04-01 19:12:34 +0000";
layers = (
{
backgroundImage = {
crop = "{{0, 0}, {885, 730}}";
imagePath = links/en.jpg;
locked = "1";
transform = "{1.794, -0.052, 0.053, 1.83, -523, -380}";
};
layerId = "9ECE4C5B-AE6E-45F8-855F-54F501A6946D";
paths = (
{
closed = 1;
nodes = (
"50 -235 OFFCURVE",
"143 -312 OFFCURVE",
"250 -312 CURVE SMOOTH",
"357 -312 OFFCURVE",
"448 -215 OFFCURVE",
"448 -95 CURVE SMOOTH",
"448 230 LINE SMOOTH",
"448 305 OFFCURVE",
"405 432 OFFCURVE",
"266 432 CURVE SMOOTH",
"151 432 OFFCURVE",
"108 358 OFFCURVE",
"108 291 CURVE SMOOTH",
"108 260 OFFCURVE",
"130 224 OFFCURVE",
"166 224 CURVE SMOOTH",
"193 224 OFFCURVE",
"212 236 OFFCURVE",
"212 266 CURVE SMOOTH",
"212 318 OFFCURVE",
"150 297 OFFCURVE",
"150 344 CURVE SMOOTH",
"150 377 OFFCURVE",
"178 416 OFFCURVE",
"251 416 CURVE SMOOTH",
"363 416 OFFCURVE",
"373 296 OFFCURVE",
"373 243 CURVE SMOOTH",
"373 -95 LINE SMOOTH",
"373 -227 OFFCURVE",
"325 -297 OFFCURVE",
"250 -297 CURVE SMOOTH",
"174 -297 OFFCURVE",
"130 -247 OFFCURVE",
"130 -115 CURVE SMOOTH",
"130 -4 OFFCURVE",
"163 41 OFFCURVE",
"235 67 CURVE",
"231 81 LINE",
"135 61 OFFCURVE",
"50 -10 OFFCURVE",
"50 -115 CURVE SMOOTH"
);
}
);
width = 498;
},
{
background = {
paths = (
{
closed = 1;
nodes = (
"80 -235 OFFCURVE",
"173 -312 OFFCURVE",
"280 -312 CURVE SMOOTH",
"387 -312 OFFCURVE",
"478 -215 OFFCURVE",
"478 -95 CURVE SMOOTH",
"478 230 LINE SMOOTH",
"478 305 OFFCURVE",
"435 432 OFFCURVE",
"296 432 CURVE SMOOTH",
"181 432 OFFCURVE",
"138 358 OFFCURVE",
"138 291 CURVE SMOOTH",
"138 260 OFFCURVE",
"160 224 OFFCURVE",
"196 224 CURVE SMOOTH",
"223 224 OFFCURVE",
"242 236 OFFCURVE",
"242 266 CURVE SMOOTH",
"242 318 OFFCURVE",
"180 297 OFFCURVE",
"180 344 CURVE SMOOTH",
"180 377 OFFCURVE",
"208 416 OFFCURVE",
"281 416 CURVE SMOOTH",
"393 416 OFFCURVE",
"403 296 OFFCURVE",
"403 243 CURVE SMOOTH",
"403 -95 LINE SMOOTH",
"403 -227 OFFCURVE",
"355 -297 OFFCURVE",
"280 -297 CURVE SMOOTH",
"204 -297 OFFCURVE",
"160 -247 OFFCURVE",
"160 -115 CURVE SMOOTH",
"160 -4 OFFCURVE",
"193 41 OFFCURVE",
"265 67 CURVE",
"261 81 LINE",
"165 61 OFFCURVE",
"80 -10 OFFCURVE",
"80 -115 CURVE SMOOTH"
);
}
);
};
layerId = "6701A4D5-8A3D-41DD-8AA0-CFF5D98C5FFE";
paths = (
{
closed = 1;
nodes = (
"40 -265 OFFCURVE",
"165 -315 OFFCURVE",
"280 -315 CURVE SMOOTH",
"397 -315 OFFCURVE",
"498 -249 OFFCURVE",
"498 -69 CURVE SMOOTH",
"498 216 LINE SMOOTH",
"498 350 OFFCURVE",
"435 435 OFFCURVE",
"296 435 CURVE SMOOTH",
"141 435 OFFCURVE",
"108 361 OFFCURVE",
"108 305 CURVE SMOOTH",
"108 243 OFFCURVE",
"153 214 OFFCURVE",
"196 214 CURVE SMOOTH",
"231 214 OFFCURVE",
"252 230 OFFCURVE",
"252 266 CURVE SMOOTH",
"252 319 OFFCURVE",
"210 289 OFFCURVE",
"210 346 CURVE SMOOTH",
"210 359 OFFCURVE",
"214 405 OFFCURVE",
"287 405 CURVE SMOOTH",
"352 405 OFFCURVE",
"363 326 OFFCURVE",
"363 243 CURVE SMOOTH",
"363 -95 LINE SMOOTH",
"363 -218 OFFCURVE",
"355 -285 OFFCURVE",
"280 -285 CURVE SMOOTH",
"204 -285 OFFCURVE",
"180 -211 OFFCURVE",
"180 -115 CURVE SMOOTH",
"180 -29 OFFCURVE",
"193 26 OFFCURVE",
"265 60 CURVE",
"257 90 LINE",
"161 78 OFFCURVE",
"40 22 OFFCURVE",
"40 -115 CURVE SMOOTH"
);
}
);
width = 538;
}
);
unicode = 10D4;
},
{
color = 1;
glyphname = "vin-georgian";
lastChange = "2017-04-01 19:12:48 +0000";
layers = (
{
backgroundImage = {
crop = "{{0, 0}, {828, 577}}";
imagePath = links/kan.jpg;
locked = "1";
transform = "{1.842, -0.026, 0.026, 1.842, -17, -404}";
};
layerId = "9ECE4C5B-AE6E-45F8-855F-54F501A6946D";
paths = (
{
closed = 1;
nodes = (
"40 -247 OFFCURVE",
"125 -312 OFFCURVE",
"256 -312 CURVE SMOOTH",
"367 -312 OFFCURVE",
"475 -219 OFFCURVE",
"475 -104 CURVE SMOOTH",
"475 36 OFFCURVE",
"405 83 OFFCURVE",
"312 112 CURVE",
"312 114 LINE",
"342 128 OFFCURVE",
"448 175 OFFCURVE",
"448 280 CURVE SMOOTH",
"448 349 OFFCURVE",
"400 432 OFFCURVE",
"256 432 CURVE SMOOTH",
"142 432 OFFCURVE",
"86 347 OFFCURVE",
"86 280 CURVE SMOOTH",
"86 249 OFFCURVE",
"108 213 OFFCURVE",
"144 213 CURVE SMOOTH",
"171 213 OFFCURVE",
"190 225 OFFCURVE",
"190 255 CURVE SMOOTH",
"190 307 OFFCURVE",
"125 285 OFFCURVE",
"125 332 CURVE SMOOTH",
"125 365 OFFCURVE",
"169 417 OFFCURVE",
"242 417 CURVE SMOOTH",
"326 417 OFFCURVE",
"368 338 OFFCURVE",
"368 266 CURVE SMOOTH",
"368 148 OFFCURVE",
"315 108 OFFCURVE",
"181 104 CURVE",
"181 86 LINE",
"197 89 OFFCURVE",
"216 90 OFFCURVE",
"234 90 CURVE SMOOTH",
"329 90 OFFCURVE",
"395 16 OFFCURVE",
"395 -104 CURVE SMOOTH",
"395 -221 OFFCURVE",
"331 -297 OFFCURVE",
"256 -297 CURVE SMOOTH",
"180 -297 OFFCURVE",
"110 -243 OFFCURVE",
"110 -151 CURVE SMOOTH",
"110 -82 OFFCURVE",
"131 -36 OFFCURVE",
"181 -6 CURVE",
"176 6 LINE",
"131 -10 OFFCURVE",
"40 -50 OFFCURVE",
"40 -155 CURVE SMOOTH"
);
}
);
width = 515;
},
{
background = {
paths = (
{
closed = 1;
nodes = (
"72 -247 OFFCURVE",
"157 -312 OFFCURVE",
"288 -312 CURVE SMOOTH",
"399 -312 OFFCURVE",
"507 -219 OFFCURVE",
"507 -104 CURVE SMOOTH",
"507 36 OFFCURVE",
"437 83 OFFCURVE",
"344 112 CURVE",
"344 114 LINE",
"374 128 OFFCURVE",
"480 175 OFFCURVE",
"480 280 CURVE SMOOTH",
"480 349 OFFCURVE",
"432 432 OFFCURVE",
"288 432 CURVE SMOOTH",
"174 432 OFFCURVE",
"118 347 OFFCURVE",
"118 280 CURVE SMOOTH",
"118 249 OFFCURVE",
"140 213 OFFCURVE",
"176 213 CURVE SMOOTH",
"203 213 OFFCURVE",
"222 225 OFFCURVE",
"222 255 CURVE SMOOTH",
"222 307 OFFCURVE",
"157 285 OFFCURVE",
"157 332 CURVE SMOOTH",
"157 365 OFFCURVE",
"201 417 OFFCURVE",
"274 417 CURVE SMOOTH",
"358 417 OFFCURVE",
"400 338 OFFCURVE",
"400 266 CURVE SMOOTH",
"400 148 OFFCURVE",
"347 108 OFFCURVE",
"213 104 CURVE",
"213 86 LINE",
"229 89 OFFCURVE",
"248 90 OFFCURVE",
"266 90 CURVE SMOOTH",
"361 90 OFFCURVE",
"427 16 OFFCURVE",
"427 -104 CURVE SMOOTH",
"427 -221 OFFCURVE",
"363 -297 OFFCURVE",
"288 -297 CURVE SMOOTH",
"212 -297 OFFCURVE",
"142 -243 OFFCURVE",
"142 -151 CURVE SMOOTH",
"142 -82 OFFCURVE",
"163 -36 OFFCURVE",
"213 -6 CURVE",
"208 6 LINE",
"163 -10 OFFCURVE",
"72 -50 OFFCURVE",
"72 -155 CURVE SMOOTH"
);
}
);
};
layerId = "6701A4D5-8A3D-41DD-8AA0-CFF5D98C5FFE";
paths = (
{
closed = 1;
nodes = (
"40 -265 OFFCURVE",
"157 -315 OFFCURVE",
"280 -315 CURVE SMOOTH",
"399 -315 OFFCURVE",
"527 -264 OFFCURVE",
"527 -99 CURVE SMOOTH",
"527 51 OFFCURVE",
"437 89 OFFCURVE",
"344 112 CURVE",
"344 114 LINE",
"374 123 OFFCURVE",
"500 145 OFFCURVE",
"500 280 CURVE SMOOTH",
"500 369 OFFCURVE",
"432 435 OFFCURVE",
"288 435 CURVE SMOOTH",
"174 435 OFFCURVE",
"96 370 OFFCURVE",
"96 294 CURVE SMOOTH",
"96 232 OFFCURVE",
"127 203 OFFCURVE",
"180 203 CURVE SMOOTH",
"212 203 OFFCURVE",
"230 219 OFFCURVE",
"230 255 CURVE SMOOTH",
"230 307 OFFCURVE",
"185 285 OFFCURVE",
"185 332 CURVE SMOOTH",
"185 365 OFFCURVE",
"208 405 OFFCURVE",
"274 405 CURVE SMOOTH",
"344 405 OFFCURVE",
"360 338 OFFCURVE",
"360 266 CURVE SMOOTH",
"360 148 OFFCURVE",
"323 112 OFFCURVE",
"207 112 CURVE",
"207 82 LINE",
"223 85 OFFCURVE",
"248 86 OFFCURVE",
"266 86 CURVE SMOOTH",
"361 86 OFFCURVE",
"387 0 OFFCURVE",
"387 -104 CURVE SMOOTH",
"387 -221 OFFCURVE",
"363 -285 OFFCURVE",
"280 -285 CURVE SMOOTH",
"203 -285 OFFCURVE",
"160 -221 OFFCURVE",
"160 -143 CURVE SMOOTH",
"160 -92 OFFCURVE",
"172 -36 OFFCURVE",
"213 -14 CURVE",
"203 16 LINE",
"158 10 OFFCURVE",
"40 -18 OFFCURVE",
"40 -143 CURVE SMOOTH"
);
}
);
width = 567;
}
);
unicode = 10D5;
},
{
color = 1;
glyphname = "zen-georgian";
lastChange = "2017-04-01 19:19:47 +0000";
layers = (
{
backgroundImage = {
crop = "{{0, 0}, {1061, 802}}";
imagePath = links/zen.jpg;
locked = "1";
transform = "{1.845, 0.032, -0.032, 1.845, -171, -509}";
};
layerId = "9ECE4C5B-AE6E-45F8-855F-54F501A6946D";
paths = (
{
closed = 1;
nodes = (
"561 -12 OFFCURVE",
"654 90 OFFCURVE",
"654 210 CURVE SMOOTH",
"654 330 OFFCURVE",
"561 432 OFFCURVE",
"454 432 CURVE SMOOTH",
"410 432 OFFCURVE",
"360 408 OFFCURVE",
"333 375 CURVE",
"331 375 LINE",
"331 565 LINE SMOOTH",
"331 652 OFFCURVE",
"269 722 OFFCURVE",
"191 722 CURVE SMOOTH",
"114 722 OFFCURVE",
"50 652 OFFCURVE",
"50 565 CURVE SMOOTH",
"50 477 OFFCURVE",
"114 407 OFFCURVE",
"182 407 CURVE SMOOTH",
"220 407 OFFCURVE",
"244 430 OFFCURVE",
"254 450 CURVE",
"256 450 LINE",
"256 210 LINE SMOOTH",
"256 90 OFFCURVE",
"347 -12 OFFCURVE",
"454 -12 CURVE SMOOTH"
);
},
{
closed = 1;
nodes = (
"379 3 OFFCURVE",
"331 78 OFFCURVE",
"331 210 CURVE SMOOTH",
"331 351 OFFCURVE",
"379 417 OFFCURVE",
"454 417 CURVE SMOOTH",
"530 417 OFFCURVE",
"574 341 OFFCURVE",
"574 210 CURVE SMOOTH",
"574 78 OFFCURVE",
"530 3 OFFCURVE",
"454 3 CURVE SMOOTH"
);
},
{
closed = 1;
nodes = (
"148 422 OFFCURVE",
"123 452 OFFCURVE",
"123 562 CURVE SMOOTH",
"123 672 OFFCURVE",
"148 707 OFFCURVE",
"190 707 CURVE SMOOTH",
"234 707 OFFCURVE",
"256 672 OFFCURVE",
"256 562 CURVE SMOOTH",
"256 462 OFFCURVE",
"234 422 OFFCURVE",
"190 422 CURVE SMOOTH"
);
},
{
closed = 1;
nodes = (
"392 463 LINE",
"416 512 OFFCURVE",
"441 567 OFFCURVE",
"456 625 CURVE",
"551 644 LINE",
"554 638 LINE",
"507 574 OFFCURVE",
"456 517 OFFCURVE",
"402 458 CURVE"
);
}
);
width = 704;
},
{
background = {
paths = (
{
closed = 1;
nodes = (
"578 -12 OFFCURVE",
"691 60 OFFCURVE",
"691 210 CURVE SMOOTH",
"691 360 OFFCURVE",
"588 432 OFFCURVE",
"483 432 CURVE SMOOTH",
"438 432 OFFCURVE",
"403 410 OFFCURVE",
"390 375 CURVE",
"388 375 LINE",
"388 548 LINE",
"388 675 OFFCURVE",
"286 705 OFFCURVE",
"208 705 CURVE SMOOTH",
"131 705 OFFCURVE",
"57 655 OFFCURVE",
"57 548 CURVE SMOOTH",
"57 440 OFFCURVE",
"131 390 OFFCURVE",
"199 390 CURVE SMOOTH",
"222 390 OFFCURVE",
"240 399 OFFCURVE",
"253 410 CURVE",
"253 210 LINE SMOOTH",
"253 60 OFFCURVE",
"364 -12 OFFCURVE",
"471 -12 CURVE SMOOTH"
);
},
{
closed = 1;
nodes = (
"165 405 OFFCURVE",
"160 437 OFFCURVE",
"160 545 CURVE SMOOTH",
"160 673 OFFCURVE",
"172 690 OFFCURVE",
"207 690 CURVE SMOOTH",
"244 690 OFFCURVE",
"253 673 OFFCURVE",
"253 545 CURVE SMOOTH",
"253 445 OFFCURVE",
"251 405 OFFCURVE",
"207 405 CURVE SMOOTH"
);
},
{
closed = 1;
nodes = (
"396 3 OFFCURVE",
"388 68 OFFCURVE",
"388 210 CURVE SMOOTH",
"388 358 OFFCURVE",
"403 417 OFFCURVE",
"471 417 CURVE SMOOTH",
"547 417 OFFCURVE",
"551 348 OFFCURVE",
"551 210 CURVE SMOOTH",
"551 68 OFFCURVE",
"547 3 OFFCURVE",
"471 3 CURVE SMOOTH"
);
},
{
closed = 1;
nodes = (
"416 463 LINE",
"440 512 OFFCURVE",
"465 567 OFFCURVE",
"480 625 CURVE",
"575 644 LINE",
"578 638 LINE",
"531 574 OFFCURVE",
"480 517 OFFCURVE",
"426 458 CURVE"
);
}
);
};
layerId = "6701A4D5-8A3D-41DD-8AA0-CFF5D98C5FFE";
paths = (
{
closed = 1;
nodes = (
"578 -15 OFFCURVE",
"691 53 OFFCURVE",
"691 220 CURVE SMOOTH",
"691 368 OFFCURVE",
"592 435 OFFCURVE",
"496 435 CURVE SMOOTH",
"445 435 OFFCURVE",
"419 424 OFFCURVE",
"390 400 CURVE",
"388 400 LINE",
"388 548 LINE SMOOTH",
"388 690 OFFCURVE",
"276 725 OFFCURVE",
"198 725 CURVE SMOOTH",
"121 725 OFFCURVE",
"40 671 OFFCURVE",
"40 560 CURVE SMOOTH",
"40 455 OFFCURVE",
"121 409 OFFCURVE",
"189 409 CURVE SMOOTH",
"219 409 OFFCURVE",
"246 422 OFFCURVE",
"251 429 CURVE",
"253 429 LINE",
"253 233 LINE SMOOTH",
"253 51 OFFCURVE",
"364 -15 OFFCURVE",
"471 -15 CURVE SMOOTH"
);
},
{
closed = 1;
nodes = (
"396 15 OFFCURVE",
"388 103 OFFCURVE",
"388 209 CURVE SMOOTH",
"388 315 OFFCURVE",
"396 405 OFFCURVE",
"471 405 CURVE SMOOTH",
"547 405 OFFCURVE",
"551 315 OFFCURVE",
"551 209 CURVE SMOOTH",
"551 103 OFFCURVE",
"547 15 OFFCURVE",
"471 15 CURVE SMOOTH"
);
},
{
closed = 1;
nodes = (
"155 439 OFFCURVE",
"150 495 OFFCURVE",
"150 567 CURVE SMOOTH",
"150 638 OFFCURVE",
"155 695 OFFCURVE",
"197 695 CURVE SMOOTH",
"241 695 OFFCURVE",
"253 639 OFFCURVE",
"253 567 CURVE SMOOTH",
"253 495 OFFCURVE",
"241 439 OFFCURVE",
"197 439 CURVE SMOOTH"
);
},
{
closed = 1;
nodes = (
"414 467 LINE",
"438 516 OFFCURVE",
"466 575 OFFCURVE",
"481 633 CURVE",
"596 652 LINE",
"599 646 LINE",
"552 582 OFFCURVE",
"492 511 OFFCURVE",
"438 452 CURVE"
);
}
);
width = 731;
}
);
unicode = 10D6;
},
{
color = 1;
glyphname = "tan-georgian";
lastChange = "2017-04-01 19:00:47 +0000";
layers = (
{
backgroundImage = {
crop = "{{0, 0}, {262.56, 174.72}}";
imagePath = links/ban_in_tan.jpg;
locked = "1";
transform = "{7.649, 0, 0, 7.649, -1141, -434}";
};
layerId = "9ECE4C5B-AE6E-45F8-855F-54F501A6946D";
paths = (
{
closed = 1;
nodes = (
"656 35 OFFCURVE",
"752 128 OFFCURVE",
"752 246 CURVE SMOOTH",
"752 368 OFFCURVE",
"649 432 OFFCURVE",
"549 432 CURVE SMOOTH",
"481 432 OFFCURVE",
"421 392 OFFCURVE",
"393 348 CURVE",
"406 310 LINE",
"435 369 OFFCURVE",
"481 414 OFFCURVE",
"544 414 CURVE SMOOTH",
"615 414 OFFCURVE",
"672 346 OFFCURVE",
"672 213 CURVE SMOOTH",
"672 103 OFFCURVE",
"631 46 OFFCURVE",
"569 -4 CURVE",
"577 -17 LINE"
);
},
{
closed = 1;
nodes = (
"50 95 OFFCURVE",
"144 -11 OFFCURVE",
"251 -11 CURVE SMOOTH",
"358 -11 OFFCURVE",
"452 95 OFFCURVE",
"452 215 CURVE SMOOTH",
"452 335 OFFCURVE",
"358 432 OFFCURVE",
"251 432 CURVE SMOOTH",
"144 432 OFFCURVE",
"50 335 OFFCURVE",
"50 215 CURVE SMOOTH"
);
},
{
closed = 1;
nodes = (
"130 346 OFFCURVE",
"175 417 OFFCURVE",
"251 417 CURVE SMOOTH",
"327 417 OFFCURVE",
"372 346 OFFCURVE",
"372 215 CURVE SMOOTH",
"372 83 OFFCURVE",
"327 4 OFFCURVE",
"251 4 CURVE SMOOTH",
"175 4 OFFCURVE",
"130 83 OFFCURVE",
"130 215 CURVE SMOOTH"
);
}
);
width = 802;
},
{
associatedMasterId = "9ECE4C5B-AE6E-45F8-855F-54F501A6946D";
backgroundImage = {
crop = "{{0, 0}, {262.56, 174.72}}";
imagePath = links/ban_in_tan.jpg;
locked = "1";
transform = "{7.649, 0, 0, 7.649, -1125, -434}";
};
layerId = "C072E24C-EB86-4770-88ED-8E098730FF4E";
name = "Regular Apr 12 16, 19:30";
paths = (
{
closed = 1;
nodes = (
"672 35 OFFCURVE",
"768 128 OFFCURVE",
"768 246 CURVE SMOOTH",
"768 368 OFFCURVE",
"665 439 OFFCURVE",
"558 439 CURVE SMOOTH",
"487 439 OFFCURVE",
"447 406 OFFCURVE",
"413 364 CURVE",
"410 364 LINE",
"386 398 OFFCURVE",
"321 432 OFFCURVE",
"267 432 CURVE SMOOTH",
"174 432 OFFCURVE",
"60 344 OFFCURVE",
"60 213 CURVE SMOOTH",
"60 79 OFFCURVE",
"174 -12 OFFCURVE",
"267 -12 CURVE SMOOTH",
"368 -12 OFFCURVE",
"469 79 OFFCURVE",
"469 213 CURVE SMOOTH",
"469 270 OFFCURVE",
"444 320 OFFCURVE",
"434 335 CURVE",
"439 353 OFFCURVE",
"479 421 OFFCURVE",
"544 421 CURVE SMOOTH",
"630 421 OFFCURVE",
"688 346 OFFCURVE",
"688 213 CURVE SMOOTH",
"688 103 OFFCURVE",
"647 46 OFFCURVE",
"585 -4 CURVE",
"593 -17 LINE"
);
},
{
closed = 1;
nodes = (
"186 3 OFFCURVE",
"140 80 OFFCURVE",
"140 213 CURVE SMOOTH",
"140 340 OFFCURVE",
"186 417 OFFCURVE",
"267 417 CURVE SMOOTH",
"345 417 OFFCURVE",
"389 340 OFFCURVE",
"389 213 CURVE SMOOTH",
"389 80 OFFCURVE",
"345 3 OFFCURVE",
"267 3 CURVE SMOOTH"
);
}
);
width = 828;
},
{
background = {
paths = (
{
closed = 1;
nodes = (
"666 35 OFFCURVE",
"762 128 OFFCURVE",
"762 246 CURVE SMOOTH",
"762 368 OFFCURVE",
"659 432 OFFCURVE",
"559 432 CURVE SMOOTH",
"491 432 OFFCURVE",
"431 392 OFFCURVE",
"403 348 CURVE",
"416 310 LINE",
"445 369 OFFCURVE",
"491 414 OFFCURVE",
"554 414 CURVE SMOOTH",
"625 414 OFFCURVE",
"682 346 OFFCURVE",
"682 213 CURVE SMOOTH",
"682 103 OFFCURVE",
"641 46 OFFCURVE",
"579 -4 CURVE",
"587 -17 LINE"
);
},
{
closed = 1;
nodes = (
"60 95 OFFCURVE",
"154 -11 OFFCURVE",
"261 -11 CURVE SMOOTH",
"368 -11 OFFCURVE",
"462 95 OFFCURVE",
"462 215 CURVE SMOOTH",
"462 335 OFFCURVE",
"368 432 OFFCURVE",
"261 432 CURVE SMOOTH",
"154 432 OFFCURVE",
"60 335 OFFCURVE",
"60 215 CURVE SMOOTH"
);
},
{
closed = 1;
nodes = (
"140 346 OFFCURVE",
"185 417 OFFCURVE",
"261 417 CURVE SMOOTH",
"337 417 OFFCURVE",
"382 346 OFFCURVE",
"382 215 CURVE SMOOTH",
"382 83 OFFCURVE",
"337 4 OFFCURVE",
"261 4 CURVE SMOOTH",
"185 4 OFFCURVE",
"140 83 OFFCURVE",
"140 215 CURVE SMOOTH"
);
}
);
};
layerId = "6701A4D5-8A3D-41DD-8AA0-CFF5D98C5FFE";
paths = (
{
closed = 1;
nodes = (
"660 5 OFFCURVE",
"782 79 OFFCURVE",
"782 220 CURVE SMOOTH",
"782 370 OFFCURVE",
"672 435 OFFCURVE",
"547 435 CURVE SMOOTH",
"480 435 OFFCURVE",
"428 398 OFFCURVE",
"400 354 CURVE",
"423 306 LINE",
"452 365 OFFCURVE",
"480 405 OFFCURVE",
"542 405 CURVE SMOOTH",
"615 405 OFFCURVE",
"642 331 OFFCURVE",
"642 213 CURVE SMOOTH",
"642 113 OFFCURVE",
"624 54 OFFCURVE",
"569 2 CURVE",
"581 -21 LINE"
);
},
{
closed = 1;
nodes = (
"40 75 OFFCURVE",
"154 -15 OFFCURVE",
"261 -15 CURVE SMOOTH",
"368 -15 OFFCURVE",
"482 95 OFFCURVE",
"482 215 CURVE SMOOTH",
"482 335 OFFCURVE",
"368 435 OFFCURVE",
"261 435 CURVE SMOOTH",
"154 435 OFFCURVE",
"40 355 OFFCURVE",
"40 215 CURVE SMOOTH"
);
},
{
closed = 1;
nodes = (
"180 316 OFFCURVE",
"185 405 OFFCURVE",
"261 405 CURVE SMOOTH",
"337 405 OFFCURVE",
"342 316 OFFCURVE",
"342 220 CURVE SMOOTH",
"342 123 OFFCURVE",
"337 15 OFFCURVE",
"261 15 CURVE SMOOTH",
"185 15 OFFCURVE",
"180 123 OFFCURVE",
"180 220 CURVE SMOOTH"
);
}
);
width = 822;
}
);
rightKerningGroup = "in-georgian";
unicode = 10D7;
},
{
color = 1;
glyphname = "in-georgian";
lastChange = "2017-04-01 18:25:33 +0000";
layers = (
{
backgroundImage = {
crop = "{{0, 0}, {262.56, 174.72}}";
imagePath = links/ban_in_tan.jpg;
locked = "1";
transform = "{7.822, 0, 0, 7.822, -622, -463}";
};
layerId = "9ECE4C5B-AE6E-45F8-855F-54F501A6946D";
paths = (
{
closed = 1;
nodes = (
"50 344 OFFCURVE",
"160 432 OFFCURVE",
"255 432 CURVE SMOOTH",
"358 432 OFFCURVE",
"464 344 OFFCURVE",
"464 213 CURVE SMOOTH",
"464 91 OFFCURVE",
"391 12 OFFCURVE",
"320 -13 CURVE",
"313 1 LINE",
"369 33 OFFCURVE",
"384 91 OFFCURVE",
"384 213 CURVE SMOOTH",
"384 340 OFFCURVE",
"333 417 OFFCURVE",
"255 417 CURVE SMOOTH",
"175 417 OFFCURVE",
"130 340 OFFCURVE",
"130 213 CURVE SMOOTH",
"130 92 OFFCURVE",
"147 32 OFFCURVE",
"202 1 CURVE",
"193 -13 LINE",
"121 14 OFFCURVE",
"50 93 OFFCURVE",
"50 213 CURVE SMOOTH"
);
}
);
width = 514;
},
{
background = {
paths = (
{
closed = 1;
nodes = (
"65 344 OFFCURVE",
"175 432 OFFCURVE",
"270 432 CURVE SMOOTH",
"373 432 OFFCURVE",
"479 344 OFFCURVE",
"479 213 CURVE SMOOTH",
"479 91 OFFCURVE",
"406 12 OFFCURVE",
"335 -13 CURVE",
"328 1 LINE",
"384 33 OFFCURVE",
"399 91 OFFCURVE",
"399 213 CURVE SMOOTH",
"399 340 OFFCURVE",
"348 417 OFFCURVE",
"270 417 CURVE SMOOTH",
"190 417 OFFCURVE",
"145 340 OFFCURVE",
"145 213 CURVE SMOOTH",
"145 92 OFFCURVE",
"162 32 OFFCURVE",
"217 1 CURVE",
"208 -13 LINE",
"136 14 OFFCURVE",
"65 93 OFFCURVE",
"65 213 CURVE SMOOTH"
);
}
);
};
layerId = "6701A4D5-8A3D-41DD-8AA0-CFF5D98C5FFE";
paths = (
{
closed = 1;
nodes = (
"40 364 OFFCURVE",
"175 435 OFFCURVE",
"270 435 CURVE SMOOTH",
"373 435 OFFCURVE",
"504 364 OFFCURVE",
"504 213 CURVE SMOOTH",
"504 71 OFFCURVE",
"403 8 OFFCURVE",
"332 -15 CURVE",
"325 9 LINE",
"361 51 OFFCURVE",
"364 112 OFFCURVE",
"364 220 CURVE SMOOTH",
"364 326 OFFCURVE",
"348 405 OFFCURVE",
"270 405 CURVE SMOOTH",
"190 405 OFFCURVE",
"180 326 OFFCURVE",
"180 220 CURVE SMOOTH",
"180 113 OFFCURVE",
"185 50 OFFCURVE",
"220 9 CURVE",
"211 -15 LINE",
"139 10 OFFCURVE",
"40 73 OFFCURVE",
"40 213 CURVE SMOOTH"
);
}
);
width = 544;
}
);
leftKerningGroup = "in-georgian";
rightKerningGroup = "in-georgian";
unicode = 10D8;
},
{
color = 1;
glyphname = "kan-georgian";
lastChange = "2017-04-01 19:13:01 +0000";
layers = (
{
backgroundImage = {
crop = "{{0, 0}, {828, 577}}";
imagePath = links/kan.jpg;
transform = "{1.842, 0, 0, 1.842, -960, -423}";
};
layerId = "9ECE4C5B-AE6E-45F8-855F-54F501A6946D";
paths = (
{
closed = 1;
nodes = (
"50 -247 OFFCURVE",
"135 -312 OFFCURVE",
"266 -312 CURVE SMOOTH",
"377 -312 OFFCURVE",
"485 -219 OFFCURVE",
"485 -104 CURVE SMOOTH",
"485 21 OFFCURVE",
"406 104 OFFCURVE",
"307 128 CURVE",
"307 130 LINE",
"356 153 OFFCURVE",
"471 210 OFFCURVE",
"471 318 CURVE SMOOTH",
"471 376 OFFCURVE",
"449 433 OFFCURVE",
"369 433 CURVE SMOOTH",
"331 433 OFFCURVE",
"305 416 OFFCURVE",
"305 381 CURVE SMOOTH",
"305 356 OFFCURVE",
"322 337 OFFCURVE",
"353 337 CURVE SMOOTH",
"388 337 OFFCURVE",
"390 369 OFFCURVE",
"408 369 CURVE SMOOTH",
"432 369 OFFCURVE",
"437 351 OFFCURVE",
"437 318 CURVE SMOOTH",
"437 219 OFFCURVE",
"358 171 OFFCURVE",
"237 121 CURVE SMOOTH",
"214 112 OFFCURVE",
"184 98 OFFCURVE",
"161 83 CURVE",
"168 70 LINE",
"194 83 OFFCURVE",
"232 110 OFFCURVE",
"280 110 CURVE SMOOTH",
"371 110 OFFCURVE",
"405 7 OFFCURVE",
"405 -104 CURVE SMOOTH",
"405 -221 OFFCURVE",
"341 -297 OFFCURVE",
"266 -297 CURVE SMOOTH",
"190 -297 OFFCURVE",
"120 -243 OFFCURVE",
"120 -151 CURVE SMOOTH",
"120 -82 OFFCURVE",
"141 -36 OFFCURVE",
"191 -6 CURVE",
"186 6 LINE",
"141 -10 OFFCURVE",
"50 -50 OFFCURVE",
"50 -155 CURVE SMOOTH"
);
}
);
width = 535;
},
{
background = {
paths = (
{
closed = 1;
nodes = (
"60 -247 OFFCURVE",
"145 -312 OFFCURVE",
"276 -312 CURVE SMOOTH",
"387 -312 OFFCURVE",
"495 -219 OFFCURVE",
"495 -104 CURVE SMOOTH",
"495 21 OFFCURVE",
"416 104 OFFCURVE",
"317 128 CURVE",
"317 130 LINE",
"366 153 OFFCURVE",
"481 210 OFFCURVE",
"481 318 CURVE SMOOTH",
"481 376 OFFCURVE",
"459 433 OFFCURVE",
"379 433 CURVE SMOOTH",
"341 433 OFFCURVE",
"315 416 OFFCURVE",
"315 381 CURVE SMOOTH",
"315 356 OFFCURVE",
"332 337 OFFCURVE",
"363 337 CURVE SMOOTH",
"398 337 OFFCURVE",
"400 369 OFFCURVE",
"418 369 CURVE SMOOTH",
"442 369 OFFCURVE",
"447 351 OFFCURVE",
"447 318 CURVE SMOOTH",
"447 219 OFFCURVE",
"369 169 OFFCURVE",
"247 121 CURVE SMOOTH",
"224 112 OFFCURVE",
"194 98 OFFCURVE",
"171 83 CURVE",
"178 70 LINE",
"204 83 OFFCURVE",
"242 110 OFFCURVE",
"290 110 CURVE SMOOTH",
"381 110 OFFCURVE",
"415 7 OFFCURVE",
"415 -104 CURVE SMOOTH",
"415 -221 OFFCURVE",
"351 -297 OFFCURVE",
"276 -297 CURVE SMOOTH",
"200 -297 OFFCURVE",
"130 -243 OFFCURVE",
"130 -151 CURVE SMOOTH",
"130 -82 OFFCURVE",
"151 -36 OFFCURVE",
"201 -6 CURVE",
"196 6 LINE",
"151 -10 OFFCURVE",
"60 -50 OFFCURVE",
"60 -155 CURVE SMOOTH"
);
}
);
};
layerId = "6701A4D5-8A3D-41DD-8AA0-CFF5D98C5FFE";
paths = (
{
closed = 1;
nodes = (
"40 -260 OFFCURVE",
"145 -315 OFFCURVE",
"279 -315 CURVE SMOOTH",
"408 -315 OFFCURVE",
"515 -249 OFFCURVE",
"515 -87 CURVE SMOOTH",
"515 41 OFFCURVE",
"416 114 OFFCURVE",
"317 128 CURVE",
"317 130 LINE",
"366 153 OFFCURVE",
"488 212 OFFCURVE",
"488 320 CURVE SMOOTH",
"488 378 OFFCURVE",
"457 435 OFFCURVE",
"374 435 CURVE SMOOTH",
"324 435 OFFCURVE",
"288 417 OFFCURVE",
"288 372 CURVE SMOOTH",
"288 337 OFFCURVE",
"315 319 OFFCURVE",
"344 319 CURVE SMOOTH",
"389 319 OFFCURVE",
"378 361 OFFCURVE",
"411 361 CURVE SMOOTH",
"435 361 OFFCURVE",
"440 342 OFFCURVE",
"440 320 CURVE SMOOTH",
"440 232 OFFCURVE",
"369 187 OFFCURVE",
"247 139 CURVE SMOOTH",
"224 130 OFFCURVE",
"186 116 OFFCURVE",
"163 101 CURVE",
"177 70 LINE",
"203 83 OFFCURVE",
"242 107 OFFCURVE",
"290 107 CURVE SMOOTH",
"371 107 OFFCURVE",
"375 17 OFFCURVE",
"375 -104 CURVE SMOOTH",
"375 -231 OFFCURVE",
"351 -285 OFFCURVE",
"276 -285 CURVE SMOOTH",
"200 -285 OFFCURVE",
"170 -215 OFFCURVE",
"170 -151 CURVE SMOOTH",
"170 -82 OFFCURVE",
"182 -40 OFFCURVE",
"207 -23 CURVE",
"196 6 LINE",
"151 0 OFFCURVE",
"40 -30 OFFCURVE",
"40 -146 CURVE SMOOTH"
);
}
);
width = 555;
}
);
unicode = 10D9;
},
{
color = 1;
glyphname = "las-georgian";
lastChange = "2017-04-01 19:13:11 +0000";
layers = (
{
backgroundImage = {
crop = "{{0, 0}, {1117, 714}}";
imagePath = links/las__.jpg;
locked = "1";
transform = "{1.842, 0.021, -0.021, 1.842, -554, -403}";
};
layerId = "9ECE4C5B-AE6E-45F8-855F-54F501A6946D";
paths = (
{
closed = 1;
nodes = (
"730 86 LINE",
"812 132 OFFCURVE",
"868 197 OFFCURVE",
"868 270 CURVE SMOOTH",
"868 336 OFFCURVE",
"812 432 OFFCURVE",
"696 432 CURVE SMOOTH",
"637 432 OFFCURVE",
"600 400 OFFCURVE",
"574 351 CURVE",
"549 398 OFFCURVE",
"509 432 OFFCURVE",
"462 432 CURVE SMOOTH",
"415 432 OFFCURVE",
"376 398 OFFCURVE",
"351 351 CURVE",
"325 402 OFFCURVE",
"283 432 OFFCURVE",
"224 432 CURVE SMOOTH",
"150 432 OFFCURVE",
"50 369 OFFCURVE",
"50 225 CURVE SMOOTH",
"50 100 OFFCURVE",
"157 21 OFFCURVE",
"282 -34 CURVE",
"282 -36 LINE",
"186 -36 OFFCURVE",
"137 -71 OFFCURVE",
"137 -117 CURVE SMOOTH",
"137 -151 OFFCURVE",
"158 -179 OFFCURVE",
"198 -179 CURVE SMOOTH",
"228 -179 OFFCURVE",
"248 -162 OFFCURVE",
"248 -132 CURVE SMOOTH",
"248 -107 OFFCURVE",
"230 -91 OFFCURVE",
"209 -91 CURVE SMOOTH",
"203 -91 OFFCURVE",
"199 -92 OFFCURVE",
"196 -93 CURVE",
"195 -93 LINE",
"199 -76 OFFCURVE",
"220 -61 OFFCURVE",
"280 -61 CURVE SMOOTH",
"332 -61 OFFCURVE",
"409 -96 OFFCURVE",
"457 -117 CURVE SMOOTH",
"550 -158 OFFCURVE",
"654 -237 OFFCURVE",
"711 -312 CURVE",
"735 -296 LINE",
"654 -200 OFFCURVE",
"552 -136 OFFCURVE",
"451 -91 CURVE SMOOTH",
"248 0 OFFCURVE",
"130 40 OFFCURVE",
"130 222 CURVE SMOOTH",
"130 346 OFFCURVE",
"178 406 OFFCURVE",
"241 406 CURVE SMOOTH",
"282 406 OFFCURVE",
"325 381 OFFCURVE",
"343 331 CURVE",
"328 301 OFFCURVE",
"311 267 OFFCURVE",
"311 231 CURVE SMOOTH",
"311 209 OFFCURVE",
"325 154 OFFCURVE",
"349 154 CURVE SMOOTH",
"372 154 OFFCURVE",
"386 209 OFFCURVE",
"386 231 CURVE",
"385 277 OFFCURVE",
"372 297 OFFCURVE",
"357 332 CURVE",
"372 368 OFFCURVE",
"414 398 OFFCURVE",
"462 398 CURVE SMOOTH",
"510 398 OFFCURVE",
"552 368 OFFCURVE",
"567 332 CURVE",
"552 297 OFFCURVE",
"539 277 OFFCURVE",
"539 231 CURVE SMOOTH",
"539 209 OFFCURVE",
"553 154 OFFCURVE",
"577 154 CURVE SMOOTH",
"600 154 OFFCURVE",
"614 208 OFFCURVE",
"614 231 CURVE",
"614 267 OFFCURVE",
"596 301 OFFCURVE",
"581 331 CURVE",
"599 381 OFFCURVE",
"650 406 OFFCURVE",
"691 406 CURVE SMOOTH",
"776 406 OFFCURVE",
"798 324 OFFCURVE",
"798 264 CURVE SMOOTH",
"798 184 OFFCURVE",
"781 142 OFFCURVE",
"719 101 CURVE"
);
}
);
width = 918;
},
{
background = {
paths = (
{
closed = 1;
nodes = (
"760 86 LINE",
"842 132 OFFCURVE",
"898 197 OFFCURVE",
"898 270 CURVE SMOOTH",
"898 336 OFFCURVE",
"842 432 OFFCURVE",
"726 432 CURVE SMOOTH",
"667 432 OFFCURVE",
"630 400 OFFCURVE",
"604 351 CURVE",
"579 398 OFFCURVE",
"539 432 OFFCURVE",
"492 432 CURVE SMOOTH",
"445 432 OFFCURVE",
"406 398 OFFCURVE",
"381 351 CURVE",
"355 402 OFFCURVE",
"313 432 OFFCURVE",
"254 432 CURVE SMOOTH",
"180 432 OFFCURVE",
"80 369 OFFCURVE",
"80 225 CURVE SMOOTH",
"80 100 OFFCURVE",
"187 21 OFFCURVE",
"312 -34 CURVE",
"312 -36 LINE",
"216 -36 OFFCURVE",
"167 -71 OFFCURVE",
"167 -117 CURVE SMOOTH",
"167 -151 OFFCURVE",
"188 -179 OFFCURVE",
"228 -179 CURVE SMOOTH",
"258 -179 OFFCURVE",
"278 -162 OFFCURVE",
"278 -132 CURVE SMOOTH",
"278 -107 OFFCURVE",
"260 -91 OFFCURVE",
"239 -91 CURVE SMOOTH",
"233 -91 OFFCURVE",
"229 -92 OFFCURVE",
"226 -93 CURVE",
"225 -93 LINE",
"229 -76 OFFCURVE",
"250 -61 OFFCURVE",
"310 -61 CURVE SMOOTH",
"362 -61 OFFCURVE",
"439 -96 OFFCURVE",
"487 -117 CURVE SMOOTH",
"580 -158 OFFCURVE",
"684 -237 OFFCURVE",
"741 -312 CURVE",
"765 -296 LINE",
"684 -200 OFFCURVE",
"582 -136 OFFCURVE",
"481 -91 CURVE SMOOTH",
"278 0 OFFCURVE",
"160 40 OFFCURVE",
"160 222 CURVE SMOOTH",
"160 346 OFFCURVE",
"208 406 OFFCURVE",
"271 406 CURVE SMOOTH",
"312 406 OFFCURVE",
"355 381 OFFCURVE",
"373 331 CURVE",
"358 301 OFFCURVE",
"341 267 OFFCURVE",
"341 231 CURVE SMOOTH",
"341 209 OFFCURVE",
"355 154 OFFCURVE",
"379 154 CURVE SMOOTH",
"402 154 OFFCURVE",
"416 209 OFFCURVE",
"416 231 CURVE",
"415 277 OFFCURVE",
"402 297 OFFCURVE",
"387 332 CURVE",
"402 368 OFFCURVE",
"444 398 OFFCURVE",
"492 398 CURVE SMOOTH",
"540 398 OFFCURVE",
"582 368 OFFCURVE",
"597 332 CURVE",
"582 297 OFFCURVE",
"569 277 OFFCURVE",
"569 231 CURVE SMOOTH",
"569 209 OFFCURVE",
"583 154 OFFCURVE",
"607 154 CURVE SMOOTH",
"630 154 OFFCURVE",
"644 208 OFFCURVE",
"644 231 CURVE",
"644 267 OFFCURVE",
"626 301 OFFCURVE",
"611 331 CURVE",
"629 381 OFFCURVE",
"680 406 OFFCURVE",
"721 406 CURVE SMOOTH",
"806 406 OFFCURVE",
"828 324 OFFCURVE",
"828 264 CURVE SMOOTH",
"828 184 OFFCURVE",
"811 142 OFFCURVE",
"749 101 CURVE"
);
}
);
};
layerId = "6701A4D5-8A3D-41DD-8AA0-CFF5D98C5FFE";
paths = (
{
closed = 1;
nodes = (
"756 68 LINE",
"838 94 OFFCURVE",
"918 147 OFFCURVE",
"918 270 CURVE SMOOTH",
"918 366 OFFCURVE",
"842 435 OFFCURVE",
"726 435 CURVE SMOOTH",
"667 435 OFFCURVE",
"631 417 OFFCURVE",
"604 370 CURVE",
"579 417 OFFCURVE",
"539 435 OFFCURVE",
"492 435 CURVE SMOOTH",
"445 435 OFFCURVE",
"406 417 OFFCURVE",
"381 370 CURVE",
"357 417 OFFCURVE",
"313 435 OFFCURVE",
"249 435 CURVE SMOOTH",
"153 435 OFFCURVE",
"40 389 OFFCURVE",
"40 236 CURVE SMOOTH",
"40 88 OFFCURVE",
"157 24 OFFCURVE",
"282 -31 CURVE",
"282 -33 LINE",
"194 -34 OFFCURVE",
"147 -66 OFFCURVE",
"147 -126 CURVE SMOOTH",
"147 -161 OFFCURVE",
"175 -195 OFFCURVE",
"222 -195 CURVE SMOOTH",
"259 -195 OFFCURVE",
"286 -168 OFFCURVE",
"286 -135 CURVE SMOOTH",
"286 -106 OFFCURVE",
"262 -89 OFFCURVE",
"241 -89 CURVE SMOOTH",
"235 -89 OFFCURVE",
"231 -90 OFFCURVE",
"228 -91 CURVE",
"227 -91 LINE",
"231 -74 OFFCURVE",
"250 -61 OFFCURVE",
"300 -61 CURVE SMOOTH",
"352 -61 OFFCURVE",
"428 -91 OFFCURVE",
"487 -117 CURVE SMOOTH",
"580 -158 OFFCURVE",
"684 -237 OFFCURVE",
"741 -312 CURVE",
"775 -288 LINE",
"694 -185 OFFCURVE",
"592 -121 OFFCURVE",
"491 -78 CURVE SMOOTH",
"278 13 OFFCURVE",
"180 90 OFFCURVE",
"180 236 CURVE SMOOTH",
"180 330 OFFCURVE",
"222 405 OFFCURVE",
"282 405 CURVE SMOOTH",
"319 405 OFFCURVE",
"346 385 OFFCURVE",
"363 340 CURVE",
"341 312 OFFCURVE",
"318 293 OFFCURVE",
"318 236 CURVE SMOOTH",
"318 176 OFFCURVE",
"362 131 OFFCURVE",
"379 131 CURVE SMOOTH",
"398 131 OFFCURVE",
"440 176 OFFCURVE",
"440 236 CURVE",
"440 297 OFFCURVE",
"420 312 OFFCURVE",
"397 341 CURVE",
"416 377 OFFCURVE",
"448 390 OFFCURVE",
"492 390 CURVE SMOOTH",
"536 390 OFFCURVE",
"568 377 OFFCURVE",
"587 341 CURVE",
"563 312 OFFCURVE",
"546 297 OFFCURVE",
"546 236 CURVE SMOOTH",
"546 176 OFFCURVE",
"588 131 OFFCURVE",
"607 131 CURVE SMOOTH",
"624 131 OFFCURVE",
"668 176 OFFCURVE",
"668 236 CURVE",
"668 293 OFFCURVE",
"645 312 OFFCURVE",
"621 340 CURVE",
"637 379 OFFCURVE",
"672 405 OFFCURVE",
"713 405 CURVE SMOOTH",
"779 405 OFFCURVE",
"808 341 OFFCURVE",
"808 277 CURVE SMOOTH",
"808 215 OFFCURVE",
"797 136 OFFCURVE",
"740 97 CURVE"
);
}
);
width = 958;
}
);
unicode = 10DA;
},
{
color = 1;
glyphname = "man-georgian";
lastChange = "2017-04-01 18:40:51 +0000";
layers = (
{
backgroundImage = {
crop = "{{0, 0}, {1026, 820}}";
imagePath = links/man.jpg;
locked = "1";
transform = "{1.819, 0, 0, 1.819, -794, -559}";
};
layerId = "9ECE4C5B-AE6E-45F8-855F-54F501A6946D";
paths = (
{
closed = 1;
nodes = (
"50 85 OFFCURVE",
"143 -12 OFFCURVE",
"250 -12 CURVE SMOOTH",
"357 -12 OFFCURVE",
"448 85 OFFCURVE",
"448 205 CURVE SMOOTH",
"448 534 LINE SMOOTH",
"448 609 OFFCURVE",
"400 722 OFFCURVE",
"261 722 CURVE SMOOTH",
"142 722 OFFCURVE",
"86 633 OFFCURVE",
"86 566 CURVE SMOOTH",
"86 535 OFFCURVE",
"108 499 OFFCURVE",
"144 499 CURVE SMOOTH",
"171 499 OFFCURVE",
"190 511 OFFCURVE",
"190 541 CURVE SMOOTH",
"190 593 OFFCURVE",
"128 572 OFFCURVE",
"128 619 CURVE SMOOTH",
"128 652 OFFCURVE",
"173 706 OFFCURVE",
"246 706 CURVE SMOOTH",
"358 706 OFFCURVE",
"373 600 OFFCURVE",
"373 547 CURVE SMOOTH",
"373 365 LINE",
"371 365 LINE",
"344 398 OFFCURVE",
"294 422 OFFCURVE",
"250 422 CURVE SMOOTH",
"143 422 OFFCURVE",
"50 325 OFFCURVE",
"50 205 CURVE SMOOTH"
);
},
{
closed = 1;
nodes = (
"130 336 OFFCURVE",
"174 407 OFFCURVE",
"250 407 CURVE SMOOTH",
"325 407 OFFCURVE",
"373 336 OFFCURVE",
"373 205 CURVE SMOOTH",
"373 73 OFFCURVE",
"325 3 OFFCURVE",
"250 3 CURVE SMOOTH",
"174 3 OFFCURVE",
"130 73 OFFCURVE",
"130 205 CURVE SMOOTH"
);
}
);
width = 498;
},
{
associatedMasterId = "9ECE4C5B-AE6E-45F8-855F-54F501A6946D";
backgroundImage = {
crop = "{{0, 0}, {1268, 705}}";
imagePath = ../parizuli2/man_.jpg;
locked = "1";
transform = "{1.8, 0.031, -0.031, 1.8, -881, -371}";
};
layerId = "1C08CE62-57A9-47A4-98F8-2A2503228EFB";
name = "Regular Mar 30 16, 18:49";
paths = (
{
closed = 1;
nodes = (
"396 -12 OFFCURVE",
"482 85 OFFCURVE",
"482 205 CURVE",
"482 325 OFFCURVE",
"396 422 OFFCURVE",
"289 422 CURVE",
"182 422 OFFCURVE",
"94 325 OFFCURVE",
"94 205 CURVE",
"94 85 OFFCURVE",
"182 -12 OFFCURVE",
"289 -12 CURVE"
);
},
{
closed = 1;
nodes = (
"213 3 OFFCURVE",
"174 73 OFFCURVE",
"174 205 CURVE",
"174 336 OFFCURVE",
"213 407 OFFCURVE",
"289 407 CURVE",
"364 407 OFFCURVE",
"407 336 OFFCURVE",
"407 205 CURVE",
"407 73 OFFCURVE",
"364 3 OFFCURVE",
"289 3 CURVE"
);
},
{
closed = 1;
nodes = (
"482 205 LINE",
"482 534 LINE SMOOTH",
"482 609 OFFCURVE",
"434 722 OFFCURVE",
"295 722 CURVE SMOOTH",
"176 722 OFFCURVE",
"120 633 OFFCURVE",
"120 566 CURVE SMOOTH",
"120 535 OFFCURVE",
"142 499 OFFCURVE",
"178 499 CURVE SMOOTH",
"205 499 OFFCURVE",
"224 511 OFFCURVE",
"224 541 CURVE SMOOTH",
"224 593 OFFCURVE",
"162 572 OFFCURVE",
"162 619 CURVE SMOOTH",
"162 652 OFFCURVE",
"207 706 OFFCURVE",
"280 706 CURVE SMOOTH",
"392 706 OFFCURVE",
"407 600 OFFCURVE",
"407 547 CURVE",
"407 205 LINE"
);
}
);
width = 600;
},
{
background = {
paths = (
{
closed = 1;
nodes = (
"60 85 OFFCURVE",
"153 -12 OFFCURVE",
"260 -12 CURVE SMOOTH",
"367 -12 OFFCURVE",
"458 85 OFFCURVE",
"458 205 CURVE SMOOTH",
"458 534 LINE SMOOTH",
"458 609 OFFCURVE",
"410 722 OFFCURVE",
"271 722 CURVE SMOOTH",
"152 722 OFFCURVE",
"96 633 OFFCURVE",
"96 566 CURVE SMOOTH",
"96 535 OFFCURVE",
"118 499 OFFCURVE",
"154 499 CURVE SMOOTH",
"181 499 OFFCURVE",
"200 511 OFFCURVE",
"200 541 CURVE SMOOTH",
"200 593 OFFCURVE",
"138 572 OFFCURVE",
"138 619 CURVE SMOOTH",
"138 652 OFFCURVE",
"183 706 OFFCURVE",
"256 706 CURVE SMOOTH",
"368 706 OFFCURVE",
"383 600 OFFCURVE",
"383 547 CURVE SMOOTH",
"383 365 LINE",
"381 365 LINE",
"354 398 OFFCURVE",
"304 422 OFFCURVE",
"260 422 CURVE SMOOTH",
"153 422 OFFCURVE",
"60 325 OFFCURVE",
"60 205 CURVE SMOOTH"
);
},
{
closed = 1;
nodes = (
"140 336 OFFCURVE",
"184 407 OFFCURVE",
"260 407 CURVE SMOOTH",
"335 407 OFFCURVE",
"383 336 OFFCURVE",
"383 205 CURVE SMOOTH",
"383 73 OFFCURVE",
"335 3 OFFCURVE",
"260 3 CURVE SMOOTH",
"184 3 OFFCURVE",
"140 73 OFFCURVE",
"140 205 CURVE SMOOTH"
);
}
);
};
layerId = "6701A4D5-8A3D-41DD-8AA0-CFF5D98C5FFE";
paths = (
{
closed = 1;
nodes = (
"40 65 OFFCURVE",
"156 -15 OFFCURVE",
"263 -15 CURVE SMOOTH",
"370 -15 OFFCURVE",
"479 65 OFFCURVE",
"479 205 CURVE SMOOTH",
"479 536 LINE SMOOTH",
"479 627 OFFCURVE",
"411 725 OFFCURVE",
"272 725 CURVE SMOOTH",
"153 725 OFFCURVE",
"77 645 OFFCURVE",
"77 578 CURVE SMOOTH",
"77 527 OFFCURVE",
"113 489 OFFCURVE",
"155 489 CURVE SMOOTH",
"182 489 OFFCURVE",
"221 508 OFFCURVE",
"221 544 CURVE SMOOTH",
"221 597 OFFCURVE",
"179 585 OFFCURVE",
"179 632 CURVE SMOOTH",
"179 655 OFFCURVE",
"200 695 OFFCURVE",
"263 695 CURVE SMOOTH",
"335 695 OFFCURVE",
"344 623 OFFCURVE",
"344 578 CURVE SMOOTH",
"344 394 LINE",
"343 393 LINE",
"327 405 OFFCURVE",
"298 423 OFFCURVE",
"251 423 CURVE SMOOTH",
"154 423 OFFCURVE",
"40 345 OFFCURVE",
"40 205 CURVE SMOOTH"
);
},
{
closed = 1;
nodes = (
"180 301 OFFCURVE",
"197 393 OFFCURVE",
"262 393 CURVE SMOOTH",
"327 393 OFFCURVE",
"344 301 OFFCURVE",
"344 205 CURVE SMOOTH",
"344 108 OFFCURVE",
"327 15 OFFCURVE",
"262 15 CURVE SMOOTH",
"197 15 OFFCURVE",
"180 108 OFFCURVE",
"180 205 CURVE SMOOTH"
);
}
);
width = 519;
}
);
unicode = 10DB;
},
{
color = 1;
glyphname = "nar-georgian";
lastChange = "2017-04-01 18:40:58 +0000";
layers = (
{
backgroundImage = {
crop = "{{0, 0}, {901, 725}}";
imagePath = links/nar.jpg;
locked = "1";
transform = "{1.817, 0, 0, 1.817, -1098, -446}";
};
layerId = "9ECE4C5B-AE6E-45F8-855F-54F501A6946D";
paths = (
{
closed = 1;
nodes = (
"409 732 LINE",
"368 690 OFFCURVE",
"350 683 OFFCURVE",
"306 683 CURVE SMOOTH",
"248 683 OFFCURVE",
"237 722 OFFCURVE",
"166 722 CURVE SMOOTH",
"81 722 OFFCURVE",
"50 667 OFFCURVE",
"50 580 CURVE SMOOTH",
"50 210 LINE SMOOTH",
"50 90 OFFCURVE",
"141 -12 OFFCURVE",
"248 -12 CURVE SMOOTH",
"355 -12 OFFCURVE",
"448 90 OFFCURVE",
"448 210 CURVE SMOOTH",
"448 330 OFFCURVE",
"355 432 OFFCURVE",
"248 432 CURVE SMOOTH",
"204 432 OFFCURVE",
"154 408 OFFCURVE",
"127 375 CURVE",
"125 375 LINE",
"125 606 LINE SMOOTH",
"125 653 OFFCURVE",
"127 687 OFFCURVE",
"158 687 CURVE SMOOTH",
"196 687 OFFCURVE",
"212 635 OFFCURVE",
"283 635 CURVE SMOOTH",
"334 635 OFFCURVE",
"372 649 OFFCURVE",
"420 722 CURVE"
);
},
{
closed = 1;
nodes = (
"368 78 OFFCURVE",
"324 3 OFFCURVE",
"248 3 CURVE SMOOTH",
"173 3 OFFCURVE",
"125 78 OFFCURVE",
"125 210 CURVE SMOOTH",
"125 341 OFFCURVE",
"173 417 OFFCURVE",
"248 417 CURVE SMOOTH",
"324 417 OFFCURVE",
"368 341 OFFCURVE",
"368 210 CURVE SMOOTH"
);
}
);
width = 498;
},
{
background = {
paths = (
{
closed = 1;
nodes = (
"419 732 LINE",
"378 690 OFFCURVE",
"360 683 OFFCURVE",
"316 683 CURVE SMOOTH",
"258 683 OFFCURVE",
"247 722 OFFCURVE",
"176 722 CURVE SMOOTH",
"91 722 OFFCURVE",
"60 667 OFFCURVE",
"60 580 CURVE SMOOTH",
"60 210 LINE SMOOTH",
"60 90 OFFCURVE",
"151 -12 OFFCURVE",
"258 -12 CURVE SMOOTH",
"365 -12 OFFCURVE",
"458 90 OFFCURVE",
"458 210 CURVE SMOOTH",
"458 330 OFFCURVE",
"365 432 OFFCURVE",
"258 432 CURVE SMOOTH",
"214 432 OFFCURVE",
"164 408 OFFCURVE",
"137 375 CURVE",
"135 375 LINE",
"135 606 LINE SMOOTH",
"135 653 OFFCURVE",
"137 687 OFFCURVE",
"168 687 CURVE SMOOTH",
"206 687 OFFCURVE",
"222 635 OFFCURVE",
"293 635 CURVE SMOOTH",
"344 635 OFFCURVE",
"382 649 OFFCURVE",
"430 722 CURVE"
);
},
{
closed = 1;
nodes = (
"378 78 OFFCURVE",
"334 3 OFFCURVE",
"258 3 CURVE SMOOTH",
"183 3 OFFCURVE",
"135 78 OFFCURVE",
"135 210 CURVE SMOOTH",
"135 341 OFFCURVE",
"183 417 OFFCURVE",
"258 417 CURVE SMOOTH",
"334 417 OFFCURVE",
"378 341 OFFCURVE",
"378 210 CURVE SMOOTH"
);
}
);
};
layerId = "6701A4D5-8A3D-41DD-8AA0-CFF5D98C5FFE";
paths = (
{
closed = 1;
nodes = (
"419 735 LINE",
"378 693 OFFCURVE",
"360 691 OFFCURVE",
"316 691 CURVE SMOOTH",
"258 691 OFFCURVE",
"247 725 OFFCURVE",
"176 725 CURVE SMOOTH",
"91 725 OFFCURVE",
"40 680 OFFCURVE",
"40 562 CURVE SMOOTH",
"40 230 LINE SMOOTH",
"40 50 OFFCURVE",
"151 -15 OFFCURVE",
"258 -15 CURVE SMOOTH",
"365 -15 OFFCURVE",
"478 60 OFFCURVE",
"478 220 CURVE SMOOTH",
"478 379 OFFCURVE",
"355 431 OFFCURVE",
"284 431 CURVE SMOOTH",
"224 431 OFFCURVE",
"191 414 OFFCURVE",
"177 401 CURVE",
"175 401 LINE",
"175 610 LINE SMOOTH",
"175 648 OFFCURVE",
"187 669 OFFCURVE",
"208 669 CURVE SMOOTH",
"236 669 OFFCURVE",
"264 622 OFFCURVE",
"328 622 CURVE SMOOTH",
"379 622 OFFCURVE",
"424 655 OFFCURVE",
"449 715 CURVE"
);
},
{
closed = 1;
nodes = (
"338 111 OFFCURVE",
"334 15 OFFCURVE",
"258 15 CURVE SMOOTH",
"183 15 OFFCURVE",
"175 111 OFFCURVE",
"175 208 CURVE SMOOTH",
"175 305 OFFCURVE",
"183 401 OFFCURVE",
"258 401 CURVE SMOOTH",
"334 401 OFFCURVE",
"338 305 OFFCURVE",
"338 208 CURVE SMOOTH"
);
}
);
width = 518;
}
);
unicode = 10DC;
},
{
color = 1;
glyphname = "on-georgian";
lastChange = "2017-04-01 18:44:02 +0000";
layers = (
{
backgroundImage = {
crop = "{{0, 0}, {1063, 761}}";
imagePath = links/on_.jpg;
locked = "1";
transform = "{1.757, -0.023, 0.023, 1.757, -98, -477}";
};
layerId = "9ECE4C5B-AE6E-45F8-855F-54F501A6946D";
paths = (
{
closed = 1;
nodes = (
"668 -102 OFFCURVE",
"687 -74 OFFCURVE",
"687 -43 CURVE SMOOTH",
"687 2 OFFCURVE",
"640 27 OFFCURVE",
"579 27 CURVE SMOOTH",
"568 27 OFFCURVE",
"540 24 OFFCURVE",
"522 21 CURVE",
"522 22 LINE",
"604 64 OFFCURVE",
"669 146 OFFCURVE",
"669 235 CURVE SMOOTH",
"669 355 OFFCURVE",
"581 432 OFFCURVE",
"474 432 CURVE SMOOTH",
"426 432 OFFCURVE",
"384 401 OFFCURVE",
"360 358 CURVE",
"359 358 LINE",
"335 401 OFFCURVE",
"293 432 OFFCURVE",
"245 432 CURVE SMOOTH",
"138 432 OFFCURVE",
"50 335 OFFCURVE",
"50 215 CURVE SMOOTH",
"50 95 OFFCURVE",
"133 -5 OFFCURVE",
"256 -5 CURVE",
"256 6 LINE",
"169 30 OFFCURVE",
"127 103 OFFCURVE",
"127 215 CURVE SMOOTH",
"127 346 OFFCURVE",
"179 413 OFFCURVE",
"250 413 CURVE SMOOTH",
"298 413 OFFCURVE",
"330 385 OFFCURVE",
"351 340 CURVE",
"338 310 OFFCURVE",
"322 275 OFFCURVE",
"322 231 CURVE SMOOTH",
"322 209 OFFCURVE",
"336 154 OFFCURVE",
"360 154 CURVE SMOOTH",
"383 154 OFFCURVE",
"397 209 OFFCURVE",
"397 231 CURVE SMOOTH",
"397 275 OFFCURVE",
"381 310 OFFCURVE",
"368 340 CURVE",
"389 385 OFFCURVE",
"421 413 OFFCURVE",
"469 413 CURVE SMOOTH",
"540 413 OFFCURVE",
"592 346 OFFCURVE",
"592 215 CURVE SMOOTH",
"592 103 OFFCURVE",
"520 24 OFFCURVE",
"433 11 CURVE",
"433 -5 LINE",
"463 -2 OFFCURVE",
"514 10 OFFCURVE",
"557 10 CURVE SMOOTH",
"611 10 OFFCURVE",
"640 -5 OFFCURVE",
"640 -27 CURVE",
"639 -27 LINE",
"634 -23 OFFCURVE",
"627 -22 OFFCURVE",
"621 -22 CURVE SMOOTH",
"603 -22 OFFCURVE",
"586 -37 OFFCURVE",
"586 -60 CURVE SMOOTH",
"586 -86 OFFCURVE",
"605 -102 OFFCURVE",
"632 -102 CURVE SMOOTH"
);
}
);
width = 737;
},
{
background = {
paths = (
{
closed = 1;
nodes = (
"61 95 OFFCURVE",
"144 -5 OFFCURVE",
"267 -5 CURVE",
"267 6 LINE",
"180 30 OFFCURVE",
"138 103 OFFCURVE",
"138 215 CURVE SMOOTH",
"138 346 OFFCURVE",
"190 413 OFFCURVE",
"261 413 CURVE SMOOTH",
"309 413 OFFCURVE",
"341 385 OFFCURVE",
"362 340 CURVE",
"349 310 OFFCURVE",
"333 275 OFFCURVE",
"333 231 CURVE SMOOTH",
"333 209 OFFCURVE",
"347 154 OFFCURVE",
"371 154 CURVE SMOOTH",
"394 154 OFFCURVE",
"408 209 OFFCURVE",
"408 231 CURVE SMOOTH",
"408 275 OFFCURVE",
"392 310 OFFCURVE",
"379 340 CURVE",
"400 385 OFFCURVE",
"432 413 OFFCURVE",
"480 413 CURVE SMOOTH",
"551 413 OFFCURVE",
"603 346 OFFCURVE",
"603 215 CURVE SMOOTH",
"603 103 OFFCURVE",
"531 24 OFFCURVE",
"444 11 CURVE",
"444 -5 LINE",
"474 -2 OFFCURVE",
"525 10 OFFCURVE",
"568 10 CURVE SMOOTH",
"622 10 OFFCURVE",
"651 -5 OFFCURVE",
"651 -27 CURVE",
"650 -27 LINE",
"645 -23 OFFCURVE",
"638 -22 OFFCURVE",
"632 -22 CURVE SMOOTH",
"614 -22 OFFCURVE",
"597 -37 OFFCURVE",
"597 -60 CURVE SMOOTH",
"597 -86 OFFCURVE",
"616 -102 OFFCURVE",
"643 -102 CURVE SMOOTH",
"679 -102 OFFCURVE",
"698 -74 OFFCURVE",
"698 -43 CURVE SMOOTH",
"698 2 OFFCURVE",
"651 27 OFFCURVE",
"590 27 CURVE SMOOTH",
"579 27 OFFCURVE",
"551 24 OFFCURVE",
"533 21 CURVE",
"533 22 LINE",
"615 64 OFFCURVE",
"680 146 OFFCURVE",
"680 235 CURVE SMOOTH",
"680 355 OFFCURVE",
"592 432 OFFCURVE",
"485 432 CURVE SMOOTH",
"437 432 OFFCURVE",
"395 401 OFFCURVE",
"371 358 CURVE",
"371 360 LINE",
"371 359 OFFCURVE",
"370 359 OFFCURVE",
"370 358 CURVE",
"346 401 OFFCURVE",
"304 432 OFFCURVE",
"256 432 CURVE SMOOTH",
"149 432 OFFCURVE",
"61 335 OFFCURVE",
"61 215 CURVE SMOOTH"
);
}
);
};
layerId = "6701A4D5-8A3D-41DD-8AA0-CFF5D98C5FFE";
paths = (
{
closed = 1;
nodes = (
"697 -121 OFFCURVE",
"719 -92 OFFCURVE",
"719 -54 CURVE SMOOTH",
"719 -11 OFFCURVE",
"679 24 OFFCURVE",
"630 24 CURVE SMOOTH",
"618 24 OFFCURVE",
"576 23 OFFCURVE",
"558 18 CURVE",
"558 19 LINE",
"630 47 OFFCURVE",
"700 105 OFFCURVE",
"700 214 CURVE SMOOTH",
"700 345 OFFCURVE",
"611 435 OFFCURVE",
"484 435 CURVE SMOOTH",
"442 435 OFFCURVE",
"401 416 OFFCURVE",
"372 372 CURVE",
"370 372 LINE",
"339 418 OFFCURVE",
"299 435 OFFCURVE",
"256 435 CURVE SMOOTH",
"129 435 OFFCURVE",
"40 345 OFFCURVE",
"40 214 CURVE SMOOTH",
"40 68 OFFCURVE",
"172 -7 OFFCURVE",
"285 -7 CURVE",
"287 14 LINE",
"222 58 OFFCURVE",
"177 114 OFFCURVE",
"177 239 CURVE SMOOTH",
"177 354 OFFCURVE",
"223 405 OFFCURVE",
"276 405 CURVE SMOOTH",
"309 405 OFFCURVE",
"336 384 OFFCURVE",
"357 346 CURVE",
"330 314 OFFCURVE",
"310 281 OFFCURVE",
"310 239 CURVE SMOOTH",
"310 197 OFFCURVE",
"348 144 OFFCURVE",
"370 144 CURVE SMOOTH",
"392 144 OFFCURVE",
"430 194 OFFCURVE",
"430 239 CURVE SMOOTH",
"430 281 OFFCURVE",
"411 314 OFFCURVE",
"384 346 CURVE",
"405 384 OFFCURVE",
"431 405 OFFCURVE",
"464 405 CURVE SMOOTH",
"517 405 OFFCURVE",
"563 354 OFFCURVE",
"563 239 CURVE SMOOTH",
"563 114 OFFCURVE",
"531 65 OFFCURVE",
"454 14 CURVE",
"457 -7 LINE",
"491 -7 OFFCURVE",
"551 3 OFFCURVE",
"598 3 CURVE SMOOTH",
"637 3 OFFCURVE",
"652 -9 OFFCURVE",
"652 -26 CURVE",
"650 -26 LINE",
"648 -24 OFFCURVE",
"643 -23 OFFCURVE",
"638 -23 CURVE SMOOTH",
"616 -23 OFFCURVE",
"595 -39 OFFCURVE",
"595 -68 CURVE SMOOTH",
"595 -99 OFFCURVE",
"618 -121 OFFCURVE",
"652 -121 CURVE SMOOTH"
);
}
);
width = 759;
}
);
leftKerningGroup = "in-georgian";
unicode = 10DD;
},
{
color = 1;
glyphname = "par-georgian";
lastChange = "2017-04-01 19:13:22 +0000";
layers = (
{
backgroundImage = {
crop = "{{0, 0}, {1294, 664}}";
imagePath = links/par.jpg;
locked = "1";
transform = "{1.74, -0.018, 0.018, 1.74, -114, -364}";
};
layerId = "9ECE4C5B-AE6E-45F8-855F-54F501A6946D";
paths = (
{
closed = 1;
nodes = (
"365 -12 OFFCURVE",
"465 63 OFFCURVE",
"465 158 CURVE SMOOTH",
"465 271 OFFCURVE",
"389 311 OFFCURVE",
"317 329 CURVE",
"317 331 LINE",
"347 337 OFFCURVE",
"440 377 OFFCURVE",
"440 464 CURVE SMOOTH",
"440 639 OFFCURVE",
"162 574 OFFCURVE",
"162 653 CURVE SMOOTH",
"162 692 OFFCURVE",
"207 707 OFFCURVE",
"233 707 CURVE",
"233 722 LINE",
"199 722 OFFCURVE",
"132 703 OFFCURVE",
"132 640 CURVE SMOOTH",
"132 489 OFFCURVE",
"390 565 OFFCURVE",
"390 436 CURVE SMOOTH",
"390 370 OFFCURVE",
"342 335 OFFCURVE",
"246 335 CURVE",
"219 335 LINE",
"219 320 LINE",
"236 320 LINE",
"349 320 OFFCURVE",
"385 249 OFFCURVE",
"385 158 CURVE SMOOTH",
"385 67 OFFCURVE",
"332 3 OFFCURVE",
"257 3 CURVE SMOOTH",
"190 3 OFFCURVE",
"120 54 OFFCURVE",
"120 140 CURVE SMOOTH",
"120 196 OFFCURVE",
"145 239 OFFCURVE",
"193 248 CURVE",
"190 260 LINE",
"145 260 OFFCURVE",
"50 227 OFFCURVE",
"50 138 CURVE SMOOTH",
"50 49 OFFCURVE",
"149 -12 OFFCURVE",
"254 -12 CURVE SMOOTH"
);
}
);
width = 515;
},
{
layerId = "6701A4D5-8A3D-41DD-8AA0-CFF5D98C5FFE";
paths = (
{
closed = 1;
nodes = (
"382 -15 OFFCURVE",
"509 33 OFFCURVE",
"509 158 CURVE SMOOTH",
"509 273 OFFCURVE",
"423 323 OFFCURVE",
"351 331 CURVE",
"351 333 LINE",
"381 339 OFFCURVE",
"484 365 OFFCURVE",
"484 461 CURVE SMOOTH",
"484 638 OFFCURVE",
"186 596 OFFCURVE",
"186 659 CURVE SMOOTH",
"186 685 OFFCURVE",
"211 695 OFFCURVE",
"237 695 CURVE",
"237 725 LINE",
"203 725 OFFCURVE",
"136 706 OFFCURVE",
"136 629 CURVE SMOOTH",
"136 484 OFFCURVE",
"374 537 OFFCURVE",
"374 432 CURVE SMOOTH",
"374 386 OFFCURVE",
"352 347 OFFCURVE",
"270 347 CURVE",
"225 347 LINE",
"225 317 LINE",
"260 317 LINE",
"373 317 OFFCURVE",
"370 201 OFFCURVE",
"369 158 CURVE SMOOTH",
"368 107 OFFCURVE",
"356 15 OFFCURVE",
"265 15 CURVE SMOOTH",
"204 15 OFFCURVE",
"160 49 OFFCURVE",
"160 124 CURVE SMOOTH",
"160 158 OFFCURVE",
"165 207 OFFCURVE",
"207 233 CURVE",
"204 263 LINE",
"146 263 OFFCURVE",
"40 238 OFFCURVE",
"40 135 CURVE SMOOTH",
"40 29 OFFCURVE",
"163 -15 OFFCURVE",
"270 -15 CURVE SMOOTH"
);
}
);
width = 549;
}
);
unicode = 10DE;
},
{
color = 1;
glyphname = "zhar-georgian";
lastChange = "2017-04-01 18:51:50 +0000";
layers = (
{
backgroundImage = {
crop = "{{0, 0}, {556, 516}}";
imagePath = links/zhar.jpg;
locked = "1";
transform = "{1.8, 0.034, -0.034, 1.8, -445, -383}";
};
layerId = "9ECE4C5B-AE6E-45F8-855F-54F501A6946D";
paths = (
{
closed = 1;
nodes = (
"50 -239 OFFCURVE",
"134 -312 OFFCURVE",
"257 -312 CURVE SMOOTH",
"362 -312 OFFCURVE",
"458 -213 OFFCURVE",
"458 -95 CURVE SMOOTH",
"458 420 LINE",
"383 420 LINE",
"383 -95 LINE SMOOTH",
"383 -223 OFFCURVE",
"329 -293 OFFCURVE",
"257 -297 CURVE SMOOTH",
"181 -297 OFFCURVE",
"120 -243 OFFCURVE",
"120 -137 CURVE SMOOTH",
"120 -38 OFFCURVE",
"155 -14 OFFCURVE",
"222 15 CURVE",
"219 27 LINE",
"171 20 OFFCURVE",
"50 -29 OFFCURVE",
"50 -147 CURVE SMOOTH"
);
},
{
closed = 1;
nodes = (
"130 223 OFFCURVE",
"108 254 OFFCURVE",
"108 290 CURVE SMOOTH",
"108 309 OFFCURVE",
"113 326 OFFCURVE",
"122 349 CURVE",
"107 354 LINE",
"94 329 OFFCURVE",
"88 300 OFFCURVE",
"88 271 CURVE SMOOTH",
"88 211 OFFCURVE",
"120 155 OFFCURVE",
"171 155 CURVE SMOOTH",
"226 155 OFFCURVE",
"260 202 OFFCURVE",
"260 273 CURVE SMOOTH",
"260 284 OFFCURVE",
"258 296 OFFCURVE",
"255 307 CURVE",
"312 316 OFFCURVE",
"362 345 OFFCURVE",
"386 395 CURVE",
"383 420 LINE",
"351 357 OFFCURVE",
"303 345 OFFCURVE",
"234 342 CURVE",
"237 328 OFFCURVE",
"240 316 OFFCURVE",
"240 292 CURVE SMOOTH",
"240 255 OFFCURVE",
"220 223 OFFCURVE",
"171 223 CURVE SMOOTH"
);
}
);
width = 508;
},
{
background = {
paths = (
{
closed = 1;
nodes = (
"60 -239 OFFCURVE",
"144 -312 OFFCURVE",
"267 -312 CURVE SMOOTH",
"372 -312 OFFCURVE",
"468 -213 OFFCURVE",
"468 -95 CURVE SMOOTH",
"468 420 LINE",
"393 420 LINE",
"393 -95 LINE SMOOTH",
"393 -223 OFFCURVE",
"339 -293 OFFCURVE",
"267 -297 CURVE SMOOTH",
"191 -297 OFFCURVE",
"130 -243 OFFCURVE",
"130 -137 CURVE SMOOTH",
"130 -38 OFFCURVE",
"165 -14 OFFCURVE",
"232 15 CURVE",
"229 27 LINE",
"181 20 OFFCURVE",
"60 -29 OFFCURVE",
"60 -147 CURVE SMOOTH"
);
},
{
closed = 1;
nodes = (
"140 223 OFFCURVE",
"118 254 OFFCURVE",
"118 290 CURVE SMOOTH",
"118 309 OFFCURVE",
"123 326 OFFCURVE",
"132 349 CURVE",
"117 354 LINE",
"104 329 OFFCURVE",
"98 300 OFFCURVE",
"98 271 CURVE SMOOTH",
"98 211 OFFCURVE",
"130 155 OFFCURVE",
"181 155 CURVE SMOOTH",
"236 155 OFFCURVE",
"270 202 OFFCURVE",
"270 273 CURVE SMOOTH",
"270 284 OFFCURVE",
"268 296 OFFCURVE",
"265 307 CURVE",
"322 316 OFFCURVE",
"372 345 OFFCURVE",
"396 395 CURVE",
"393 420 LINE",
"361 357 OFFCURVE",
"313 345 OFFCURVE",
"244 342 CURVE",
"247 328 OFFCURVE",
"250 316 OFFCURVE",
"250 292 CURVE SMOOTH",
"250 255 OFFCURVE",
"230 223 OFFCURVE",
"181 223 CURVE SMOOTH"
);
}
);
};
layerId = "6701A4D5-8A3D-41DD-8AA0-CFF5D98C5FFE";
paths = (
{
closed = 1;
nodes = (
"40 -259 OFFCURVE",
"141 -315 OFFCURVE",
"264 -315 CURVE SMOOTH",
"369 -315 OFFCURVE",
"488 -260 OFFCURVE",
"488 -73 CURVE SMOOTH",
"488 420 LINE",
"353 420 LINE",
"353 -95 LINE SMOOTH",
"353 -194 OFFCURVE",
"339 -285 OFFCURVE",
"259 -285 CURVE SMOOTH",
"207 -285 OFFCURVE",
"160 -244 OFFCURVE",
"160 -150 CURVE SMOOTH",
"160 -72 OFFCURVE",
"181 -30 OFFCURVE",
"236 -2 CURVE",
"229 27 LINE",
"181 20 OFFCURVE",
"40 -9 OFFCURVE",
"40 -147 CURVE SMOOTH"
);
},
{
closed = 1;
nodes = (
"148 233 OFFCURVE",
"124 259 OFFCURVE",
"124 295 CURVE SMOOTH",
"124 314 OFFCURVE",
"129 333 OFFCURVE",
"138 349 CURVE",
"108 354 LINE",
"95 329 OFFCURVE",
"86 290 OFFCURVE",
"86 261 CURVE SMOOTH",
"86 201 OFFCURVE",
"111 135 OFFCURVE",
"172 135 CURVE SMOOTH",
"237 135 OFFCURVE",
"274 184 OFFCURVE",
"274 255 CURVE SMOOTH",
"274 266 OFFCURVE",
"271 288 OFFCURVE",
"268 299 CURVE",
"325 318 OFFCURVE",
"332 335 OFFCURVE",
"356 365 CURVE",
"353 420 LINE",
"321 357 OFFCURVE",
"301 345 OFFCURVE",
"232 342 CURVE",
"235 328 OFFCURVE",
"238 316 OFFCURVE",
"238 292 CURVE SMOOTH",
"238 255 OFFCURVE",
"218 233 OFFCURVE",
"179 233 CURVE SMOOTH"
);
}
);
width = 528;
}
);
unicode = 10DF;
},
{
color = 1;
glyphname = "rae-georgian";
lastChange = "2017-04-01 18:55:00 +0000";
layers = (
{
background = {
paths = (
{
closed = 1;
nodes = (
"151 -5 OFFCURVE",
"50 73 OFFCURVE",
"50 263 CURVE SMOOTH",
"50 517 OFFCURVE",
"195 592 OFFCURVE",
"338 593 CURVE SMOOTH",
"491 594 OFFCURVE",
"578 590 OFFCURVE",
"578 643 CURVE SMOOTH",
"578 682 OFFCURVE",
"532 697 OFFCURVE",
"462 697 CURVE",
"462 712 LINE",
"540 712 OFFCURVE",
"609 706 OFFCURVE",
"609 633 CURVE SMOOTH",
"609 559 OFFCURVE",
"522 524 OFFCURVE",
"395 522 CURVE SMOOTH",
"313 521 OFFCURVE",
"252 524 OFFCURVE",
"206 513 CURVE SMOOTH",
"111 490 OFFCURVE",
"68 390 OFFCURVE",
"68 302 CURVE",
"70 302 LINE",
"92 384 OFFCURVE",
"150 432 OFFCURVE",
"251 432 CURVE SMOOTH",
"299 432 OFFCURVE",
"344 401 OFFCURVE",
"368 358 CURVE",
"368 359 OFFCURVE",
"369 359 OFFCURVE",
"369 360 CURVE",
"369 358 LINE",
"393 401 OFFCURVE",
"445 432 OFFCURVE",
"493 432 CURVE SMOOTH",
"600 432 OFFCURVE",
"688 355 OFFCURVE",
"688 235 CURVE SMOOTH",
"688 68 OFFCURVE",
"566 -5 OFFCURVE",
"459 -5 CURVE",
"459 8 LINE",
"546 21 OFFCURVE",
"611 88 OFFCURVE",
"611 215 CURVE SMOOTH",
"611 346 OFFCURVE",
"559 413 OFFCURVE",
"488 413 CURVE SMOOTH",
"440 413 OFFCURVE",
"398 385 OFFCURVE",
"377 340 CURVE",
"390 310 OFFCURVE",
"406 275 OFFCURVE",
"406 231 CURVE SMOOTH",
"406 209 OFFCURVE",
"392 154 OFFCURVE",
"369 154 CURVE SMOOTH",
"345 154 OFFCURVE",
"331 209 OFFCURVE",
"331 231 CURVE SMOOTH",
"331 275 OFFCURVE",
"347 310 OFFCURVE",
"360 340 CURVE",
"339 385 OFFCURVE",
"304 413 OFFCURVE",
"256 413 CURVE SMOOTH",
"185 413 OFFCURVE",
"128 346 OFFCURVE",
"128 215 CURVE SMOOTH",
"128 79 OFFCURVE",
"175 30 OFFCURVE",
"262 6 CURVE",
"262 -5 LINE"
);
}
);
};
backgroundImage = {
crop = "{{0, 0}, {1499, 598}}";
imagePath = links/jil_.jpg;
locked = "1";
transform = "{1.81, 0, 0, 1.81, -1945, -245}";
};
layerId = "9ECE4C5B-AE6E-45F8-855F-54F501A6946D";
paths = (
{
closed = 1;
nodes = (
"262 6 LINE",
"175 30 OFFCURVE",
"128 79 OFFCURVE",
"128 215 CURVE SMOOTH",
"128 346 OFFCURVE",
"185 413 OFFCURVE",
"256 413 CURVE SMOOTH",
"304 413 OFFCURVE",
"339 385 OFFCURVE",
"360 340 CURVE",
"347 310 OFFCURVE",
"331 275 OFFCURVE",
"331 231 CURVE SMOOTH",
"331 209 OFFCURVE",
"345 154 OFFCURVE",
"369 154 CURVE SMOOTH",
"392 154 OFFCURVE",
"406 209 OFFCURVE",
"406 231 CURVE SMOOTH",
"406 275 OFFCURVE",
"390 310 OFFCURVE",
"377 340 CURVE",
"398 385 OFFCURVE",
"440 413 OFFCURVE",
"488 413 CURVE SMOOTH",
"559 413 OFFCURVE",
"611 346 OFFCURVE",
"611 215 CURVE SMOOTH",
"611 88 OFFCURVE",
"546 21 OFFCURVE",
"459 8 CURVE",
"459 -5 LINE",
"566 -5 OFFCURVE",
"688 68 OFFCURVE",
"688 235 CURVE SMOOTH",
"688 355 OFFCURVE",
"600 432 OFFCURVE",
"493 432 CURVE SMOOTH",
"445 432 OFFCURVE",
"393 401 OFFCURVE",
"369 358 CURVE",
"369 360 LINE",
"369 359 OFFCURVE",
"368 359 OFFCURVE",
"368 358 CURVE",
"344 401 OFFCURVE",
"299 432 OFFCURVE",
"251 432 CURVE SMOOTH",
"150 432 OFFCURVE",
"92 384 OFFCURVE",
"70 302 CURVE",
"68 302 LINE",
"68 390 OFFCURVE",
"111 490 OFFCURVE",
"206 513 CURVE SMOOTH",
"252 524 OFFCURVE",
"313 521 OFFCURVE",
"395 522 CURVE SMOOTH",
"522 524 OFFCURVE",
"609 559 OFFCURVE",
"609 633 CURVE SMOOTH",
"609 706 OFFCURVE",
"540 712 OFFCURVE",
"462 712 CURVE",
"462 697 LINE",
"532 697 OFFCURVE",
"578 682 OFFCURVE",
"578 643 CURVE SMOOTH",
"578 590 OFFCURVE",
"491 594 OFFCURVE",
"338 593 CURVE SMOOTH",
"195 592 OFFCURVE",
"50 517 OFFCURVE",
"50 263 CURVE SMOOTH",
"50 73 OFFCURVE",
"151 -5 OFFCURVE",
"262 -5 CURVE"
);
}
);
width = 738;
},
{
background = {
paths = (
{
closed = 1;
nodes = (
"161 -5 OFFCURVE",
"60 73 OFFCURVE",
"60 263 CURVE SMOOTH",
"60 517 OFFCURVE",
"205 592 OFFCURVE",
"348 593 CURVE SMOOTH",
"501 594 OFFCURVE",
"588 590 OFFCURVE",
"588 643 CURVE SMOOTH",
"588 682 OFFCURVE",
"542 697 OFFCURVE",
"472 697 CURVE",
"472 712 LINE",
"550 712 OFFCURVE",
"619 706 OFFCURVE",
"619 633 CURVE SMOOTH",
"619 559 OFFCURVE",
"532 524 OFFCURVE",
"405 522 CURVE SMOOTH",
"323 521 OFFCURVE",
"262 524 OFFCURVE",
"216 513 CURVE SMOOTH",
"121 490 OFFCURVE",
"78 390 OFFCURVE",
"78 302 CURVE",
"80 302 LINE",
"102 384 OFFCURVE",
"160 432 OFFCURVE",
"261 432 CURVE SMOOTH",
"309 432 OFFCURVE",
"354 401 OFFCURVE",
"378 358 CURVE",
"378 359 OFFCURVE",
"379 359 OFFCURVE",
"379 360 CURVE",
"379 358 LINE",
"403 401 OFFCURVE",
"455 432 OFFCURVE",
"503 432 CURVE SMOOTH",
"610 432 OFFCURVE",
"698 355 OFFCURVE",
"698 235 CURVE SMOOTH",
"698 68 OFFCURVE",
"576 -5 OFFCURVE",
"469 -5 CURVE",
"469 8 LINE",
"556 21 OFFCURVE",
"621 88 OFFCURVE",
"621 215 CURVE SMOOTH",
"621 346 OFFCURVE",
"569 413 OFFCURVE",
"498 413 CURVE SMOOTH",
"450 413 OFFCURVE",
"408 385 OFFCURVE",
"387 340 CURVE",
"400 310 OFFCURVE",
"416 275 OFFCURVE",
"416 231 CURVE SMOOTH",
"416 209 OFFCURVE",
"402 154 OFFCURVE",
"379 154 CURVE SMOOTH",
"355 154 OFFCURVE",
"341 209 OFFCURVE",
"341 231 CURVE SMOOTH",
"341 275 OFFCURVE",
"357 310 OFFCURVE",
"370 340 CURVE",
"349 385 OFFCURVE",
"314 413 OFFCURVE",
"266 413 CURVE SMOOTH",
"195 413 OFFCURVE",
"138 346 OFFCURVE",
"138 215 CURVE SMOOTH",
"138 79 OFFCURVE",
"185 30 OFFCURVE",
"272 6 CURVE",
"272 -5 LINE"
);
}
);
};
layerId = "6701A4D5-8A3D-41DD-8AA0-CFF5D98C5FFE";
paths = (
{
closed = 1;
nodes = (
"288 13 LINE",
"226 49 OFFCURVE",
"178 94 OFFCURVE",
"178 230 CURVE SMOOTH",
"178 330 OFFCURVE",
"208 402 OFFCURVE",
"280 402 CURVE SMOOTH",
"314 402 OFFCURVE",
"336 390 OFFCURVE",
"362 345 CURVE",
"349 325 OFFCURVE",
"320 289 OFFCURVE",
"320 239 CURVE SMOOTH",
"320 190 OFFCURVE",
"356 141 OFFCURVE",
"380 141 CURVE SMOOTH",
"403 141 OFFCURVE",
"438 190 OFFCURVE",
"438 239 CURVE SMOOTH",
"438 289 OFFCURVE",
"409 325 OFFCURVE",
"396 345 CURVE",
"422 390 OFFCURVE",
"445 402 OFFCURVE",
"479 402 CURVE SMOOTH",
"551 402 OFFCURVE",
"580 330 OFFCURVE",
"580 230 CURVE SMOOTH",
"580 94 OFFCURVE",
"532 44 OFFCURVE",
"471 15 CURVE",
"473 -15 LINE",
"580 -15 OFFCURVE",
"717 50 OFFCURVE",
"717 230 CURVE SMOOTH",
"717 365 OFFCURVE",
"610 432 OFFCURVE",
"520 432 CURVE SMOOTH",
"455 432 OFFCURVE",
"407 411 OFFCURVE",
"379 368 CURVE",
"379 370 LINE",
"379 369 OFFCURVE",
"378 369 OFFCURVE",
"378 368 CURVE",
"351 411 OFFCURVE",
"309 432 OFFCURVE",
"250 432 CURVE SMOOTH",
"160 432 OFFCURVE",
"100 394 OFFCURVE",
"78 312 CURVE",
"76 312 LINE",
"79 400 OFFCURVE",
"101 484 OFFCURVE",
"216 507 CURVE SMOOTH",
"262 516 OFFCURVE",
"360 515 OFFCURVE",
"442 516 CURVE SMOOTH",
"609 518 OFFCURVE",
"665 567 OFFCURVE",
"665 638 CURVE SMOOTH",
"665 716 OFFCURVE",
"598 725 OFFCURVE",
"520 725 CURVE",
"520 695 LINE",
"590 695 OFFCURVE",
"625 685 OFFCURVE",
"625 658 CURVE SMOOTH",
"625 616 OFFCURVE",
"538 624 OFFCURVE",
"348 623 CURVE SMOOTH",
"155 622 OFFCURVE",
"40 517 OFFCURVE",
"40 254 CURVE SMOOTH",
"40 60 OFFCURVE",
"175 -15 OFFCURVE",
"286 -15 CURVE"
);
}
);
width = 757;
}
);
unicode = 10E0;
},
{
color = 1;
glyphname = "san-georgian";
lastChange = "2017-04-01 19:13:28 +0000";
layers = (
{
backgroundImage = {
crop = "{{0, 0}, {911, 674}}";
imagePath = links/san_.jpg;
locked = "1";
transform = "{1.831, 0.045, -0.045, 1.831, -1009, -471}";
};
layerId = "9ECE4C5B-AE6E-45F8-855F-54F501A6946D";
paths = (
{
closed = 1;
nodes = (
"370 538 LINE",
"367 521 OFFCURVE",
"364 500 OFFCURVE",
"364 470 CURVE SMOOTH",
"364 319 OFFCURVE",
"485 340 OFFCURVE",
"485 181 CURVE SMOOTH",
"485 58 OFFCURVE",
"437 3 OFFCURVE",
"361 3 CURVE SMOOTH",
"286 3 OFFCURVE",
"243 73 OFFCURVE",
"243 205 CURVE SMOOTH",
"243 610 LINE SMOOTH",
"243 671 OFFCURVE",
"217 722 OFFCURVE",
"149 722 CURVE SMOOTH",
"82 722 OFFCURVE",
"50 671 OFFCURVE",
"50 604 CURVE",
"69 604 LINE",
"69 658 OFFCURVE",
"88 684 OFFCURVE",
"121 684 CURVE SMOOTH",
"157 684 OFFCURVE",
"168 655 OFFCURVE",
"168 604 CURVE SMOOTH",
"168 205 LINE SMOOTH",
"168 85 OFFCURVE",
"254 -12 OFFCURVE",
"361 -12 CURVE SMOOTH",
"468 -12 OFFCURVE",
"565 85 OFFCURVE",
"565 198 CURVE SMOOTH",
"565 372 OFFCURVE",
"379 364 OFFCURVE",
"379 467 CURVE SMOOTH",
"379 493 OFFCURVE",
"380 512 OFFCURVE",
"385 538 CURVE"
);
}
);
width = 615;
},
{
background = {
paths = (
{
closed = 1;
nodes = (
"360 538 LINE",
"357 521 OFFCURVE",
"354 500 OFFCURVE",
"354 470 CURVE SMOOTH",
"354 319 OFFCURVE",
"475 340 OFFCURVE",
"475 181 CURVE SMOOTH",
"475 58 OFFCURVE",
"427 3 OFFCURVE",
"351 3 CURVE SMOOTH",
"276 3 OFFCURVE",
"233 73 OFFCURVE",
"233 205 CURVE SMOOTH",
"233 610 LINE SMOOTH",
"233 671 OFFCURVE",
"207 722 OFFCURVE",
"139 722 CURVE SMOOTH",
"72 722 OFFCURVE",
"40 671 OFFCURVE",
"40 604 CURVE",
"59 604 LINE",
"59 658 OFFCURVE",
"78 684 OFFCURVE",
"111 684 CURVE SMOOTH",
"147 684 OFFCURVE",
"158 655 OFFCURVE",
"158 604 CURVE SMOOTH",
"158 205 LINE SMOOTH",
"158 85 OFFCURVE",
"244 -12 OFFCURVE",
"351 -12 CURVE SMOOTH",
"458 -12 OFFCURVE",
"555 85 OFFCURVE",
"555 198 CURVE SMOOTH",
"555 372 OFFCURVE",
"369 364 OFFCURVE",
"369 467 CURVE SMOOTH",
"369 493 OFFCURVE",
"370 512 OFFCURVE",
"375 538 CURVE"
);
}
);
};
layerId = "6701A4D5-8A3D-41DD-8AA0-CFF5D98C5FFE";
paths = (
{
closed = 1;
nodes = (
"360 538 LINE",
"357 521 OFFCURVE",
"354 500 OFFCURVE",
"354 470 CURVE SMOOTH",
"354 319 OFFCURVE",
"435 389 OFFCURVE",
"435 200 CURVE SMOOTH",
"435 93 OFFCURVE",
"427 15 OFFCURVE",
"351 15 CURVE SMOOTH",
"276 15 OFFCURVE",
"273 100 OFFCURVE",
"273 202 CURVE SMOOTH",
"273 592 LINE SMOOTH",
"273 694 OFFCURVE",
"217 725 OFFCURVE",
"151 725 CURVE SMOOTH",
"66 725 OFFCURVE",
"40 674 OFFCURVE",
"40 607 CURVE",
"70 607 LINE",
"70 661 OFFCURVE",
"85 687 OFFCURVE",
"106 687 CURVE SMOOTH",
"142 687 OFFCURVE",
"138 627 OFFCURVE",
"138 597 CURVE SMOOTH",
"138 223 LINE SMOOTH",
"138 56 OFFCURVE",
"244 -15 OFFCURVE",
"351 -15 CURVE SMOOTH",
"458 -15 OFFCURVE",
"575 52 OFFCURVE",
"575 195 CURVE SMOOTH",
"575 379 OFFCURVE",
"384 364 OFFCURVE",
"384 467 CURVE SMOOTH",
"384 493 OFFCURVE",
"385 512 OFFCURVE",
"390 538 CURVE"
);
}
);
width = 615;
}
);
rightKerningGroup = "an-georgian";
unicode = 10E1;
},
{
color = 1;
glyphname = "tar-georgian";
lastChange = "2017-04-01 19:13:34 +0000";
layers = (
{
backgroundImage = {
crop = "{{0, 0}, {715, 656}}";
imagePath = links/tar.jpg;
locked = "1";
transform = "{1.788, 0, 0, 1.788, -549, -391}";
};
layerId = "9ECE4C5B-AE6E-45F8-855F-54F501A6946D";
paths = (
{
closed = 1;
nodes = (
"110 288 OFFCURVE",
"172 312 OFFCURVE",
"219 342 CURVE",
"221 340 LINE",
"155 251 OFFCURVE",
"98 189 OFFCURVE",
"98 23 CURVE SMOOTH",
"98 -223 OFFCURVE",
"285 -312 OFFCURVE",
"399 -312 CURVE SMOOTH",
"515 -312 OFFCURVE",
"688 -223 OFFCURVE",
"688 50 CURVE SMOOTH",
"688 316 OFFCURVE",
"529 396 OFFCURVE",
"418 407 CURVE",
"418 409 LINE",
"444 422 OFFCURVE",
"467 452 OFFCURVE",
"467 485 CURVE SMOOTH",
"467 530 OFFCURVE",
"429 570 OFFCURVE",
"387 570 CURVE SMOOTH",
"343 570 OFFCURVE",
"306 530 OFFCURVE",
"306 485 CURVE SMOOTH",
"306 446 OFFCURVE",
"333 416 OFFCURVE",
"366 405 CURVE",
"366 403 LINE",
"331 394 OFFCURVE",
"301 356 OFFCURVE",
"301 314 CURVE SMOOTH",
"301 264 OFFCURVE",
"343 223 OFFCURVE",
"387 223 CURVE SMOOTH",
"429 223 OFFCURVE",
"474 264 OFFCURVE",
"474 314 CURVE SMOOTH",
"474 347 OFFCURVE",
"448 382 OFFCURVE",
"423 396 CURVE",
"423 398 LINE",
"525 378 OFFCURVE",
"605 268 OFFCURVE",
"605 33 CURVE SMOOTH",
"605 -208 OFFCURVE",
"506 -297 OFFCURVE",
"399 -297 CURVE SMOOTH",
"293 -297 OFFCURVE",
"181 -208 OFFCURVE",
"181 33 CURVE SMOOTH",
"181 159 OFFCURVE",
"190 294 OFFCURVE",
"287 394 CURVE",
"274 407 LINE",
"207 343 OFFCURVE",
"135 310 OFFCURVE",
"50 305 CURVE",
"50 286 LINE"
);
},
{
closed = 1;
nodes = (
"340 365 OFFCURVE",
"356 399 OFFCURVE",
"387 399 CURVE SMOOTH",
"416 399 OFFCURVE",
"434 365 OFFCURVE",
"434 314 CURVE SMOOTH",
"434 263 OFFCURVE",
"416 233 OFFCURVE",
"387 233 CURVE SMOOTH",
"356 233 OFFCURVE",
"340 263 OFFCURVE",
"340 314 CURVE SMOOTH"
);
},
{
closed = 1;
nodes = (
"347 529 OFFCURVE",
"356 560 OFFCURVE",
"387 560 CURVE SMOOTH",
"416 560 OFFCURVE",
"426 529 OFFCURVE",
"426 485 CURVE SMOOTH",
"426 440 OFFCURVE",
"416 409 OFFCURVE",
"387 409 CURVE SMOOTH",
"356 409 OFFCURVE",
"347 440 OFFCURVE",
"347 485 CURVE SMOOTH"
);
}
);
width = 738;
},
{
background = {
paths = (
{
closed = 1;
nodes = (
"100 288 OFFCURVE",
"162 312 OFFCURVE",
"209 342 CURVE",
"211 340 LINE",
"145 251 OFFCURVE",
"88 189 OFFCURVE",
"88 23 CURVE SMOOTH",
"88 -223 OFFCURVE",
"275 -312 OFFCURVE",
"389 -312 CURVE SMOOTH",
"505 -312 OFFCURVE",
"678 -223 OFFCURVE",
"678 50 CURVE SMOOTH",
"678 316 OFFCURVE",
"519 396 OFFCURVE",
"408 407 CURVE",
"408 409 LINE",
"434 422 OFFCURVE",
"457 452 OFFCURVE",
"457 485 CURVE SMOOTH",
"457 530 OFFCURVE",
"419 570 OFFCURVE",
"377 570 CURVE SMOOTH",
"333 570 OFFCURVE",
"296 530 OFFCURVE",
"296 485 CURVE SMOOTH",
"296 446 OFFCURVE",
"323 416 OFFCURVE",
"356 405 CURVE",
"356 403 LINE",
"321 394 OFFCURVE",
"291 356 OFFCURVE",
"291 314 CURVE SMOOTH",
"291 264 OFFCURVE",
"333 223 OFFCURVE",
"377 223 CURVE SMOOTH",
"419 223 OFFCURVE",
"464 264 OFFCURVE",
"464 314 CURVE SMOOTH",
"464 347 OFFCURVE",
"438 382 OFFCURVE",
"413 396 CURVE",
"413 398 LINE",
"515 378 OFFCURVE",
"595 268 OFFCURVE",
"595 33 CURVE SMOOTH",
"595 -208 OFFCURVE",
"496 -297 OFFCURVE",
"389 -297 CURVE SMOOTH",
"283 -297 OFFCURVE",
"171 -208 OFFCURVE",
"171 33 CURVE SMOOTH",
"171 159 OFFCURVE",
"180 294 OFFCURVE",
"277 394 CURVE",
"264 407 LINE",
"197 343 OFFCURVE",
"125 310 OFFCURVE",
"40 305 CURVE",
"40 286 LINE"
);
},
{
closed = 1;
nodes = (
"330 365 OFFCURVE",
"346 399 OFFCURVE",
"377 399 CURVE SMOOTH",
"406 399 OFFCURVE",
"424 365 OFFCURVE",
"424 314 CURVE SMOOTH",
"424 263 OFFCURVE",
"406 233 OFFCURVE",
"377 233 CURVE SMOOTH",
"346 233 OFFCURVE",
"330 263 OFFCURVE",
"330 314 CURVE SMOOTH"
);
},
{
closed = 1;
nodes = (
"337 529 OFFCURVE",
"346 560 OFFCURVE",
"377 560 CURVE SMOOTH",
"406 560 OFFCURVE",
"416 529 OFFCURVE",
"416 485 CURVE SMOOTH",
"416 440 OFFCURVE",
"406 409 OFFCURVE",
"377 409 CURVE SMOOTH",
"346 409 OFFCURVE",
"337 440 OFFCURVE",
"337 485 CURVE SMOOTH"
);
}
);
};
layerId = "6701A4D5-8A3D-41DD-8AA0-CFF5D98C5FFE";
paths = (
{
closed = 1;
nodes = (
"100 285 OFFCURVE",
"146 297 OFFCURVE",
"193 327 CURVE",
"195 325 LINE",
"119 267 OFFCURVE",
"68 157 OFFCURVE",
"68 29 CURVE SMOOTH",
"68 -217 OFFCURVE",
"285 -312 OFFCURVE",
"399 -312 CURVE SMOOTH",
"515 -312 OFFCURVE",
"708 -227 OFFCURVE",
"708 56 CURVE SMOOTH",
"708 312 OFFCURVE",
"529 400 OFFCURVE",
"418 411 CURVE",
"418 413 LINE",
"444 421 OFFCURVE",
"477 441 OFFCURVE",
"477 487 CURVE SMOOTH",
"477 546 OFFCURVE",
"439 577 OFFCURVE",
"387 577 CURVE SMOOTH",
"333 577 OFFCURVE",
"296 546 OFFCURVE",
"296 487 CURVE SMOOTH",
"296 438 OFFCURVE",
"333 417 OFFCURVE",
"366 406 CURVE",
"366 404 LINE",
"331 395 OFFCURVE",
"291 363 OFFCURVE",
"291 308 CURVE SMOOTH",
"291 247 OFFCURVE",
"333 210 OFFCURVE",
"387 210 CURVE SMOOTH",
"439 210 OFFCURVE",
"484 244 OFFCURVE",
"484 308 CURVE SMOOTH",
"484 349 OFFCURVE",
"461 384 OFFCURVE",
"423 391 CURVE",
"423 393 LINE",
"525 373 OFFCURVE",
"568 294 OFFCURVE",
"568 49 CURVE SMOOTH",
"568 -202 OFFCURVE",
"506 -282 OFFCURVE",
"399 -282 CURVE SMOOTH",
"293 -282 OFFCURVE",
"208 -202 OFFCURVE",
"208 49 CURVE SMOOTH",
"208 175 OFFCURVE",
"217 316 OFFCURVE",
"282 391 CURVE",
"261 416 LINE",
"194 352 OFFCURVE",
"125 318 OFFCURVE",
"40 313 CURVE",
"40 283 LINE"
);
},
{
closed = 1;
nodes = (
"350 359 OFFCURVE",
"359 391 OFFCURVE",
"387 391 CURVE SMOOTH",
"414 391 OFFCURVE",
"424 359 OFFCURVE",
"424 311 CURVE SMOOTH",
"424 271 OFFCURVE",
"416 230 OFFCURVE",
"387 230 CURVE SMOOTH",
"356 230 OFFCURVE",
"350 271 OFFCURVE",
"350 311 CURVE SMOOTH"
);
},
{
closed = 1;
nodes = (
"357 521 OFFCURVE",
"356 557 OFFCURVE",
"387 557 CURVE SMOOTH",
"416 557 OFFCURVE",
"416 521 OFFCURVE",
"416 482 CURVE SMOOTH",
"416 459 OFFCURVE",
"413 421 OFFCURVE",
"387 421 CURVE SMOOTH",
"359 421 OFFCURVE",
"357 459 OFFCURVE",
"357 482 CURVE SMOOTH"
);
}
);
width = 748;
}
);
unicode = 10E2;
},
